%TF.GenerationSoftware,KiCad,Pcbnew,9.0.7*%
%TF.CreationDate,2026-03-12T14:24:35-06:00*%
%TF.ProjectId,Power Supply,506f7765-7220-4537-9570-706c792e6b69,rev?*%
%TF.SameCoordinates,Original*%
%TF.FileFunction,Legend,Top*%
%TF.FilePolarity,Positive*%
%FSLAX46Y46*%
G04 Gerber Fmt 4.6, Leading zero omitted, Abs format (unit mm)*
G04 Created by KiCad (PCBNEW 9.0.7) date 2026-03-12 14:24:35*
%MOMM*%
%LPD*%
G01*
G04 APERTURE LIST*
%ADD10C,0.150000*%
%ADD11C,0.120000*%
%ADD12C,0.100000*%
G04 APERTURE END LIST*
D10*
X108545333Y-39711580D02*
X108497714Y-39759200D01*
X108497714Y-39759200D02*
X108354857Y-39806819D01*
X108354857Y-39806819D02*
X108259619Y-39806819D01*
X108259619Y-39806819D02*
X108116762Y-39759200D01*
X108116762Y-39759200D02*
X108021524Y-39663961D01*
X108021524Y-39663961D02*
X107973905Y-39568723D01*
X107973905Y-39568723D02*
X107926286Y-39378247D01*
X107926286Y-39378247D02*
X107926286Y-39235390D01*
X107926286Y-39235390D02*
X107973905Y-39044914D01*
X107973905Y-39044914D02*
X108021524Y-38949676D01*
X108021524Y-38949676D02*
X108116762Y-38854438D01*
X108116762Y-38854438D02*
X108259619Y-38806819D01*
X108259619Y-38806819D02*
X108354857Y-38806819D01*
X108354857Y-38806819D02*
X108497714Y-38854438D01*
X108497714Y-38854438D02*
X108545333Y-38902057D01*
X109497714Y-39806819D02*
X108926286Y-39806819D01*
X109212000Y-39806819D02*
X109212000Y-38806819D01*
X109212000Y-38806819D02*
X109116762Y-38949676D01*
X109116762Y-38949676D02*
X109021524Y-39044914D01*
X109021524Y-39044914D02*
X108926286Y-39092533D01*
X108069142Y-43906819D02*
X107497714Y-43906819D01*
X107783428Y-43906819D02*
X107783428Y-42906819D01*
X107783428Y-42906819D02*
X107688190Y-43049676D01*
X107688190Y-43049676D02*
X107592952Y-43144914D01*
X107592952Y-43144914D02*
X107497714Y-43192533D01*
X108688190Y-42906819D02*
X108783428Y-42906819D01*
X108783428Y-42906819D02*
X108878666Y-42954438D01*
X108878666Y-42954438D02*
X108926285Y-43002057D01*
X108926285Y-43002057D02*
X108973904Y-43097295D01*
X108973904Y-43097295D02*
X109021523Y-43287771D01*
X109021523Y-43287771D02*
X109021523Y-43525866D01*
X109021523Y-43525866D02*
X108973904Y-43716342D01*
X108973904Y-43716342D02*
X108926285Y-43811580D01*
X108926285Y-43811580D02*
X108878666Y-43859200D01*
X108878666Y-43859200D02*
X108783428Y-43906819D01*
X108783428Y-43906819D02*
X108688190Y-43906819D01*
X108688190Y-43906819D02*
X108592952Y-43859200D01*
X108592952Y-43859200D02*
X108545333Y-43811580D01*
X108545333Y-43811580D02*
X108497714Y-43716342D01*
X108497714Y-43716342D02*
X108450095Y-43525866D01*
X108450095Y-43525866D02*
X108450095Y-43287771D01*
X108450095Y-43287771D02*
X108497714Y-43097295D01*
X108497714Y-43097295D02*
X108545333Y-43002057D01*
X108545333Y-43002057D02*
X108592952Y-42954438D01*
X108592952Y-42954438D02*
X108688190Y-42906819D01*
X109878666Y-43240152D02*
X109878666Y-43906819D01*
X109450095Y-43240152D02*
X109450095Y-43763961D01*
X109450095Y-43763961D02*
X109497714Y-43859200D01*
X109497714Y-43859200D02*
X109592952Y-43906819D01*
X109592952Y-43906819D02*
X109735809Y-43906819D01*
X109735809Y-43906819D02*
X109831047Y-43859200D01*
X109831047Y-43859200D02*
X109878666Y-43811580D01*
X106954095Y-68694819D02*
X106954095Y-69504342D01*
X106954095Y-69504342D02*
X107001714Y-69599580D01*
X107001714Y-69599580D02*
X107049333Y-69647200D01*
X107049333Y-69647200D02*
X107144571Y-69694819D01*
X107144571Y-69694819D02*
X107335047Y-69694819D01*
X107335047Y-69694819D02*
X107430285Y-69647200D01*
X107430285Y-69647200D02*
X107477904Y-69599580D01*
X107477904Y-69599580D02*
X107525523Y-69504342D01*
X107525523Y-69504342D02*
X107525523Y-68694819D01*
X107954095Y-68790057D02*
X108001714Y-68742438D01*
X108001714Y-68742438D02*
X108096952Y-68694819D01*
X108096952Y-68694819D02*
X108335047Y-68694819D01*
X108335047Y-68694819D02*
X108430285Y-68742438D01*
X108430285Y-68742438D02*
X108477904Y-68790057D01*
X108477904Y-68790057D02*
X108525523Y-68885295D01*
X108525523Y-68885295D02*
X108525523Y-68980533D01*
X108525523Y-68980533D02*
X108477904Y-69123390D01*
X108477904Y-69123390D02*
X107906476Y-69694819D01*
X107906476Y-69694819D02*
X108525523Y-69694819D01*
X102692190Y-75994819D02*
X102216000Y-75994819D01*
X102216000Y-75994819D02*
X102216000Y-74994819D01*
X103025524Y-75994819D02*
X103025524Y-74994819D01*
X103025524Y-74994819D02*
X103358857Y-75709104D01*
X103358857Y-75709104D02*
X103692190Y-74994819D01*
X103692190Y-74994819D02*
X103692190Y-75994819D01*
X104073143Y-74994819D02*
X104692190Y-74994819D01*
X104692190Y-74994819D02*
X104358857Y-75375771D01*
X104358857Y-75375771D02*
X104501714Y-75375771D01*
X104501714Y-75375771D02*
X104596952Y-75423390D01*
X104596952Y-75423390D02*
X104644571Y-75471009D01*
X104644571Y-75471009D02*
X104692190Y-75566247D01*
X104692190Y-75566247D02*
X104692190Y-75804342D01*
X104692190Y-75804342D02*
X104644571Y-75899580D01*
X104644571Y-75899580D02*
X104596952Y-75947200D01*
X104596952Y-75947200D02*
X104501714Y-75994819D01*
X104501714Y-75994819D02*
X104216000Y-75994819D01*
X104216000Y-75994819D02*
X104120762Y-75947200D01*
X104120762Y-75947200D02*
X104073143Y-75899580D01*
X105644571Y-75994819D02*
X105073143Y-75994819D01*
X105358857Y-75994819D02*
X105358857Y-74994819D01*
X105358857Y-74994819D02*
X105263619Y-75137676D01*
X105263619Y-75137676D02*
X105168381Y-75232914D01*
X105168381Y-75232914D02*
X105073143Y-75280533D01*
X105977905Y-74994819D02*
X106644571Y-74994819D01*
X106644571Y-74994819D02*
X106216000Y-75994819D01*
X106787429Y-76090057D02*
X107549333Y-76090057D01*
X107644572Y-74994819D02*
X108216000Y-74994819D01*
X107930286Y-75994819D02*
X107930286Y-74994819D01*
X108739810Y-74994819D02*
X108930286Y-74994819D01*
X108930286Y-74994819D02*
X109025524Y-75042438D01*
X109025524Y-75042438D02*
X109120762Y-75137676D01*
X109120762Y-75137676D02*
X109168381Y-75328152D01*
X109168381Y-75328152D02*
X109168381Y-75661485D01*
X109168381Y-75661485D02*
X109120762Y-75851961D01*
X109120762Y-75851961D02*
X109025524Y-75947200D01*
X109025524Y-75947200D02*
X108930286Y-75994819D01*
X108930286Y-75994819D02*
X108739810Y-75994819D01*
X108739810Y-75994819D02*
X108644572Y-75947200D01*
X108644572Y-75947200D02*
X108549334Y-75851961D01*
X108549334Y-75851961D02*
X108501715Y-75661485D01*
X108501715Y-75661485D02*
X108501715Y-75328152D01*
X108501715Y-75328152D02*
X108549334Y-75137676D01*
X108549334Y-75137676D02*
X108644572Y-75042438D01*
X108644572Y-75042438D02*
X108739810Y-74994819D01*
X109596953Y-75613866D02*
X110358858Y-75613866D01*
X110787429Y-75090057D02*
X110835048Y-75042438D01*
X110835048Y-75042438D02*
X110930286Y-74994819D01*
X110930286Y-74994819D02*
X111168381Y-74994819D01*
X111168381Y-74994819D02*
X111263619Y-75042438D01*
X111263619Y-75042438D02*
X111311238Y-75090057D01*
X111311238Y-75090057D02*
X111358857Y-75185295D01*
X111358857Y-75185295D02*
X111358857Y-75280533D01*
X111358857Y-75280533D02*
X111311238Y-75423390D01*
X111311238Y-75423390D02*
X110739810Y-75994819D01*
X110739810Y-75994819D02*
X111358857Y-75994819D01*
X111739810Y-75090057D02*
X111787429Y-75042438D01*
X111787429Y-75042438D02*
X111882667Y-74994819D01*
X111882667Y-74994819D02*
X112120762Y-74994819D01*
X112120762Y-74994819D02*
X112216000Y-75042438D01*
X112216000Y-75042438D02*
X112263619Y-75090057D01*
X112263619Y-75090057D02*
X112311238Y-75185295D01*
X112311238Y-75185295D02*
X112311238Y-75280533D01*
X112311238Y-75280533D02*
X112263619Y-75423390D01*
X112263619Y-75423390D02*
X111692191Y-75994819D01*
X111692191Y-75994819D02*
X112311238Y-75994819D01*
X112930286Y-74994819D02*
X113025524Y-74994819D01*
X113025524Y-74994819D02*
X113120762Y-75042438D01*
X113120762Y-75042438D02*
X113168381Y-75090057D01*
X113168381Y-75090057D02*
X113216000Y-75185295D01*
X113216000Y-75185295D02*
X113263619Y-75375771D01*
X113263619Y-75375771D02*
X113263619Y-75613866D01*
X113263619Y-75613866D02*
X113216000Y-75804342D01*
X113216000Y-75804342D02*
X113168381Y-75899580D01*
X113168381Y-75899580D02*
X113120762Y-75947200D01*
X113120762Y-75947200D02*
X113025524Y-75994819D01*
X113025524Y-75994819D02*
X112930286Y-75994819D01*
X112930286Y-75994819D02*
X112835048Y-75947200D01*
X112835048Y-75947200D02*
X112787429Y-75899580D01*
X112787429Y-75899580D02*
X112739810Y-75804342D01*
X112739810Y-75804342D02*
X112692191Y-75613866D01*
X112692191Y-75613866D02*
X112692191Y-75375771D01*
X112692191Y-75375771D02*
X112739810Y-75185295D01*
X112739810Y-75185295D02*
X112787429Y-75090057D01*
X112787429Y-75090057D02*
X112835048Y-75042438D01*
X112835048Y-75042438D02*
X112930286Y-74994819D01*
X124375714Y-49909200D02*
X124518571Y-49956819D01*
X124518571Y-49956819D02*
X124756666Y-49956819D01*
X124756666Y-49956819D02*
X124851904Y-49909200D01*
X124851904Y-49909200D02*
X124899523Y-49861580D01*
X124899523Y-49861580D02*
X124947142Y-49766342D01*
X124947142Y-49766342D02*
X124947142Y-49671104D01*
X124947142Y-49671104D02*
X124899523Y-49575866D01*
X124899523Y-49575866D02*
X124851904Y-49528247D01*
X124851904Y-49528247D02*
X124756666Y-49480628D01*
X124756666Y-49480628D02*
X124566190Y-49433009D01*
X124566190Y-49433009D02*
X124470952Y-49385390D01*
X124470952Y-49385390D02*
X124423333Y-49337771D01*
X124423333Y-49337771D02*
X124375714Y-49242533D01*
X124375714Y-49242533D02*
X124375714Y-49147295D01*
X124375714Y-49147295D02*
X124423333Y-49052057D01*
X124423333Y-49052057D02*
X124470952Y-49004438D01*
X124470952Y-49004438D02*
X124566190Y-48956819D01*
X124566190Y-48956819D02*
X124804285Y-48956819D01*
X124804285Y-48956819D02*
X124947142Y-49004438D01*
X125899523Y-49956819D02*
X125328095Y-49956819D01*
X125613809Y-49956819D02*
X125613809Y-48956819D01*
X125613809Y-48956819D02*
X125518571Y-49099676D01*
X125518571Y-49099676D02*
X125423333Y-49194914D01*
X125423333Y-49194914D02*
X125328095Y-49242533D01*
X120613809Y-43273009D02*
X120947142Y-43273009D01*
X121089999Y-43796819D02*
X120613809Y-43796819D01*
X120613809Y-43796819D02*
X120613809Y-42796819D01*
X120613809Y-42796819D02*
X121089999Y-42796819D01*
X122042380Y-42844438D02*
X121947142Y-42796819D01*
X121947142Y-42796819D02*
X121804285Y-42796819D01*
X121804285Y-42796819D02*
X121661428Y-42844438D01*
X121661428Y-42844438D02*
X121566190Y-42939676D01*
X121566190Y-42939676D02*
X121518571Y-43034914D01*
X121518571Y-43034914D02*
X121470952Y-43225390D01*
X121470952Y-43225390D02*
X121470952Y-43368247D01*
X121470952Y-43368247D02*
X121518571Y-43558723D01*
X121518571Y-43558723D02*
X121566190Y-43653961D01*
X121566190Y-43653961D02*
X121661428Y-43749200D01*
X121661428Y-43749200D02*
X121804285Y-43796819D01*
X121804285Y-43796819D02*
X121899523Y-43796819D01*
X121899523Y-43796819D02*
X122042380Y-43749200D01*
X122042380Y-43749200D02*
X122089999Y-43701580D01*
X122089999Y-43701580D02*
X122089999Y-43368247D01*
X122089999Y-43368247D02*
X121899523Y-43368247D01*
X123042380Y-43796819D02*
X122470952Y-43796819D01*
X122756666Y-43796819D02*
X122756666Y-42796819D01*
X122756666Y-42796819D02*
X122661428Y-42939676D01*
X122661428Y-42939676D02*
X122566190Y-43034914D01*
X122566190Y-43034914D02*
X122470952Y-43082533D01*
X123423333Y-42892057D02*
X123470952Y-42844438D01*
X123470952Y-42844438D02*
X123566190Y-42796819D01*
X123566190Y-42796819D02*
X123804285Y-42796819D01*
X123804285Y-42796819D02*
X123899523Y-42844438D01*
X123899523Y-42844438D02*
X123947142Y-42892057D01*
X123947142Y-42892057D02*
X123994761Y-42987295D01*
X123994761Y-42987295D02*
X123994761Y-43082533D01*
X123994761Y-43082533D02*
X123947142Y-43225390D01*
X123947142Y-43225390D02*
X123375714Y-43796819D01*
X123375714Y-43796819D02*
X123994761Y-43796819D01*
X124947142Y-43796819D02*
X124375714Y-43796819D01*
X124661428Y-43796819D02*
X124661428Y-42796819D01*
X124661428Y-42796819D02*
X124566190Y-42939676D01*
X124566190Y-42939676D02*
X124470952Y-43034914D01*
X124470952Y-43034914D02*
X124375714Y-43082533D01*
X125518571Y-43225390D02*
X125423333Y-43177771D01*
X125423333Y-43177771D02*
X125375714Y-43130152D01*
X125375714Y-43130152D02*
X125328095Y-43034914D01*
X125328095Y-43034914D02*
X125328095Y-42987295D01*
X125328095Y-42987295D02*
X125375714Y-42892057D01*
X125375714Y-42892057D02*
X125423333Y-42844438D01*
X125423333Y-42844438D02*
X125518571Y-42796819D01*
X125518571Y-42796819D02*
X125709047Y-42796819D01*
X125709047Y-42796819D02*
X125804285Y-42844438D01*
X125804285Y-42844438D02*
X125851904Y-42892057D01*
X125851904Y-42892057D02*
X125899523Y-42987295D01*
X125899523Y-42987295D02*
X125899523Y-43034914D01*
X125899523Y-43034914D02*
X125851904Y-43130152D01*
X125851904Y-43130152D02*
X125804285Y-43177771D01*
X125804285Y-43177771D02*
X125709047Y-43225390D01*
X125709047Y-43225390D02*
X125518571Y-43225390D01*
X125518571Y-43225390D02*
X125423333Y-43273009D01*
X125423333Y-43273009D02*
X125375714Y-43320628D01*
X125375714Y-43320628D02*
X125328095Y-43415866D01*
X125328095Y-43415866D02*
X125328095Y-43606342D01*
X125328095Y-43606342D02*
X125375714Y-43701580D01*
X125375714Y-43701580D02*
X125423333Y-43749200D01*
X125423333Y-43749200D02*
X125518571Y-43796819D01*
X125518571Y-43796819D02*
X125709047Y-43796819D01*
X125709047Y-43796819D02*
X125804285Y-43749200D01*
X125804285Y-43749200D02*
X125851904Y-43701580D01*
X125851904Y-43701580D02*
X125899523Y-43606342D01*
X125899523Y-43606342D02*
X125899523Y-43415866D01*
X125899523Y-43415866D02*
X125851904Y-43320628D01*
X125851904Y-43320628D02*
X125804285Y-43273009D01*
X125804285Y-43273009D02*
X125709047Y-43225390D01*
X130730666Y-29840819D02*
X130730666Y-30555104D01*
X130730666Y-30555104D02*
X130683047Y-30697961D01*
X130683047Y-30697961D02*
X130587809Y-30793200D01*
X130587809Y-30793200D02*
X130444952Y-30840819D01*
X130444952Y-30840819D02*
X130349714Y-30840819D01*
X131730666Y-30840819D02*
X131159238Y-30840819D01*
X131444952Y-30840819D02*
X131444952Y-29840819D01*
X131444952Y-29840819D02*
X131349714Y-29983676D01*
X131349714Y-29983676D02*
X131254476Y-30078914D01*
X131254476Y-30078914D02*
X131159238Y-30126533D01*
X103690666Y-65020819D02*
X103690666Y-65735104D01*
X103690666Y-65735104D02*
X103643047Y-65877961D01*
X103643047Y-65877961D02*
X103547809Y-65973200D01*
X103547809Y-65973200D02*
X103404952Y-66020819D01*
X103404952Y-66020819D02*
X103309714Y-66020819D01*
X104595428Y-65020819D02*
X104404952Y-65020819D01*
X104404952Y-65020819D02*
X104309714Y-65068438D01*
X104309714Y-65068438D02*
X104262095Y-65116057D01*
X104262095Y-65116057D02*
X104166857Y-65258914D01*
X104166857Y-65258914D02*
X104119238Y-65449390D01*
X104119238Y-65449390D02*
X104119238Y-65830342D01*
X104119238Y-65830342D02*
X104166857Y-65925580D01*
X104166857Y-65925580D02*
X104214476Y-65973200D01*
X104214476Y-65973200D02*
X104309714Y-66020819D01*
X104309714Y-66020819D02*
X104500190Y-66020819D01*
X104500190Y-66020819D02*
X104595428Y-65973200D01*
X104595428Y-65973200D02*
X104643047Y-65925580D01*
X104643047Y-65925580D02*
X104690666Y-65830342D01*
X104690666Y-65830342D02*
X104690666Y-65592247D01*
X104690666Y-65592247D02*
X104643047Y-65497009D01*
X104643047Y-65497009D02*
X104595428Y-65449390D01*
X104595428Y-65449390D02*
X104500190Y-65401771D01*
X104500190Y-65401771D02*
X104309714Y-65401771D01*
X104309714Y-65401771D02*
X104214476Y-65449390D01*
X104214476Y-65449390D02*
X104166857Y-65497009D01*
X104166857Y-65497009D02*
X104119238Y-65592247D01*
X99750189Y-54247009D02*
X99893046Y-54294628D01*
X99893046Y-54294628D02*
X99940665Y-54342247D01*
X99940665Y-54342247D02*
X99988284Y-54437485D01*
X99988284Y-54437485D02*
X99988284Y-54580342D01*
X99988284Y-54580342D02*
X99940665Y-54675580D01*
X99940665Y-54675580D02*
X99893046Y-54723200D01*
X99893046Y-54723200D02*
X99797808Y-54770819D01*
X99797808Y-54770819D02*
X99416856Y-54770819D01*
X99416856Y-54770819D02*
X99416856Y-53770819D01*
X99416856Y-53770819D02*
X99750189Y-53770819D01*
X99750189Y-53770819D02*
X99845427Y-53818438D01*
X99845427Y-53818438D02*
X99893046Y-53866057D01*
X99893046Y-53866057D02*
X99940665Y-53961295D01*
X99940665Y-53961295D02*
X99940665Y-54056533D01*
X99940665Y-54056533D02*
X99893046Y-54151771D01*
X99893046Y-54151771D02*
X99845427Y-54199390D01*
X99845427Y-54199390D02*
X99750189Y-54247009D01*
X99750189Y-54247009D02*
X99416856Y-54247009D01*
X100845427Y-54770819D02*
X100845427Y-54247009D01*
X100845427Y-54247009D02*
X100797808Y-54151771D01*
X100797808Y-54151771D02*
X100702570Y-54104152D01*
X100702570Y-54104152D02*
X100512094Y-54104152D01*
X100512094Y-54104152D02*
X100416856Y-54151771D01*
X100845427Y-54723200D02*
X100750189Y-54770819D01*
X100750189Y-54770819D02*
X100512094Y-54770819D01*
X100512094Y-54770819D02*
X100416856Y-54723200D01*
X100416856Y-54723200D02*
X100369237Y-54627961D01*
X100369237Y-54627961D02*
X100369237Y-54532723D01*
X100369237Y-54532723D02*
X100416856Y-54437485D01*
X100416856Y-54437485D02*
X100512094Y-54389866D01*
X100512094Y-54389866D02*
X100750189Y-54389866D01*
X100750189Y-54389866D02*
X100845427Y-54342247D01*
X101321618Y-54770819D02*
X101321618Y-54104152D01*
X101321618Y-54294628D02*
X101369237Y-54199390D01*
X101369237Y-54199390D02*
X101416856Y-54151771D01*
X101416856Y-54151771D02*
X101512094Y-54104152D01*
X101512094Y-54104152D02*
X101607332Y-54104152D01*
X101940666Y-54770819D02*
X101940666Y-54104152D01*
X101940666Y-54294628D02*
X101988285Y-54199390D01*
X101988285Y-54199390D02*
X102035904Y-54151771D01*
X102035904Y-54151771D02*
X102131142Y-54104152D01*
X102131142Y-54104152D02*
X102226380Y-54104152D01*
X102940666Y-54723200D02*
X102845428Y-54770819D01*
X102845428Y-54770819D02*
X102654952Y-54770819D01*
X102654952Y-54770819D02*
X102559714Y-54723200D01*
X102559714Y-54723200D02*
X102512095Y-54627961D01*
X102512095Y-54627961D02*
X102512095Y-54247009D01*
X102512095Y-54247009D02*
X102559714Y-54151771D01*
X102559714Y-54151771D02*
X102654952Y-54104152D01*
X102654952Y-54104152D02*
X102845428Y-54104152D01*
X102845428Y-54104152D02*
X102940666Y-54151771D01*
X102940666Y-54151771D02*
X102988285Y-54247009D01*
X102988285Y-54247009D02*
X102988285Y-54342247D01*
X102988285Y-54342247D02*
X102512095Y-54437485D01*
X103559714Y-54770819D02*
X103464476Y-54723200D01*
X103464476Y-54723200D02*
X103416857Y-54627961D01*
X103416857Y-54627961D02*
X103416857Y-53770819D01*
X103702572Y-54866057D02*
X104464476Y-54866057D01*
X104988286Y-53770819D02*
X104988286Y-54485104D01*
X104988286Y-54485104D02*
X104940667Y-54627961D01*
X104940667Y-54627961D02*
X104845429Y-54723200D01*
X104845429Y-54723200D02*
X104702572Y-54770819D01*
X104702572Y-54770819D02*
X104607334Y-54770819D01*
X105893048Y-54770819D02*
X105893048Y-54247009D01*
X105893048Y-54247009D02*
X105845429Y-54151771D01*
X105845429Y-54151771D02*
X105750191Y-54104152D01*
X105750191Y-54104152D02*
X105559715Y-54104152D01*
X105559715Y-54104152D02*
X105464477Y-54151771D01*
X105893048Y-54723200D02*
X105797810Y-54770819D01*
X105797810Y-54770819D02*
X105559715Y-54770819D01*
X105559715Y-54770819D02*
X105464477Y-54723200D01*
X105464477Y-54723200D02*
X105416858Y-54627961D01*
X105416858Y-54627961D02*
X105416858Y-54532723D01*
X105416858Y-54532723D02*
X105464477Y-54437485D01*
X105464477Y-54437485D02*
X105559715Y-54389866D01*
X105559715Y-54389866D02*
X105797810Y-54389866D01*
X105797810Y-54389866D02*
X105893048Y-54342247D01*
X106797810Y-54723200D02*
X106702572Y-54770819D01*
X106702572Y-54770819D02*
X106512096Y-54770819D01*
X106512096Y-54770819D02*
X106416858Y-54723200D01*
X106416858Y-54723200D02*
X106369239Y-54675580D01*
X106369239Y-54675580D02*
X106321620Y-54580342D01*
X106321620Y-54580342D02*
X106321620Y-54294628D01*
X106321620Y-54294628D02*
X106369239Y-54199390D01*
X106369239Y-54199390D02*
X106416858Y-54151771D01*
X106416858Y-54151771D02*
X106512096Y-54104152D01*
X106512096Y-54104152D02*
X106702572Y-54104152D01*
X106702572Y-54104152D02*
X106797810Y-54151771D01*
X107226382Y-54770819D02*
X107226382Y-53770819D01*
X107321620Y-54389866D02*
X107607334Y-54770819D01*
X107607334Y-54104152D02*
X107226382Y-54485104D01*
X107797811Y-54866057D02*
X108559715Y-54866057D01*
X108750192Y-54723200D02*
X108893049Y-54770819D01*
X108893049Y-54770819D02*
X109131144Y-54770819D01*
X109131144Y-54770819D02*
X109226382Y-54723200D01*
X109226382Y-54723200D02*
X109274001Y-54675580D01*
X109274001Y-54675580D02*
X109321620Y-54580342D01*
X109321620Y-54580342D02*
X109321620Y-54485104D01*
X109321620Y-54485104D02*
X109274001Y-54389866D01*
X109274001Y-54389866D02*
X109226382Y-54342247D01*
X109226382Y-54342247D02*
X109131144Y-54294628D01*
X109131144Y-54294628D02*
X108940668Y-54247009D01*
X108940668Y-54247009D02*
X108845430Y-54199390D01*
X108845430Y-54199390D02*
X108797811Y-54151771D01*
X108797811Y-54151771D02*
X108750192Y-54056533D01*
X108750192Y-54056533D02*
X108750192Y-53961295D01*
X108750192Y-53961295D02*
X108797811Y-53866057D01*
X108797811Y-53866057D02*
X108845430Y-53818438D01*
X108845430Y-53818438D02*
X108940668Y-53770819D01*
X108940668Y-53770819D02*
X109178763Y-53770819D01*
X109178763Y-53770819D02*
X109321620Y-53818438D01*
X109654954Y-54104152D02*
X109845430Y-54770819D01*
X109845430Y-54770819D02*
X110035906Y-54294628D01*
X110035906Y-54294628D02*
X110226382Y-54770819D01*
X110226382Y-54770819D02*
X110416858Y-54104152D01*
X110797811Y-54770819D02*
X110797811Y-54104152D01*
X110797811Y-53770819D02*
X110750192Y-53818438D01*
X110750192Y-53818438D02*
X110797811Y-53866057D01*
X110797811Y-53866057D02*
X110845430Y-53818438D01*
X110845430Y-53818438D02*
X110797811Y-53770819D01*
X110797811Y-53770819D02*
X110797811Y-53866057D01*
X111131144Y-54104152D02*
X111512096Y-54104152D01*
X111274001Y-53770819D02*
X111274001Y-54627961D01*
X111274001Y-54627961D02*
X111321620Y-54723200D01*
X111321620Y-54723200D02*
X111416858Y-54770819D01*
X111416858Y-54770819D02*
X111512096Y-54770819D01*
X112274001Y-54723200D02*
X112178763Y-54770819D01*
X112178763Y-54770819D02*
X111988287Y-54770819D01*
X111988287Y-54770819D02*
X111893049Y-54723200D01*
X111893049Y-54723200D02*
X111845430Y-54675580D01*
X111845430Y-54675580D02*
X111797811Y-54580342D01*
X111797811Y-54580342D02*
X111797811Y-54294628D01*
X111797811Y-54294628D02*
X111845430Y-54199390D01*
X111845430Y-54199390D02*
X111893049Y-54151771D01*
X111893049Y-54151771D02*
X111988287Y-54104152D01*
X111988287Y-54104152D02*
X112178763Y-54104152D01*
X112178763Y-54104152D02*
X112274001Y-54151771D01*
X112702573Y-54770819D02*
X112702573Y-53770819D01*
X113131144Y-54770819D02*
X113131144Y-54247009D01*
X113131144Y-54247009D02*
X113083525Y-54151771D01*
X113083525Y-54151771D02*
X112988287Y-54104152D01*
X112988287Y-54104152D02*
X112845430Y-54104152D01*
X112845430Y-54104152D02*
X112750192Y-54151771D01*
X112750192Y-54151771D02*
X112702573Y-54199390D01*
X101707333Y-39457580D02*
X101659714Y-39505200D01*
X101659714Y-39505200D02*
X101516857Y-39552819D01*
X101516857Y-39552819D02*
X101421619Y-39552819D01*
X101421619Y-39552819D02*
X101278762Y-39505200D01*
X101278762Y-39505200D02*
X101183524Y-39409961D01*
X101183524Y-39409961D02*
X101135905Y-39314723D01*
X101135905Y-39314723D02*
X101088286Y-39124247D01*
X101088286Y-39124247D02*
X101088286Y-38981390D01*
X101088286Y-38981390D02*
X101135905Y-38790914D01*
X101135905Y-38790914D02*
X101183524Y-38695676D01*
X101183524Y-38695676D02*
X101278762Y-38600438D01*
X101278762Y-38600438D02*
X101421619Y-38552819D01*
X101421619Y-38552819D02*
X101516857Y-38552819D01*
X101516857Y-38552819D02*
X101659714Y-38600438D01*
X101659714Y-38600438D02*
X101707333Y-38648057D01*
X102088286Y-38648057D02*
X102135905Y-38600438D01*
X102135905Y-38600438D02*
X102231143Y-38552819D01*
X102231143Y-38552819D02*
X102469238Y-38552819D01*
X102469238Y-38552819D02*
X102564476Y-38600438D01*
X102564476Y-38600438D02*
X102612095Y-38648057D01*
X102612095Y-38648057D02*
X102659714Y-38743295D01*
X102659714Y-38743295D02*
X102659714Y-38838533D01*
X102659714Y-38838533D02*
X102612095Y-38981390D01*
X102612095Y-38981390D02*
X102040667Y-39552819D01*
X102040667Y-39552819D02*
X102659714Y-39552819D01*
X100659714Y-42652819D02*
X100754952Y-42652819D01*
X100754952Y-42652819D02*
X100850190Y-42700438D01*
X100850190Y-42700438D02*
X100897809Y-42748057D01*
X100897809Y-42748057D02*
X100945428Y-42843295D01*
X100945428Y-42843295D02*
X100993047Y-43033771D01*
X100993047Y-43033771D02*
X100993047Y-43271866D01*
X100993047Y-43271866D02*
X100945428Y-43462342D01*
X100945428Y-43462342D02*
X100897809Y-43557580D01*
X100897809Y-43557580D02*
X100850190Y-43605200D01*
X100850190Y-43605200D02*
X100754952Y-43652819D01*
X100754952Y-43652819D02*
X100659714Y-43652819D01*
X100659714Y-43652819D02*
X100564476Y-43605200D01*
X100564476Y-43605200D02*
X100516857Y-43557580D01*
X100516857Y-43557580D02*
X100469238Y-43462342D01*
X100469238Y-43462342D02*
X100421619Y-43271866D01*
X100421619Y-43271866D02*
X100421619Y-43033771D01*
X100421619Y-43033771D02*
X100469238Y-42843295D01*
X100469238Y-42843295D02*
X100516857Y-42748057D01*
X100516857Y-42748057D02*
X100564476Y-42700438D01*
X100564476Y-42700438D02*
X100659714Y-42652819D01*
X101421619Y-43557580D02*
X101469238Y-43605200D01*
X101469238Y-43605200D02*
X101421619Y-43652819D01*
X101421619Y-43652819D02*
X101374000Y-43605200D01*
X101374000Y-43605200D02*
X101421619Y-43557580D01*
X101421619Y-43557580D02*
X101421619Y-43652819D01*
X102421618Y-43652819D02*
X101850190Y-43652819D01*
X102135904Y-43652819D02*
X102135904Y-42652819D01*
X102135904Y-42652819D02*
X102040666Y-42795676D01*
X102040666Y-42795676D02*
X101945428Y-42890914D01*
X101945428Y-42890914D02*
X101850190Y-42938533D01*
X103278761Y-42986152D02*
X103278761Y-43652819D01*
X102850190Y-42986152D02*
X102850190Y-43509961D01*
X102850190Y-43509961D02*
X102897809Y-43605200D01*
X102897809Y-43605200D02*
X102993047Y-43652819D01*
X102993047Y-43652819D02*
X103135904Y-43652819D01*
X103135904Y-43652819D02*
X103231142Y-43605200D01*
X103231142Y-43605200D02*
X103278761Y-43557580D01*
X103580819Y-88472333D02*
X104295104Y-88472333D01*
X104295104Y-88472333D02*
X104437961Y-88519952D01*
X104437961Y-88519952D02*
X104533200Y-88615190D01*
X104533200Y-88615190D02*
X104580819Y-88758047D01*
X104580819Y-88758047D02*
X104580819Y-88853285D01*
X103914152Y-87567571D02*
X104580819Y-87567571D01*
X103533200Y-87805666D02*
X104247485Y-88043761D01*
X104247485Y-88043761D02*
X104247485Y-87424714D01*
X103886095Y-50356819D02*
X103886095Y-51166342D01*
X103886095Y-51166342D02*
X103933714Y-51261580D01*
X103933714Y-51261580D02*
X103981333Y-51309200D01*
X103981333Y-51309200D02*
X104076571Y-51356819D01*
X104076571Y-51356819D02*
X104267047Y-51356819D01*
X104267047Y-51356819D02*
X104362285Y-51309200D01*
X104362285Y-51309200D02*
X104409904Y-51261580D01*
X104409904Y-51261580D02*
X104457523Y-51166342D01*
X104457523Y-51166342D02*
X104457523Y-50356819D01*
X105457523Y-51356819D02*
X104886095Y-51356819D01*
X105171809Y-51356819D02*
X105171809Y-50356819D01*
X105171809Y-50356819D02*
X105076571Y-50499676D01*
X105076571Y-50499676D02*
X104981333Y-50594914D01*
X104981333Y-50594914D02*
X104886095Y-50642533D01*
X106005333Y-77557580D02*
X105957714Y-77605200D01*
X105957714Y-77605200D02*
X105814857Y-77652819D01*
X105814857Y-77652819D02*
X105719619Y-77652819D01*
X105719619Y-77652819D02*
X105576762Y-77605200D01*
X105576762Y-77605200D02*
X105481524Y-77509961D01*
X105481524Y-77509961D02*
X105433905Y-77414723D01*
X105433905Y-77414723D02*
X105386286Y-77224247D01*
X105386286Y-77224247D02*
X105386286Y-77081390D01*
X105386286Y-77081390D02*
X105433905Y-76890914D01*
X105433905Y-76890914D02*
X105481524Y-76795676D01*
X105481524Y-76795676D02*
X105576762Y-76700438D01*
X105576762Y-76700438D02*
X105719619Y-76652819D01*
X105719619Y-76652819D02*
X105814857Y-76652819D01*
X105814857Y-76652819D02*
X105957714Y-76700438D01*
X105957714Y-76700438D02*
X106005333Y-76748057D01*
X106338667Y-76652819D02*
X106957714Y-76652819D01*
X106957714Y-76652819D02*
X106624381Y-77033771D01*
X106624381Y-77033771D02*
X106767238Y-77033771D01*
X106767238Y-77033771D02*
X106862476Y-77081390D01*
X106862476Y-77081390D02*
X106910095Y-77129009D01*
X106910095Y-77129009D02*
X106957714Y-77224247D01*
X106957714Y-77224247D02*
X106957714Y-77462342D01*
X106957714Y-77462342D02*
X106910095Y-77557580D01*
X106910095Y-77557580D02*
X106862476Y-77605200D01*
X106862476Y-77605200D02*
X106767238Y-77652819D01*
X106767238Y-77652819D02*
X106481524Y-77652819D01*
X106481524Y-77652819D02*
X106386286Y-77605200D01*
X106386286Y-77605200D02*
X106338667Y-77557580D01*
X130429666Y-82663819D02*
X130429666Y-83378104D01*
X130429666Y-83378104D02*
X130382047Y-83520961D01*
X130382047Y-83520961D02*
X130286809Y-83616200D01*
X130286809Y-83616200D02*
X130143952Y-83663819D01*
X130143952Y-83663819D02*
X130048714Y-83663819D01*
X130858238Y-82759057D02*
X130905857Y-82711438D01*
X130905857Y-82711438D02*
X131001095Y-82663819D01*
X131001095Y-82663819D02*
X131239190Y-82663819D01*
X131239190Y-82663819D02*
X131334428Y-82711438D01*
X131334428Y-82711438D02*
X131382047Y-82759057D01*
X131382047Y-82759057D02*
X131429666Y-82854295D01*
X131429666Y-82854295D02*
X131429666Y-82949533D01*
X131429666Y-82949533D02*
X131382047Y-83092390D01*
X131382047Y-83092390D02*
X130810619Y-83663819D01*
X130810619Y-83663819D02*
X131429666Y-83663819D01*
X119370819Y-61957094D02*
X118370819Y-61957094D01*
X118370819Y-61957094D02*
X118370819Y-61718999D01*
X118370819Y-61718999D02*
X118418438Y-61576142D01*
X118418438Y-61576142D02*
X118513676Y-61480904D01*
X118513676Y-61480904D02*
X118608914Y-61433285D01*
X118608914Y-61433285D02*
X118799390Y-61385666D01*
X118799390Y-61385666D02*
X118942247Y-61385666D01*
X118942247Y-61385666D02*
X119132723Y-61433285D01*
X119132723Y-61433285D02*
X119227961Y-61480904D01*
X119227961Y-61480904D02*
X119323200Y-61576142D01*
X119323200Y-61576142D02*
X119370819Y-61718999D01*
X119370819Y-61718999D02*
X119370819Y-61957094D01*
X119370819Y-60433285D02*
X119370819Y-61004713D01*
X119370819Y-60718999D02*
X118370819Y-60718999D01*
X118370819Y-60718999D02*
X118513676Y-60814237D01*
X118513676Y-60814237D02*
X118608914Y-60909475D01*
X118608914Y-60909475D02*
X118656533Y-61004713D01*
X127394819Y-61099857D02*
X127394819Y-61576047D01*
X127394819Y-61576047D02*
X126394819Y-61576047D01*
X126871009Y-60766523D02*
X126871009Y-60433190D01*
X127394819Y-60290333D02*
X127394819Y-60766523D01*
X127394819Y-60766523D02*
X126394819Y-60766523D01*
X126394819Y-60766523D02*
X126394819Y-60290333D01*
X127394819Y-59861761D02*
X126394819Y-59861761D01*
X126394819Y-59861761D02*
X126394819Y-59623666D01*
X126394819Y-59623666D02*
X126442438Y-59480809D01*
X126442438Y-59480809D02*
X126537676Y-59385571D01*
X126537676Y-59385571D02*
X126632914Y-59337952D01*
X126632914Y-59337952D02*
X126823390Y-59290333D01*
X126823390Y-59290333D02*
X126966247Y-59290333D01*
X126966247Y-59290333D02*
X127156723Y-59337952D01*
X127156723Y-59337952D02*
X127251961Y-59385571D01*
X127251961Y-59385571D02*
X127347200Y-59480809D01*
X127347200Y-59480809D02*
X127394819Y-59623666D01*
X127394819Y-59623666D02*
X127394819Y-59861761D01*
X103246819Y-32591333D02*
X103961104Y-32591333D01*
X103961104Y-32591333D02*
X104103961Y-32638952D01*
X104103961Y-32638952D02*
X104199200Y-32734190D01*
X104199200Y-32734190D02*
X104246819Y-32877047D01*
X104246819Y-32877047D02*
X104246819Y-32972285D01*
X103246819Y-32210380D02*
X103246819Y-31591333D01*
X103246819Y-31591333D02*
X103627771Y-31924666D01*
X103627771Y-31924666D02*
X103627771Y-31781809D01*
X103627771Y-31781809D02*
X103675390Y-31686571D01*
X103675390Y-31686571D02*
X103723009Y-31638952D01*
X103723009Y-31638952D02*
X103818247Y-31591333D01*
X103818247Y-31591333D02*
X104056342Y-31591333D01*
X104056342Y-31591333D02*
X104151580Y-31638952D01*
X104151580Y-31638952D02*
X104199200Y-31686571D01*
X104199200Y-31686571D02*
X104246819Y-31781809D01*
X104246819Y-31781809D02*
X104246819Y-32067523D01*
X104246819Y-32067523D02*
X104199200Y-32162761D01*
X104199200Y-32162761D02*
X104151580Y-32210380D01*
X124947142Y-75242819D02*
X124613809Y-74766628D01*
X124375714Y-75242819D02*
X124375714Y-74242819D01*
X124375714Y-74242819D02*
X124756666Y-74242819D01*
X124756666Y-74242819D02*
X124851904Y-74290438D01*
X124851904Y-74290438D02*
X124899523Y-74338057D01*
X124899523Y-74338057D02*
X124947142Y-74433295D01*
X124947142Y-74433295D02*
X124947142Y-74576152D01*
X124947142Y-74576152D02*
X124899523Y-74671390D01*
X124899523Y-74671390D02*
X124851904Y-74719009D01*
X124851904Y-74719009D02*
X124756666Y-74766628D01*
X124756666Y-74766628D02*
X124375714Y-74766628D01*
X125899523Y-75242819D02*
X125328095Y-75242819D01*
X125613809Y-75242819D02*
X125613809Y-74242819D01*
X125613809Y-74242819D02*
X125518571Y-74385676D01*
X125518571Y-74385676D02*
X125423333Y-74480914D01*
X125423333Y-74480914D02*
X125328095Y-74528533D01*
X123375714Y-78082819D02*
X123994761Y-78082819D01*
X123994761Y-78082819D02*
X123661428Y-78463771D01*
X123661428Y-78463771D02*
X123804285Y-78463771D01*
X123804285Y-78463771D02*
X123899523Y-78511390D01*
X123899523Y-78511390D02*
X123947142Y-78559009D01*
X123947142Y-78559009D02*
X123994761Y-78654247D01*
X123994761Y-78654247D02*
X123994761Y-78892342D01*
X123994761Y-78892342D02*
X123947142Y-78987580D01*
X123947142Y-78987580D02*
X123899523Y-79035200D01*
X123899523Y-79035200D02*
X123804285Y-79082819D01*
X123804285Y-79082819D02*
X123518571Y-79082819D01*
X123518571Y-79082819D02*
X123423333Y-79035200D01*
X123423333Y-79035200D02*
X123375714Y-78987580D01*
X124328095Y-78082819D02*
X124947142Y-78082819D01*
X124947142Y-78082819D02*
X124613809Y-78463771D01*
X124613809Y-78463771D02*
X124756666Y-78463771D01*
X124756666Y-78463771D02*
X124851904Y-78511390D01*
X124851904Y-78511390D02*
X124899523Y-78559009D01*
X124899523Y-78559009D02*
X124947142Y-78654247D01*
X124947142Y-78654247D02*
X124947142Y-78892342D01*
X124947142Y-78892342D02*
X124899523Y-78987580D01*
X124899523Y-78987580D02*
X124851904Y-79035200D01*
X124851904Y-79035200D02*
X124756666Y-79082819D01*
X124756666Y-79082819D02*
X124470952Y-79082819D01*
X124470952Y-79082819D02*
X124375714Y-79035200D01*
X124375714Y-79035200D02*
X124328095Y-78987580D01*
X125566190Y-78082819D02*
X125661428Y-78082819D01*
X125661428Y-78082819D02*
X125756666Y-78130438D01*
X125756666Y-78130438D02*
X125804285Y-78178057D01*
X125804285Y-78178057D02*
X125851904Y-78273295D01*
X125851904Y-78273295D02*
X125899523Y-78463771D01*
X125899523Y-78463771D02*
X125899523Y-78701866D01*
X125899523Y-78701866D02*
X125851904Y-78892342D01*
X125851904Y-78892342D02*
X125804285Y-78987580D01*
X125804285Y-78987580D02*
X125756666Y-79035200D01*
X125756666Y-79035200D02*
X125661428Y-79082819D01*
X125661428Y-79082819D02*
X125566190Y-79082819D01*
X125566190Y-79082819D02*
X125470952Y-79035200D01*
X125470952Y-79035200D02*
X125423333Y-78987580D01*
X125423333Y-78987580D02*
X125375714Y-78892342D01*
X125375714Y-78892342D02*
X125328095Y-78701866D01*
X125328095Y-78701866D02*
X125328095Y-78463771D01*
X125328095Y-78463771D02*
X125375714Y-78273295D01*
X125375714Y-78273295D02*
X125423333Y-78178057D01*
X125423333Y-78178057D02*
X125470952Y-78130438D01*
X125470952Y-78130438D02*
X125566190Y-78082819D01*
X121263333Y-55968819D02*
X120930000Y-55492628D01*
X120691905Y-55968819D02*
X120691905Y-54968819D01*
X120691905Y-54968819D02*
X121072857Y-54968819D01*
X121072857Y-54968819D02*
X121168095Y-55016438D01*
X121168095Y-55016438D02*
X121215714Y-55064057D01*
X121215714Y-55064057D02*
X121263333Y-55159295D01*
X121263333Y-55159295D02*
X121263333Y-55302152D01*
X121263333Y-55302152D02*
X121215714Y-55397390D01*
X121215714Y-55397390D02*
X121168095Y-55445009D01*
X121168095Y-55445009D02*
X121072857Y-55492628D01*
X121072857Y-55492628D02*
X120691905Y-55492628D01*
X121644286Y-55064057D02*
X121691905Y-55016438D01*
X121691905Y-55016438D02*
X121787143Y-54968819D01*
X121787143Y-54968819D02*
X122025238Y-54968819D01*
X122025238Y-54968819D02*
X122120476Y-55016438D01*
X122120476Y-55016438D02*
X122168095Y-55064057D01*
X122168095Y-55064057D02*
X122215714Y-55159295D01*
X122215714Y-55159295D02*
X122215714Y-55254533D01*
X122215714Y-55254533D02*
X122168095Y-55397390D01*
X122168095Y-55397390D02*
X121596667Y-55968819D01*
X121596667Y-55968819D02*
X122215714Y-55968819D01*
X120144286Y-51128819D02*
X120763333Y-51128819D01*
X120763333Y-51128819D02*
X120430000Y-51509771D01*
X120430000Y-51509771D02*
X120572857Y-51509771D01*
X120572857Y-51509771D02*
X120668095Y-51557390D01*
X120668095Y-51557390D02*
X120715714Y-51605009D01*
X120715714Y-51605009D02*
X120763333Y-51700247D01*
X120763333Y-51700247D02*
X120763333Y-51938342D01*
X120763333Y-51938342D02*
X120715714Y-52033580D01*
X120715714Y-52033580D02*
X120668095Y-52081200D01*
X120668095Y-52081200D02*
X120572857Y-52128819D01*
X120572857Y-52128819D02*
X120287143Y-52128819D01*
X120287143Y-52128819D02*
X120191905Y-52081200D01*
X120191905Y-52081200D02*
X120144286Y-52033580D01*
X121096667Y-51128819D02*
X121715714Y-51128819D01*
X121715714Y-51128819D02*
X121382381Y-51509771D01*
X121382381Y-51509771D02*
X121525238Y-51509771D01*
X121525238Y-51509771D02*
X121620476Y-51557390D01*
X121620476Y-51557390D02*
X121668095Y-51605009D01*
X121668095Y-51605009D02*
X121715714Y-51700247D01*
X121715714Y-51700247D02*
X121715714Y-51938342D01*
X121715714Y-51938342D02*
X121668095Y-52033580D01*
X121668095Y-52033580D02*
X121620476Y-52081200D01*
X121620476Y-52081200D02*
X121525238Y-52128819D01*
X121525238Y-52128819D02*
X121239524Y-52128819D01*
X121239524Y-52128819D02*
X121144286Y-52081200D01*
X121144286Y-52081200D02*
X121096667Y-52033580D01*
X122334762Y-51128819D02*
X122430000Y-51128819D01*
X122430000Y-51128819D02*
X122525238Y-51176438D01*
X122525238Y-51176438D02*
X122572857Y-51224057D01*
X122572857Y-51224057D02*
X122620476Y-51319295D01*
X122620476Y-51319295D02*
X122668095Y-51509771D01*
X122668095Y-51509771D02*
X122668095Y-51747866D01*
X122668095Y-51747866D02*
X122620476Y-51938342D01*
X122620476Y-51938342D02*
X122572857Y-52033580D01*
X122572857Y-52033580D02*
X122525238Y-52081200D01*
X122525238Y-52081200D02*
X122430000Y-52128819D01*
X122430000Y-52128819D02*
X122334762Y-52128819D01*
X122334762Y-52128819D02*
X122239524Y-52081200D01*
X122239524Y-52081200D02*
X122191905Y-52033580D01*
X122191905Y-52033580D02*
X122144286Y-51938342D01*
X122144286Y-51938342D02*
X122096667Y-51747866D01*
X122096667Y-51747866D02*
X122096667Y-51509771D01*
X122096667Y-51509771D02*
X122144286Y-51319295D01*
X122144286Y-51319295D02*
X122191905Y-51224057D01*
X122191905Y-51224057D02*
X122239524Y-51176438D01*
X122239524Y-51176438D02*
X122334762Y-51128819D01*
X120106666Y-29322819D02*
X120106666Y-30037104D01*
X120106666Y-30037104D02*
X120059047Y-30179961D01*
X120059047Y-30179961D02*
X119963809Y-30275200D01*
X119963809Y-30275200D02*
X119820952Y-30322819D01*
X119820952Y-30322819D02*
X119725714Y-30322819D01*
X121059047Y-29322819D02*
X120582857Y-29322819D01*
X120582857Y-29322819D02*
X120535238Y-29799009D01*
X120535238Y-29799009D02*
X120582857Y-29751390D01*
X120582857Y-29751390D02*
X120678095Y-29703771D01*
X120678095Y-29703771D02*
X120916190Y-29703771D01*
X120916190Y-29703771D02*
X121011428Y-29751390D01*
X121011428Y-29751390D02*
X121059047Y-29799009D01*
X121059047Y-29799009D02*
X121106666Y-29894247D01*
X121106666Y-29894247D02*
X121106666Y-30132342D01*
X121106666Y-30132342D02*
X121059047Y-30227580D01*
X121059047Y-30227580D02*
X121011428Y-30275200D01*
X121011428Y-30275200D02*
X120916190Y-30322819D01*
X120916190Y-30322819D02*
X120678095Y-30322819D01*
X120678095Y-30322819D02*
X120582857Y-30275200D01*
X120582857Y-30275200D02*
X120535238Y-30227580D01*
X124947142Y-69908819D02*
X124613809Y-69432628D01*
X124375714Y-69908819D02*
X124375714Y-68908819D01*
X124375714Y-68908819D02*
X124756666Y-68908819D01*
X124756666Y-68908819D02*
X124851904Y-68956438D01*
X124851904Y-68956438D02*
X124899523Y-69004057D01*
X124899523Y-69004057D02*
X124947142Y-69099295D01*
X124947142Y-69099295D02*
X124947142Y-69242152D01*
X124947142Y-69242152D02*
X124899523Y-69337390D01*
X124899523Y-69337390D02*
X124851904Y-69385009D01*
X124851904Y-69385009D02*
X124756666Y-69432628D01*
X124756666Y-69432628D02*
X124375714Y-69432628D01*
X125280476Y-68908819D02*
X125899523Y-68908819D01*
X125899523Y-68908819D02*
X125566190Y-69289771D01*
X125566190Y-69289771D02*
X125709047Y-69289771D01*
X125709047Y-69289771D02*
X125804285Y-69337390D01*
X125804285Y-69337390D02*
X125851904Y-69385009D01*
X125851904Y-69385009D02*
X125899523Y-69480247D01*
X125899523Y-69480247D02*
X125899523Y-69718342D01*
X125899523Y-69718342D02*
X125851904Y-69813580D01*
X125851904Y-69813580D02*
X125804285Y-69861200D01*
X125804285Y-69861200D02*
X125709047Y-69908819D01*
X125709047Y-69908819D02*
X125423333Y-69908819D01*
X125423333Y-69908819D02*
X125328095Y-69861200D01*
X125328095Y-69861200D02*
X125280476Y-69813580D01*
X123947142Y-72748819D02*
X123470952Y-72748819D01*
X123470952Y-72748819D02*
X123423333Y-73225009D01*
X123423333Y-73225009D02*
X123470952Y-73177390D01*
X123470952Y-73177390D02*
X123566190Y-73129771D01*
X123566190Y-73129771D02*
X123804285Y-73129771D01*
X123804285Y-73129771D02*
X123899523Y-73177390D01*
X123899523Y-73177390D02*
X123947142Y-73225009D01*
X123947142Y-73225009D02*
X123994761Y-73320247D01*
X123994761Y-73320247D02*
X123994761Y-73558342D01*
X123994761Y-73558342D02*
X123947142Y-73653580D01*
X123947142Y-73653580D02*
X123899523Y-73701200D01*
X123899523Y-73701200D02*
X123804285Y-73748819D01*
X123804285Y-73748819D02*
X123566190Y-73748819D01*
X123566190Y-73748819D02*
X123470952Y-73701200D01*
X123470952Y-73701200D02*
X123423333Y-73653580D01*
X124851904Y-72748819D02*
X124661428Y-72748819D01*
X124661428Y-72748819D02*
X124566190Y-72796438D01*
X124566190Y-72796438D02*
X124518571Y-72844057D01*
X124518571Y-72844057D02*
X124423333Y-72986914D01*
X124423333Y-72986914D02*
X124375714Y-73177390D01*
X124375714Y-73177390D02*
X124375714Y-73558342D01*
X124375714Y-73558342D02*
X124423333Y-73653580D01*
X124423333Y-73653580D02*
X124470952Y-73701200D01*
X124470952Y-73701200D02*
X124566190Y-73748819D01*
X124566190Y-73748819D02*
X124756666Y-73748819D01*
X124756666Y-73748819D02*
X124851904Y-73701200D01*
X124851904Y-73701200D02*
X124899523Y-73653580D01*
X124899523Y-73653580D02*
X124947142Y-73558342D01*
X124947142Y-73558342D02*
X124947142Y-73320247D01*
X124947142Y-73320247D02*
X124899523Y-73225009D01*
X124899523Y-73225009D02*
X124851904Y-73177390D01*
X124851904Y-73177390D02*
X124756666Y-73129771D01*
X124756666Y-73129771D02*
X124566190Y-73129771D01*
X124566190Y-73129771D02*
X124470952Y-73177390D01*
X124470952Y-73177390D02*
X124423333Y-73225009D01*
X124423333Y-73225009D02*
X124375714Y-73320247D01*
X125566190Y-72748819D02*
X125661428Y-72748819D01*
X125661428Y-72748819D02*
X125756666Y-72796438D01*
X125756666Y-72796438D02*
X125804285Y-72844057D01*
X125804285Y-72844057D02*
X125851904Y-72939295D01*
X125851904Y-72939295D02*
X125899523Y-73129771D01*
X125899523Y-73129771D02*
X125899523Y-73367866D01*
X125899523Y-73367866D02*
X125851904Y-73558342D01*
X125851904Y-73558342D02*
X125804285Y-73653580D01*
X125804285Y-73653580D02*
X125756666Y-73701200D01*
X125756666Y-73701200D02*
X125661428Y-73748819D01*
X125661428Y-73748819D02*
X125566190Y-73748819D01*
X125566190Y-73748819D02*
X125470952Y-73701200D01*
X125470952Y-73701200D02*
X125423333Y-73653580D01*
X125423333Y-73653580D02*
X125375714Y-73558342D01*
X125375714Y-73558342D02*
X125328095Y-73367866D01*
X125328095Y-73367866D02*
X125328095Y-73129771D01*
X125328095Y-73129771D02*
X125375714Y-72939295D01*
X125375714Y-72939295D02*
X125423333Y-72844057D01*
X125423333Y-72844057D02*
X125470952Y-72796438D01*
X125470952Y-72796438D02*
X125566190Y-72748819D01*
X120106666Y-79678819D02*
X120106666Y-80393104D01*
X120106666Y-80393104D02*
X120059047Y-80535961D01*
X120059047Y-80535961D02*
X119963809Y-80631200D01*
X119963809Y-80631200D02*
X119820952Y-80678819D01*
X119820952Y-80678819D02*
X119725714Y-80678819D01*
X120487619Y-79678819D02*
X121154285Y-79678819D01*
X121154285Y-79678819D02*
X120725714Y-80678819D01*
D11*
%TO.C,C1*%
X107947000Y-40482000D02*
X109477000Y-40482000D01*
X109477000Y-42322000D02*
X107947000Y-42322000D01*
%TO.C,U2*%
X102606000Y-70080000D02*
X112826000Y-70080000D01*
X102606000Y-71460000D02*
X112826000Y-71460000D01*
X102606000Y-74700000D02*
X102606000Y-70080000D01*
X105866000Y-70080000D02*
X105866000Y-71460000D01*
X109566000Y-70080000D02*
X109566000Y-71460000D01*
X112826000Y-70080000D02*
X112826000Y-74700000D01*
X112826000Y-74700000D02*
X102606000Y-74700000D01*
D12*
%TO.C,S1*%
X114128000Y-44382000D02*
X114128000Y-44882000D01*
X114128000Y-44382000D02*
X114628000Y-44382000D01*
X114128000Y-48582000D02*
X114128000Y-48082000D01*
X114128000Y-48582000D02*
X114628000Y-48582000D01*
X126028000Y-44382000D02*
X125528000Y-44382000D01*
X126028000Y-44382000D02*
X126028000Y-44882000D01*
X126028000Y-48582000D02*
X125528000Y-48582000D01*
X126028000Y-48582000D02*
X126028000Y-48082000D01*
D11*
%TO.C,J1*%
X129684000Y-31386000D02*
X131064000Y-31386000D01*
X129684000Y-32766000D02*
X129684000Y-31386000D01*
X129684000Y-34036000D02*
X129684000Y-36686000D01*
X129684000Y-34036000D02*
X132444000Y-34036000D01*
X129684000Y-36686000D02*
X132444000Y-36686000D01*
X132444000Y-34036000D02*
X132444000Y-36686000D01*
%TO.C,J6*%
X98674000Y-55216000D02*
X113374000Y-55216000D01*
X98674000Y-64416000D02*
X98674000Y-55216000D01*
X107474000Y-64416000D02*
X98674000Y-64416000D01*
X112524000Y-55016000D02*
X113574000Y-55016000D01*
X113374000Y-55216000D02*
X113374000Y-57816000D01*
X113374000Y-61716000D02*
X113374000Y-64416000D01*
X113374000Y-64416000D02*
X111474000Y-64416000D01*
X113574000Y-56066000D02*
X113574000Y-55016000D01*
%TO.C,C2*%
X101109000Y-40228000D02*
X102639000Y-40228000D01*
X102639000Y-42068000D02*
X101109000Y-42068000D01*
%TO.C,J4*%
X105126000Y-89519000D02*
X105126000Y-88139000D01*
X106506000Y-89519000D02*
X105126000Y-89519000D01*
X107776000Y-86759000D02*
X112966000Y-86759000D01*
X107776000Y-89519000D02*
X107776000Y-86759000D01*
X107776000Y-89519000D02*
X112966000Y-89519000D01*
X112966000Y-89519000D02*
X112966000Y-86759000D01*
%TO.C,U1*%
X99538000Y-45442000D02*
X109758000Y-45442000D01*
X99538000Y-50062000D02*
X99538000Y-45442000D01*
X102798000Y-50062000D02*
X102798000Y-48682000D01*
X106498000Y-50062000D02*
X106498000Y-48682000D01*
X109758000Y-45442000D02*
X109758000Y-50062000D01*
X109758000Y-48682000D02*
X99538000Y-48682000D01*
X109758000Y-50062000D02*
X99538000Y-50062000D01*
%TO.C,C3*%
X105407000Y-78328000D02*
X106937000Y-78328000D01*
X106937000Y-80168000D02*
X105407000Y-80168000D01*
%TO.C,J2*%
X129383000Y-84209000D02*
X130763000Y-84209000D01*
X129383000Y-85589000D02*
X129383000Y-84209000D01*
X129383000Y-86859000D02*
X129383000Y-89509000D01*
X129383000Y-86859000D02*
X132143000Y-86859000D01*
X129383000Y-89509000D02*
X132143000Y-89509000D01*
X132143000Y-86859000D02*
X132143000Y-89509000D01*
%TO.C,D1*%
X121435000Y-63017000D02*
X124525000Y-63017000D01*
X121435170Y-63017000D02*
G75*
G02*
X122980000Y-57467000I1544830J2560000D01*
G01*
X122980000Y-57467000D02*
G75*
G02*
X124524830Y-63017000I0J-2990000D01*
G01*
X125480000Y-60457000D02*
G75*
G02*
X120480000Y-60457000I-2500000J0D01*
G01*
X120480000Y-60457000D02*
G75*
G02*
X125480000Y-60457000I2500000J0D01*
G01*
%TO.C,J3*%
X104792000Y-33638000D02*
X104792000Y-32258000D01*
X106172000Y-33638000D02*
X104792000Y-33638000D01*
X107442000Y-30878000D02*
X112632000Y-30878000D01*
X107442000Y-33638000D02*
X107442000Y-30878000D01*
X107442000Y-33638000D02*
X112632000Y-33638000D01*
X112632000Y-33638000D02*
X112632000Y-30878000D01*
%TO.C,R1*%
X119812000Y-76708000D02*
X120762000Y-76708000D01*
X125552000Y-76708000D02*
X124602000Y-76708000D01*
X120762000Y-75788000D02*
X124602000Y-75788000D01*
X124602000Y-77628000D01*
X120762000Y-77628000D01*
X120762000Y-75788000D01*
%TO.C,R2*%
X118560000Y-53594000D02*
X119510000Y-53594000D01*
X124300000Y-53594000D02*
X123350000Y-53594000D01*
X123350000Y-54514000D02*
X119510000Y-54514000D01*
X119510000Y-52674000D01*
X123350000Y-52674000D01*
X123350000Y-54514000D01*
%TO.C,J5*%
X115070000Y-30868000D02*
X125810000Y-30868000D01*
X115070000Y-34488000D02*
X116310000Y-34488000D01*
X115070000Y-35488000D02*
X116310000Y-35488000D01*
X115070000Y-36788000D02*
X116310000Y-36788000D01*
X115070000Y-38908000D02*
X115070000Y-30868000D01*
X117890000Y-38908000D02*
X115070000Y-38908000D01*
X120070000Y-34488000D02*
X121378000Y-34488000D01*
X120070000Y-35488000D02*
X121378000Y-35488000D01*
X120070000Y-36788000D02*
X122647000Y-36788000D01*
X123733000Y-36788000D02*
X125810000Y-36788000D01*
X125002000Y-34488000D02*
X125810000Y-34488000D01*
X125002000Y-35488000D02*
X125810000Y-35488000D01*
X125810000Y-30868000D02*
X125810000Y-38908000D01*
X125810000Y-38908000D02*
X118490000Y-38908000D01*
X118630000Y-39518000D02*
X117750000Y-39518000D01*
X118190000Y-38908000D01*
X118630000Y-39518000D01*
G36*
X118630000Y-39518000D02*
G01*
X117750000Y-39518000D01*
X118190000Y-38908000D01*
X118630000Y-39518000D01*
G37*
%TO.C,R3*%
X120066000Y-71374000D02*
X121016000Y-71374000D01*
X125806000Y-71374000D02*
X124856000Y-71374000D01*
X121016000Y-70454000D02*
X124856000Y-70454000D01*
X124856000Y-72294000D01*
X121016000Y-72294000D01*
X121016000Y-70454000D01*
%TO.C,J7*%
X115070000Y-81224000D02*
X125810000Y-81224000D01*
X115070000Y-84844000D02*
X116310000Y-84844000D01*
X115070000Y-85844000D02*
X116310000Y-85844000D01*
X115070000Y-87144000D02*
X116310000Y-87144000D01*
X115070000Y-89264000D02*
X115070000Y-81224000D01*
X117890000Y-89264000D02*
X115070000Y-89264000D01*
X120070000Y-84844000D02*
X121378000Y-84844000D01*
X120070000Y-85844000D02*
X121378000Y-85844000D01*
X120070000Y-87144000D02*
X122647000Y-87144000D01*
X123733000Y-87144000D02*
X125810000Y-87144000D01*
X125002000Y-84844000D02*
X125810000Y-84844000D01*
X125002000Y-85844000D02*
X125810000Y-85844000D01*
X125810000Y-81224000D02*
X125810000Y-89264000D01*
X125810000Y-89264000D02*
X118490000Y-89264000D01*
X118630000Y-89874000D02*
X117750000Y-89874000D01*
X118190000Y-89264000D01*
X118630000Y-89874000D01*
G36*
X118630000Y-89874000D02*
G01*
X117750000Y-89874000D01*
X118190000Y-89264000D01*
X118630000Y-89874000D01*
G37*
%TD*%
M02*
