%TF.GenerationSoftware,KiCad,Pcbnew,9.0.7*%
%TF.CreationDate,2026-03-12T14:24:35-06:00*%
%TF.ProjectId,Power Supply,506f7765-7220-4537-9570-706c792e6b69,rev?*%
%TF.SameCoordinates,Original*%
%TF.FileFunction,Copper,L1,Top*%
%TF.FilePolarity,Positive*%
%FSLAX46Y46*%
G04 Gerber Fmt 4.6, Leading zero omitted, Abs format (unit mm)*
G04 Created by KiCad (PCBNEW 9.0.7) date 2026-03-12 14:24:35*
%MOMM*%
%LPD*%
G01*
G04 APERTURE LIST*
G04 Aperture macros list*
%AMRoundRect*
0 Rectangle with rounded corners*
0 $1 Rounding radius*
0 $2 $3 $4 $5 $6 $7 $8 $9 X,Y pos of 4 corners*
0 Add a 4 corners polygon primitive as box body*
4,1,4,$2,$3,$4,$5,$6,$7,$8,$9,$2,$3,0*
0 Add four circle primitives for the rounded corners*
1,1,$1+$1,$2,$3*
1,1,$1+$1,$4,$5*
1,1,$1+$1,$6,$7*
1,1,$1+$1,$8,$9*
0 Add four rect primitives between the rounded corners*
20,1,$1+$1,$2,$3,$4,$5,0*
20,1,$1+$1,$4,$5,$6,$7,0*
20,1,$1+$1,$6,$7,$8,$9,0*
20,1,$1+$1,$8,$9,$2,$3,0*%
G04 Aperture macros list end*
%TA.AperFunction,ComponentPad*%
%ADD10C,1.600000*%
%TD*%
%TA.AperFunction,ComponentPad*%
%ADD11R,1.905000X2.000000*%
%TD*%
%TA.AperFunction,ComponentPad*%
%ADD12O,1.905000X2.000000*%
%TD*%
%TA.AperFunction,ComponentPad*%
%ADD13R,1.900000X1.900000*%
%TD*%
%TA.AperFunction,ComponentPad*%
%ADD14C,1.900000*%
%TD*%
%TA.AperFunction,ComponentPad*%
%ADD15R,1.700000X1.700000*%
%TD*%
%TA.AperFunction,ComponentPad*%
%ADD16C,1.700000*%
%TD*%
%TA.AperFunction,ComponentPad*%
%ADD17R,3.500000X3.500000*%
%TD*%
%TA.AperFunction,ComponentPad*%
%ADD18RoundRect,0.750000X-0.750000X-1.000000X0.750000X-1.000000X0.750000X1.000000X-0.750000X1.000000X0*%
%TD*%
%TA.AperFunction,ComponentPad*%
%ADD19RoundRect,0.875000X-0.875000X-0.875000X0.875000X-0.875000X0.875000X0.875000X-0.875000X0.875000X0*%
%TD*%
%TA.AperFunction,ComponentPad*%
%ADD20R,1.800000X1.800000*%
%TD*%
%TA.AperFunction,ComponentPad*%
%ADD21C,1.800000*%
%TD*%
%TA.AperFunction,ComponentPad*%
%ADD22C,1.400000*%
%TD*%
%TA.AperFunction,ComponentPad*%
%ADD23RoundRect,0.250001X-1.149999X-1.149999X1.149999X-1.149999X1.149999X1.149999X-1.149999X1.149999X0*%
%TD*%
%TA.AperFunction,ComponentPad*%
%ADD24C,2.800000*%
%TD*%
%TA.AperFunction,ViaPad*%
%ADD25C,0.700000*%
%TD*%
%TA.AperFunction,ViaPad*%
%ADD26C,0.600000*%
%TD*%
%TA.AperFunction,Conductor*%
%ADD27C,0.300000*%
%TD*%
%TA.AperFunction,Conductor*%
%ADD28C,0.200000*%
%TD*%
G04 APERTURE END LIST*
D10*
%TO.P,C1,1*%
%TO.N,/12V*%
X107462000Y-41402000D03*
%TO.P,C1,2*%
%TO.N,GND*%
X109962000Y-41402000D03*
%TD*%
D11*
%TO.P,U2,1,ADJ*%
%TO.N,Net-(U2-ADJ)*%
X105176000Y-73340000D03*
D12*
%TO.P,U2,2,VO*%
%TO.N,/3.3V*%
X107716000Y-73340000D03*
%TO.P,U2,3,VI*%
%TO.N,/12V*%
X110256000Y-73340000D03*
%TD*%
D13*
%TO.P,S1,1*%
%TO.N,/12V*%
X122428000Y-46482000D03*
D14*
%TO.P,S1,2*%
%TO.N,/PWR_input*%
X119928000Y-46482000D03*
%TO.P,S1,3*%
%TO.N,unconnected-(S1-Pad3)*%
X117428000Y-46482000D03*
%TD*%
D15*
%TO.P,J1,1,Pin_1*%
%TO.N,GND*%
X131064000Y-32766000D03*
D16*
%TO.P,J1,2,Pin_2*%
%TO.N,/PWR_output*%
X131064000Y-35306000D03*
%TD*%
D17*
%TO.P,J6,1*%
%TO.N,/PWR_input*%
X112474000Y-59816000D03*
D18*
%TO.P,J6,2*%
%TO.N,GND*%
X106474000Y-59816000D03*
D19*
%TO.P,J6,3*%
X109474000Y-64516000D03*
%TD*%
D10*
%TO.P,C2,1*%
%TO.N,/5V*%
X100624000Y-41148000D03*
%TO.P,C2,2*%
%TO.N,GND*%
X103124000Y-41148000D03*
%TD*%
D15*
%TO.P,J4,1,Pin_1*%
%TO.N,/3.3V*%
X106506000Y-88139000D03*
D16*
%TO.P,J4,2,Pin_2*%
%TO.N,/PWR_output*%
X109046000Y-88139000D03*
%TO.P,J4,3,Pin_3*%
%TO.N,/5V*%
X111586000Y-88139000D03*
%TD*%
D11*
%TO.P,U1,1,VI*%
%TO.N,/12V*%
X107188000Y-46802000D03*
D12*
%TO.P,U1,2,GND*%
%TO.N,GND*%
X104648000Y-46802000D03*
%TO.P,U1,3,VO*%
%TO.N,/5V*%
X102108000Y-46802000D03*
%TD*%
D10*
%TO.P,C3,1*%
%TO.N,/3.3V*%
X104922000Y-79248000D03*
%TO.P,C3,2*%
%TO.N,GND*%
X107422000Y-79248000D03*
%TD*%
D15*
%TO.P,J2,1,Pin_1*%
%TO.N,GND*%
X130763000Y-85589000D03*
D16*
%TO.P,J2,2,Pin_2*%
%TO.N,/PWR_output*%
X130763000Y-88129000D03*
%TD*%
D20*
%TO.P,D1,1,K*%
%TO.N,GND*%
X122980000Y-61727000D03*
D21*
%TO.P,D1,2,A*%
%TO.N,Net-(D1-A)*%
X122980000Y-59187000D03*
%TD*%
D15*
%TO.P,J3,1,Pin_1*%
%TO.N,/3.3V*%
X106172000Y-32258000D03*
D16*
%TO.P,J3,2,Pin_2*%
%TO.N,/PWR_output*%
X108712000Y-32258000D03*
%TO.P,J3,3,Pin_3*%
%TO.N,/5V*%
X111252000Y-32258000D03*
%TD*%
D22*
%TO.P,R1,1*%
%TO.N,Net-(D1-A)*%
X118872000Y-76708000D03*
%TO.P,R1,2*%
%TO.N,/12V*%
X126492000Y-76708000D03*
%TD*%
%TO.P,R2,1*%
%TO.N,Net-(U2-ADJ)*%
X125240000Y-53594000D03*
%TO.P,R2,2*%
%TO.N,/3.3V*%
X117620000Y-53594000D03*
%TD*%
D23*
%TO.P,J5,1,Pin_1*%
%TO.N,GND*%
X118190000Y-34988000D03*
D24*
%TO.P,J5,2,Pin_2*%
%TO.N,/PWR_output*%
X123190000Y-34988000D03*
%TD*%
D22*
%TO.P,R3,1*%
%TO.N,GND*%
X119126000Y-71374000D03*
%TO.P,R3,2*%
%TO.N,Net-(U2-ADJ)*%
X126746000Y-71374000D03*
%TD*%
D23*
%TO.P,J7,1,Pin_1*%
%TO.N,GND*%
X118190000Y-85344000D03*
D24*
%TO.P,J7,2,Pin_2*%
%TO.N,/PWR_output*%
X123190000Y-85344000D03*
%TD*%
D25*
%TO.N,GND*%
X120995975Y-31804025D03*
D26*
%TO.N,/3.3V*%
X101508000Y-53700000D03*
D25*
%TO.N,/PWR_input*%
X112500000Y-47083000D03*
%TD*%
D27*
%TO.N,/12V*%
X121679000Y-68041768D02*
X119677000Y-70043768D01*
X119677000Y-70043768D02*
X119677000Y-53314718D01*
X116299282Y-49937000D02*
X110323000Y-49937000D01*
X107462000Y-41402000D02*
X107462000Y-46528000D01*
X121077000Y-47833000D02*
X108219000Y-47833000D01*
X110323000Y-49937000D02*
X107188000Y-46802000D01*
X107462000Y-46528000D02*
X107188000Y-46802000D01*
X108219000Y-47833000D02*
X107188000Y-46802000D01*
X122428000Y-46482000D02*
X121679000Y-47231000D01*
X122428000Y-46482000D02*
X121077000Y-47833000D01*
X121679000Y-47231000D02*
X121679000Y-68041768D01*
X119677000Y-53314718D02*
X116299282Y-49937000D01*
%TO.N,GND*%
X119126000Y-71374000D02*
X117100000Y-73400000D01*
X121676520Y-32766000D02*
X121044260Y-32133740D01*
X107422000Y-79248000D02*
X107600000Y-79248000D01*
X104648000Y-42748000D02*
X104648000Y-46802000D01*
X117100000Y-84254000D02*
X118190000Y-85344000D01*
X108761000Y-40201000D02*
X104071000Y-40201000D01*
X116519000Y-53137950D02*
X117163950Y-52493000D01*
X119126000Y-53542950D02*
X119126000Y-71374000D01*
X116376000Y-34988000D02*
X109962000Y-41402000D01*
X117100000Y-73400000D02*
X117100000Y-84254000D01*
X112094000Y-79248000D02*
X118190000Y-85344000D01*
X122980000Y-82793000D02*
X123730000Y-83543000D01*
X104648000Y-57990000D02*
X106474000Y-59816000D01*
X122980000Y-61727000D02*
X122980000Y-82793000D01*
X122980000Y-67520000D02*
X119126000Y-71374000D01*
X104071000Y-40201000D02*
X103124000Y-41148000D01*
X131064000Y-32766000D02*
X121676520Y-32766000D01*
X120995975Y-32085455D02*
X120995975Y-31804025D01*
X106474000Y-61516000D02*
X109474000Y-64516000D01*
X121044260Y-32133740D02*
X120995975Y-32085455D01*
X116519000Y-60265000D02*
X116519000Y-53137950D01*
X103124000Y-41224000D02*
X104648000Y-42748000D01*
X103124000Y-41148000D02*
X103124000Y-41224000D01*
X118076050Y-52493000D02*
X119126000Y-53542950D01*
X117163950Y-52493000D02*
X118076050Y-52493000D01*
X107422000Y-79248000D02*
X112094000Y-79248000D01*
X109962000Y-41402000D02*
X108761000Y-40201000D01*
X109474000Y-64516000D02*
X112268000Y-64516000D01*
X118190000Y-34988000D02*
X116376000Y-34988000D01*
X122980000Y-61727000D02*
X122980000Y-67520000D01*
X112268000Y-64516000D02*
X116519000Y-60265000D01*
X106474000Y-59816000D02*
X106474000Y-61516000D01*
X104648000Y-46802000D02*
X104648000Y-57990000D01*
D28*
%TO.N,/5V*%
X110386240Y-32258000D02*
X101496240Y-41148000D01*
X100624000Y-41148000D02*
X100624000Y-45318000D01*
X101496240Y-41148000D02*
X100624000Y-41148000D01*
X111252000Y-32258000D02*
X110386240Y-32258000D01*
X100624000Y-45318000D02*
X102108000Y-46802000D01*
X102108000Y-78661000D02*
X111586000Y-88139000D01*
X102108000Y-46802000D02*
X102108000Y-78661000D01*
%TO.N,/3.3V*%
X117620000Y-53594000D02*
X117620000Y-63436000D01*
X104922000Y-80907900D02*
X109329550Y-85315450D01*
X107716000Y-76454000D02*
X104922000Y-79248000D01*
X106172000Y-32258000D02*
X99523000Y-38907000D01*
X99523000Y-38907000D02*
X99523000Y-51410000D01*
X104922000Y-79248000D02*
X104922000Y-80907900D01*
X101707000Y-53594000D02*
X101614000Y-53594000D01*
X107716000Y-73340000D02*
X107716000Y-76454000D01*
X101614000Y-53594000D02*
X101508000Y-53700000D01*
X117620000Y-63436000D02*
X107716000Y-73340000D01*
X99523000Y-51410000D02*
X101707000Y-53594000D01*
D27*
%TO.N,Net-(D1-A)*%
X122474000Y-60426000D02*
X122230000Y-60426000D01*
X122980000Y-59187000D02*
X122980000Y-59920000D01*
X122980000Y-59920000D02*
X122474000Y-60426000D01*
D28*
%TO.N,/PWR_output*%
X108712000Y-32258000D02*
X109863000Y-31107000D01*
X109863000Y-31107000D02*
X119309000Y-31107000D01*
X110197000Y-89290000D02*
X119244000Y-89290000D01*
X127978000Y-85344000D02*
X123190000Y-85344000D01*
X124189000Y-54029339D02*
X124231000Y-54071339D01*
X123508000Y-35306000D02*
X123190000Y-34988000D01*
X130763000Y-88129000D02*
X127978000Y-85344000D01*
X131064000Y-35306000D02*
X123508000Y-35306000D01*
X124231000Y-54071339D02*
X124231000Y-84303000D01*
X123190000Y-34988000D02*
X124189000Y-35987000D01*
X109046000Y-88139000D02*
X110197000Y-89290000D01*
X119309000Y-31107000D02*
X123190000Y-34988000D01*
X119244000Y-89290000D02*
X123190000Y-85344000D01*
X124189000Y-35987000D02*
X124189000Y-54029339D01*
X124231000Y-84303000D02*
X123190000Y-85344000D01*
D27*
%TO.N,/PWR_input*%
X119928000Y-47071397D02*
X117987603Y-45131000D01*
X119928000Y-46482000D02*
X119928000Y-47071397D01*
X114625000Y-45131000D02*
X112474000Y-47282000D01*
X112474000Y-47282000D02*
X112474000Y-47109000D01*
X117987603Y-45131000D02*
X114625000Y-45131000D01*
X112474000Y-47109000D02*
X112500000Y-47083000D01*
%TO.N,Net-(U2-ADJ)*%
X126746000Y-71374000D02*
X124780000Y-73340000D01*
X125240000Y-69868000D02*
X126746000Y-71374000D01*
X125240000Y-53594000D02*
X125240000Y-69868000D01*
X124780000Y-73340000D02*
X124732000Y-73340000D01*
%TD*%
M02*
