%TF.GenerationSoftware,KiCad,Pcbnew,9.0.7*%
%TF.CreationDate,2026-03-12T14:24:35-06:00*%
%TF.ProjectId,Power Supply,506f7765-7220-4537-9570-706c792e6b69,rev?*%
%TF.SameCoordinates,Original*%
%TF.FileFunction,Copper,L2,Bot*%
%TF.FilePolarity,Positive*%
%FSLAX46Y46*%
G04 Gerber Fmt 4.6, Leading zero omitted, Abs format (unit mm)*
G04 Created by KiCad (PCBNEW 9.0.7) date 2026-03-12 14:24:35*
%MOMM*%
%LPD*%
G01*
G04 APERTURE LIST*
G04 Aperture macros list*
%AMRoundRect*
0 Rectangle with rounded corners*
0 $1 Rounding radius*
0 $2 $3 $4 $5 $6 $7 $8 $9 X,Y pos of 4 corners*
0 Add a 4 corners polygon primitive as box body*
4,1,4,$2,$3,$4,$5,$6,$7,$8,$9,$2,$3,0*
0 Add four circle primitives for the rounded corners*
1,1,$1+$1,$2,$3*
1,1,$1+$1,$4,$5*
1,1,$1+$1,$6,$7*
1,1,$1+$1,$8,$9*
0 Add four rect primitives between the rounded corners*
20,1,$1+$1,$2,$3,$4,$5,0*
20,1,$1+$1,$4,$5,$6,$7,0*
20,1,$1+$1,$6,$7,$8,$9,0*
20,1,$1+$1,$8,$9,$2,$3,0*%
G04 Aperture macros list end*
%TA.AperFunction,ComponentPad*%
%ADD10C,1.600000*%
%TD*%
%TA.AperFunction,ComponentPad*%
%ADD11R,1.905000X2.000000*%
%TD*%
%TA.AperFunction,ComponentPad*%
%ADD12O,1.905000X2.000000*%
%TD*%
%TA.AperFunction,ComponentPad*%
%ADD13R,1.900000X1.900000*%
%TD*%
%TA.AperFunction,ComponentPad*%
%ADD14C,1.900000*%
%TD*%
%TA.AperFunction,ComponentPad*%
%ADD15R,1.700000X1.700000*%
%TD*%
%TA.AperFunction,ComponentPad*%
%ADD16C,1.700000*%
%TD*%
%TA.AperFunction,ComponentPad*%
%ADD17R,3.500000X3.500000*%
%TD*%
%TA.AperFunction,ComponentPad*%
%ADD18RoundRect,0.750000X-0.750000X-1.000000X0.750000X-1.000000X0.750000X1.000000X-0.750000X1.000000X0*%
%TD*%
%TA.AperFunction,ComponentPad*%
%ADD19RoundRect,0.875000X-0.875000X-0.875000X0.875000X-0.875000X0.875000X0.875000X-0.875000X0.875000X0*%
%TD*%
%TA.AperFunction,ComponentPad*%
%ADD20R,1.800000X1.800000*%
%TD*%
%TA.AperFunction,ComponentPad*%
%ADD21C,1.800000*%
%TD*%
%TA.AperFunction,ComponentPad*%
%ADD22C,1.400000*%
%TD*%
%TA.AperFunction,ComponentPad*%
%ADD23RoundRect,0.250001X-1.149999X-1.149999X1.149999X-1.149999X1.149999X1.149999X-1.149999X1.149999X0*%
%TD*%
%TA.AperFunction,ComponentPad*%
%ADD24C,2.800000*%
%TD*%
%TA.AperFunction,ViaPad*%
%ADD25C,0.700000*%
%TD*%
%TA.AperFunction,ViaPad*%
%ADD26C,0.600000*%
%TD*%
%TA.AperFunction,Conductor*%
%ADD27C,0.300000*%
%TD*%
%TA.AperFunction,Conductor*%
%ADD28C,0.200000*%
%TD*%
G04 APERTURE END LIST*
D10*
%TO.P,C1,1*%
%TO.N,/12V*%
X107462000Y-41402000D03*
%TO.P,C1,2*%
%TO.N,GND*%
X109962000Y-41402000D03*
%TD*%
D11*
%TO.P,U2,1,ADJ*%
%TO.N,Net-(U2-ADJ)*%
X105176000Y-73340000D03*
D12*
%TO.P,U2,2,VO*%
%TO.N,/3.3V*%
X107716000Y-73340000D03*
%TO.P,U2,3,VI*%
%TO.N,/12V*%
X110256000Y-73340000D03*
%TD*%
D13*
%TO.P,S1,1*%
%TO.N,/12V*%
X122428000Y-46482000D03*
D14*
%TO.P,S1,2*%
%TO.N,/PWR_input*%
X119928000Y-46482000D03*
%TO.P,S1,3*%
%TO.N,unconnected-(S1-Pad3)*%
X117428000Y-46482000D03*
%TD*%
D15*
%TO.P,J1,1,Pin_1*%
%TO.N,GND*%
X131064000Y-32766000D03*
D16*
%TO.P,J1,2,Pin_2*%
%TO.N,/PWR_output*%
X131064000Y-35306000D03*
%TD*%
D17*
%TO.P,J6,1*%
%TO.N,/PWR_input*%
X112474000Y-59816000D03*
D18*
%TO.P,J6,2*%
%TO.N,GND*%
X106474000Y-59816000D03*
D19*
%TO.P,J6,3*%
X109474000Y-64516000D03*
%TD*%
D10*
%TO.P,C2,1*%
%TO.N,/5V*%
X100624000Y-41148000D03*
%TO.P,C2,2*%
%TO.N,GND*%
X103124000Y-41148000D03*
%TD*%
D15*
%TO.P,J4,1,Pin_1*%
%TO.N,/3.3V*%
X106506000Y-88139000D03*
D16*
%TO.P,J4,2,Pin_2*%
%TO.N,/PWR_output*%
X109046000Y-88139000D03*
%TO.P,J4,3,Pin_3*%
%TO.N,/5V*%
X111586000Y-88139000D03*
%TD*%
D11*
%TO.P,U1,1,VI*%
%TO.N,/12V*%
X107188000Y-46802000D03*
D12*
%TO.P,U1,2,GND*%
%TO.N,GND*%
X104648000Y-46802000D03*
%TO.P,U1,3,VO*%
%TO.N,/5V*%
X102108000Y-46802000D03*
%TD*%
D10*
%TO.P,C3,1*%
%TO.N,/3.3V*%
X104922000Y-79248000D03*
%TO.P,C3,2*%
%TO.N,GND*%
X107422000Y-79248000D03*
%TD*%
D15*
%TO.P,J2,1,Pin_1*%
%TO.N,GND*%
X130763000Y-85589000D03*
D16*
%TO.P,J2,2,Pin_2*%
%TO.N,/PWR_output*%
X130763000Y-88129000D03*
%TD*%
D20*
%TO.P,D1,1,K*%
%TO.N,GND*%
X122980000Y-61727000D03*
D21*
%TO.P,D1,2,A*%
%TO.N,Net-(D1-A)*%
X122980000Y-59187000D03*
%TD*%
D15*
%TO.P,J3,1,Pin_1*%
%TO.N,/3.3V*%
X106172000Y-32258000D03*
D16*
%TO.P,J3,2,Pin_2*%
%TO.N,/PWR_output*%
X108712000Y-32258000D03*
%TO.P,J3,3,Pin_3*%
%TO.N,/5V*%
X111252000Y-32258000D03*
%TD*%
D22*
%TO.P,R1,1*%
%TO.N,Net-(D1-A)*%
X118872000Y-76708000D03*
%TO.P,R1,2*%
%TO.N,/12V*%
X126492000Y-76708000D03*
%TD*%
%TO.P,R2,1*%
%TO.N,Net-(U2-ADJ)*%
X125240000Y-53594000D03*
%TO.P,R2,2*%
%TO.N,/3.3V*%
X117620000Y-53594000D03*
%TD*%
D23*
%TO.P,J5,1,Pin_1*%
%TO.N,GND*%
X118190000Y-34988000D03*
D24*
%TO.P,J5,2,Pin_2*%
%TO.N,/PWR_output*%
X123190000Y-34988000D03*
%TD*%
D22*
%TO.P,R3,1*%
%TO.N,GND*%
X119126000Y-71374000D03*
%TO.P,R3,2*%
%TO.N,Net-(U2-ADJ)*%
X126746000Y-71374000D03*
%TD*%
D23*
%TO.P,J7,1,Pin_1*%
%TO.N,GND*%
X118190000Y-85344000D03*
D24*
%TO.P,J7,2,Pin_2*%
%TO.N,/PWR_output*%
X123190000Y-85344000D03*
%TD*%
D25*
%TO.N,GND*%
X120995975Y-31804025D03*
D26*
%TO.N,/3.3V*%
X101508000Y-53700000D03*
D25*
%TO.N,/PWR_input*%
X112500000Y-47083000D03*
%TD*%
D27*
%TO.N,GND*%
X120500000Y-32900000D02*
X120278000Y-32900000D01*
X120995975Y-32404025D02*
X120500000Y-32900000D01*
X120995975Y-31804025D02*
X120995975Y-32404025D01*
X120278000Y-32900000D02*
X118190000Y-34988000D01*
D28*
%TO.N,/3.3V*%
X112790364Y-46382000D02*
X110262500Y-46382000D01*
X117620000Y-53594000D02*
X117620000Y-51211636D01*
X102944500Y-53700000D02*
X101508000Y-53700000D01*
X110262500Y-46382000D02*
X102944500Y-53700000D01*
X117620000Y-51211636D02*
X112790364Y-46382000D01*
D27*
%TO.N,/PWR_input*%
X112474000Y-47109000D02*
X112474000Y-59816000D01*
X112500000Y-47083000D02*
X112474000Y-47109000D01*
%TD*%
%TA.AperFunction,Conductor*%
%TO.N,GND*%
G36*
X133808539Y-29384185D02*
G01*
X133854294Y-29436989D01*
X133865500Y-29488500D01*
X133865500Y-90561500D01*
X133845815Y-90628539D01*
X133793011Y-90674294D01*
X133741500Y-90685500D01*
X108289049Y-90685500D01*
X108288019Y-90685496D01*
X98122970Y-90601021D01*
X98056096Y-90580780D01*
X98010781Y-90527597D01*
X98000000Y-90477025D01*
X98000000Y-88614500D01*
X99124000Y-88614500D01*
X99750000Y-88614500D01*
X100748000Y-88614500D01*
X102250000Y-88614500D01*
X103248000Y-88614500D01*
X104157501Y-88614500D01*
X104157500Y-87241135D01*
X105155500Y-87241135D01*
X105155500Y-89036870D01*
X105155501Y-89036876D01*
X105161908Y-89096483D01*
X105212202Y-89231328D01*
X105212206Y-89231335D01*
X105298452Y-89346544D01*
X105298455Y-89346547D01*
X105413664Y-89432793D01*
X105413671Y-89432797D01*
X105548517Y-89483091D01*
X105548516Y-89483091D01*
X105555444Y-89483835D01*
X105608127Y-89489500D01*
X107403872Y-89489499D01*
X107463483Y-89483091D01*
X107598331Y-89432796D01*
X107713546Y-89346546D01*
X107799796Y-89231331D01*
X107848810Y-89099916D01*
X107890681Y-89043984D01*
X107956145Y-89019566D01*
X108024418Y-89034417D01*
X108052673Y-89055569D01*
X108166213Y-89169109D01*
X108338179Y-89294048D01*
X108338181Y-89294049D01*
X108338184Y-89294051D01*
X108527588Y-89390557D01*
X108729757Y-89456246D01*
X108939713Y-89489500D01*
X108939714Y-89489500D01*
X109152286Y-89489500D01*
X109152287Y-89489500D01*
X109362243Y-89456246D01*
X109564412Y-89390557D01*
X109753816Y-89294051D01*
X109840138Y-89231335D01*
X109925786Y-89169109D01*
X109925788Y-89169106D01*
X109925792Y-89169104D01*
X110076104Y-89018792D01*
X110076106Y-89018788D01*
X110076109Y-89018786D01*
X110201048Y-88846820D01*
X110201047Y-88846820D01*
X110201051Y-88846816D01*
X110205514Y-88838054D01*
X110253488Y-88787259D01*
X110321308Y-88770463D01*
X110387444Y-88792999D01*
X110426486Y-88838056D01*
X110430951Y-88846820D01*
X110555890Y-89018786D01*
X110706213Y-89169109D01*
X110878179Y-89294048D01*
X110878181Y-89294049D01*
X110878184Y-89294051D01*
X111067588Y-89390557D01*
X111269757Y-89456246D01*
X111479713Y-89489500D01*
X111479714Y-89489500D01*
X111692286Y-89489500D01*
X111692287Y-89489500D01*
X111902243Y-89456246D01*
X112104412Y-89390557D01*
X112293816Y-89294051D01*
X112380138Y-89231335D01*
X112465786Y-89169109D01*
X112465788Y-89169106D01*
X112465792Y-89169104D01*
X112616104Y-89018792D01*
X112616106Y-89018788D01*
X112616109Y-89018786D01*
X112741048Y-88846820D01*
X112741047Y-88846820D01*
X112741051Y-88846816D01*
X112837557Y-88657412D01*
X112903246Y-88455243D01*
X112936500Y-88245287D01*
X112936500Y-88032713D01*
X112903246Y-87822757D01*
X112837557Y-87620588D01*
X112741051Y-87431184D01*
X112741049Y-87431181D01*
X112741048Y-87431179D01*
X112616109Y-87259213D01*
X112469396Y-87112500D01*
X113698755Y-87112500D01*
X113735686Y-87184981D01*
X113737811Y-87189364D01*
X113750154Y-87216139D01*
X113752109Y-87220608D01*
X113767107Y-87256825D01*
X113768879Y-87261353D01*
X113779064Y-87288963D01*
X113780658Y-87293560D01*
X113858455Y-87532993D01*
X113859869Y-87537653D01*
X113867862Y-87565995D01*
X113869089Y-87570700D01*
X113878242Y-87608817D01*
X113879287Y-87613577D01*
X113885036Y-87642477D01*
X113885892Y-87647272D01*
X113925277Y-87895941D01*
X113925944Y-87900764D01*
X113929404Y-87929997D01*
X113929881Y-87934835D01*
X113932959Y-87973914D01*
X113933246Y-87978779D01*
X113934404Y-88008231D01*
X113934500Y-88013103D01*
X113934500Y-88264897D01*
X113934404Y-88269769D01*
X113933246Y-88299221D01*
X113932959Y-88304086D01*
X113929881Y-88343165D01*
X113929404Y-88348003D01*
X113925944Y-88377236D01*
X113925277Y-88382059D01*
X113888462Y-88614500D01*
X114750000Y-88614500D01*
X115748000Y-88614500D01*
X117250000Y-88614500D01*
X117250000Y-88242000D01*
X118248000Y-88242000D01*
X118248000Y-88614500D01*
X119750000Y-88614500D01*
X119750000Y-88197968D01*
X119734834Y-88202092D01*
X119728266Y-88203686D01*
X119675017Y-88215088D01*
X119668366Y-88216324D01*
X119627932Y-88222699D01*
X119621223Y-88223570D01*
X119478767Y-88238124D01*
X119475621Y-88238405D01*
X119456572Y-88239862D01*
X119453421Y-88240063D01*
X119428050Y-88241355D01*
X119424896Y-88241475D01*
X119405825Y-88241960D01*
X119402673Y-88242000D01*
X118248000Y-88242000D01*
X117250000Y-88242000D01*
X116977327Y-88242000D01*
X116974175Y-88241960D01*
X116955104Y-88241475D01*
X116951950Y-88241355D01*
X116926579Y-88240063D01*
X116923428Y-88239862D01*
X116904379Y-88238405D01*
X116901233Y-88238124D01*
X116758777Y-88223570D01*
X116752068Y-88222699D01*
X116711634Y-88216324D01*
X116704983Y-88215088D01*
X116651734Y-88203686D01*
X116645166Y-88202092D01*
X116605698Y-88191362D01*
X116599225Y-88189411D01*
X116379396Y-88116567D01*
X116372619Y-88114100D01*
X116332067Y-88097990D01*
X116325446Y-88095135D01*
X116272799Y-88070587D01*
X116266352Y-88067349D01*
X116227927Y-88046631D01*
X116221679Y-88043024D01*
X116023008Y-87920483D01*
X116016980Y-87916518D01*
X115981220Y-87891478D01*
X115975434Y-87887170D01*
X115929868Y-87851140D01*
X115924342Y-87846503D01*
X115891744Y-87817492D01*
X115886500Y-87812544D01*
X115748000Y-87674044D01*
X115748000Y-88614500D01*
X114750000Y-88614500D01*
X114750000Y-87537753D01*
X120748000Y-87537753D01*
X120748000Y-88614500D01*
X122250000Y-88614500D01*
X122250000Y-88242500D01*
X123248000Y-88242500D01*
X123248000Y-88614500D01*
X124750000Y-88614500D01*
X125748000Y-88614500D01*
X127250000Y-88614500D01*
X127250000Y-88022713D01*
X129412500Y-88022713D01*
X129412500Y-88235287D01*
X129422534Y-88298644D01*
X129435746Y-88382059D01*
X129445754Y-88445243D01*
X129500749Y-88614500D01*
X129511444Y-88647414D01*
X129607951Y-88836820D01*
X129732890Y-89008786D01*
X129883213Y-89159109D01*
X130055179Y-89284048D01*
X130055181Y-89284049D01*
X130055184Y-89284051D01*
X130244588Y-89380557D01*
X130446757Y-89446246D01*
X130656713Y-89479500D01*
X130656714Y-89479500D01*
X130869286Y-89479500D01*
X130869287Y-89479500D01*
X131079243Y-89446246D01*
X131281412Y-89380557D01*
X131470816Y-89284051D01*
X131543374Y-89231335D01*
X131642786Y-89159109D01*
X131642788Y-89159106D01*
X131642792Y-89159104D01*
X131793104Y-89008792D01*
X131793106Y-89008788D01*
X131793109Y-89008786D01*
X131918048Y-88836820D01*
X131918047Y-88836820D01*
X131918051Y-88836816D01*
X132014557Y-88647412D01*
X132080246Y-88445243D01*
X132113500Y-88235287D01*
X132113500Y-88022713D01*
X132080246Y-87812757D01*
X132014557Y-87610588D01*
X131918051Y-87421184D01*
X131918049Y-87421181D01*
X131918048Y-87421179D01*
X131793109Y-87249213D01*
X131679181Y-87135285D01*
X131645696Y-87073962D01*
X131650680Y-87004270D01*
X131692552Y-86948337D01*
X131723529Y-86931422D01*
X131855086Y-86882354D01*
X131855093Y-86882350D01*
X131970187Y-86796190D01*
X131970190Y-86796187D01*
X132056350Y-86681093D01*
X132056354Y-86681086D01*
X132106596Y-86546379D01*
X132106598Y-86546372D01*
X132112999Y-86486844D01*
X132113000Y-86486827D01*
X132113000Y-85839000D01*
X131196012Y-85839000D01*
X131228925Y-85781993D01*
X131263000Y-85654826D01*
X131263000Y-85523174D01*
X131228925Y-85396007D01*
X131196012Y-85339000D01*
X132113000Y-85339000D01*
X132113000Y-84691172D01*
X132112999Y-84691155D01*
X132106598Y-84631627D01*
X132106596Y-84631620D01*
X132056354Y-84496913D01*
X132056350Y-84496906D01*
X131970190Y-84381812D01*
X131970187Y-84381809D01*
X131855093Y-84295649D01*
X131855086Y-84295645D01*
X131720379Y-84245403D01*
X131720372Y-84245401D01*
X131660844Y-84239000D01*
X131013000Y-84239000D01*
X131013000Y-85155988D01*
X130955993Y-85123075D01*
X130828826Y-85089000D01*
X130697174Y-85089000D01*
X130570007Y-85123075D01*
X130513000Y-85155988D01*
X130513000Y-84239000D01*
X129865155Y-84239000D01*
X129805627Y-84245401D01*
X129805620Y-84245403D01*
X129670913Y-84295645D01*
X129670906Y-84295649D01*
X129555812Y-84381809D01*
X129555809Y-84381812D01*
X129469649Y-84496906D01*
X129469645Y-84496913D01*
X129419403Y-84631620D01*
X129419401Y-84631627D01*
X129413000Y-84691155D01*
X129413000Y-85339000D01*
X130329988Y-85339000D01*
X130297075Y-85396007D01*
X130263000Y-85523174D01*
X130263000Y-85654826D01*
X130297075Y-85781993D01*
X130329988Y-85839000D01*
X129413000Y-85839000D01*
X129413000Y-86486844D01*
X129419401Y-86546372D01*
X129419403Y-86546379D01*
X129469645Y-86681086D01*
X129469649Y-86681093D01*
X129555809Y-86796187D01*
X129555812Y-86796190D01*
X129670906Y-86882350D01*
X129670913Y-86882354D01*
X129802470Y-86931422D01*
X129858404Y-86973293D01*
X129882821Y-87038758D01*
X129867969Y-87107031D01*
X129846819Y-87135285D01*
X129732889Y-87249215D01*
X129607951Y-87421179D01*
X129511444Y-87610585D01*
X129445753Y-87812760D01*
X129414794Y-88008231D01*
X129412500Y-88022713D01*
X127250000Y-88022713D01*
X127250000Y-87112500D01*
X125748000Y-87112500D01*
X125748000Y-88614500D01*
X124750000Y-88614500D01*
X124750000Y-87790233D01*
X124517234Y-87924620D01*
X124513691Y-87926589D01*
X124492060Y-87938152D01*
X124488451Y-87940006D01*
X124459156Y-87954454D01*
X124455484Y-87956191D01*
X124433109Y-87966329D01*
X124429386Y-87967943D01*
X124169047Y-88075779D01*
X124165276Y-88077269D01*
X124142330Y-88085906D01*
X124138512Y-88087272D01*
X124107582Y-88097773D01*
X124103718Y-88099015D01*
X124080204Y-88106149D01*
X124076298Y-88107265D01*
X123804093Y-88180203D01*
X123800156Y-88181189D01*
X123776254Y-88186762D01*
X123772290Y-88187618D01*
X123740253Y-88193991D01*
X123736255Y-88194719D01*
X123712034Y-88198717D01*
X123708025Y-88199311D01*
X123428638Y-88236094D01*
X123424606Y-88236558D01*
X123400177Y-88238964D01*
X123396131Y-88239296D01*
X123363535Y-88241432D01*
X123359484Y-88241631D01*
X123334953Y-88242434D01*
X123330896Y-88242500D01*
X123248000Y-88242500D01*
X122250000Y-88242500D01*
X122250000Y-88090161D01*
X122241488Y-88087272D01*
X122237670Y-88085906D01*
X122214724Y-88077269D01*
X122210953Y-88075779D01*
X121950614Y-87967943D01*
X121946891Y-87966329D01*
X121924516Y-87956191D01*
X121920844Y-87954454D01*
X121891549Y-87940006D01*
X121887940Y-87938152D01*
X121866309Y-87926589D01*
X121862766Y-87924620D01*
X121618729Y-87783726D01*
X121615250Y-87781641D01*
X121594400Y-87768676D01*
X121590988Y-87766476D01*
X121563828Y-87748328D01*
X121560491Y-87746019D01*
X121540544Y-87731725D01*
X121537286Y-87729308D01*
X121313725Y-87557764D01*
X121310545Y-87555241D01*
X121291572Y-87539670D01*
X121288481Y-87537046D01*
X121263922Y-87515509D01*
X121260914Y-87512783D01*
X121242997Y-87496002D01*
X121240081Y-87493180D01*
X121040820Y-87293919D01*
X121037998Y-87291003D01*
X121021217Y-87273086D01*
X121018491Y-87270078D01*
X120996954Y-87245519D01*
X120994330Y-87242428D01*
X120978759Y-87223455D01*
X120976236Y-87220275D01*
X120950188Y-87186329D01*
X120943990Y-87201933D01*
X120941135Y-87208554D01*
X120916587Y-87261201D01*
X120913349Y-87267648D01*
X120892631Y-87306073D01*
X120889024Y-87312321D01*
X120766483Y-87510992D01*
X120762518Y-87517020D01*
X120748000Y-87537753D01*
X114750000Y-87537753D01*
X114750000Y-87112500D01*
X113698755Y-87112500D01*
X112469396Y-87112500D01*
X112465786Y-87108890D01*
X112293820Y-86983951D01*
X112104414Y-86887444D01*
X112104413Y-86887443D01*
X112104412Y-86887443D01*
X111902243Y-86821754D01*
X111902241Y-86821753D01*
X111902240Y-86821753D01*
X111740820Y-86796187D01*
X111692287Y-86788500D01*
X111479713Y-86788500D01*
X111431180Y-86796187D01*
X111269760Y-86821753D01*
X111067585Y-86887444D01*
X110878179Y-86983951D01*
X110706213Y-87108890D01*
X110555890Y-87259213D01*
X110430949Y-87431182D01*
X110426484Y-87439946D01*
X110378509Y-87490742D01*
X110310688Y-87507536D01*
X110244553Y-87484998D01*
X110205516Y-87439946D01*
X110201050Y-87431182D01*
X110076109Y-87259213D01*
X109925786Y-87108890D01*
X109753820Y-86983951D01*
X109564414Y-86887444D01*
X109564413Y-86887443D01*
X109564412Y-86887443D01*
X109362243Y-86821754D01*
X109362241Y-86821753D01*
X109362240Y-86821753D01*
X109200820Y-86796187D01*
X109152287Y-86788500D01*
X108939713Y-86788500D01*
X108891180Y-86796187D01*
X108729760Y-86821753D01*
X108527585Y-86887444D01*
X108338179Y-86983951D01*
X108166215Y-87108889D01*
X108052673Y-87222431D01*
X107991350Y-87255915D01*
X107921658Y-87250931D01*
X107865725Y-87209059D01*
X107848810Y-87178082D01*
X107799797Y-87046671D01*
X107799793Y-87046664D01*
X107713547Y-86931455D01*
X107713544Y-86931452D01*
X107598335Y-86845206D01*
X107598328Y-86845202D01*
X107463482Y-86794908D01*
X107463483Y-86794908D01*
X107403883Y-86788501D01*
X107403881Y-86788500D01*
X107403873Y-86788500D01*
X107403864Y-86788500D01*
X105608129Y-86788500D01*
X105608123Y-86788501D01*
X105548516Y-86794908D01*
X105413671Y-86845202D01*
X105413664Y-86845206D01*
X105298455Y-86931452D01*
X105298452Y-86931455D01*
X105212206Y-87046664D01*
X105212202Y-87046671D01*
X105161908Y-87181517D01*
X105155501Y-87241116D01*
X105155500Y-87241135D01*
X104157500Y-87241135D01*
X104157500Y-87227752D01*
X104157545Y-87224428D01*
X104158084Y-87204327D01*
X104158217Y-87201007D01*
X104159649Y-87174320D01*
X104159871Y-87171011D01*
X104161481Y-87151018D01*
X104161792Y-87147715D01*
X104165578Y-87112500D01*
X103248000Y-87112500D01*
X103248000Y-88614500D01*
X102250000Y-88614500D01*
X102250000Y-87112500D01*
X100748000Y-87112500D01*
X100748000Y-88614500D01*
X99750000Y-88614500D01*
X99750000Y-87112500D01*
X99124000Y-87112500D01*
X99124000Y-88614500D01*
X98000000Y-88614500D01*
X98000000Y-86114500D01*
X99124000Y-86114500D01*
X99750000Y-86114500D01*
X100748000Y-86114500D01*
X102250000Y-86114500D01*
X103248000Y-86114500D01*
X104724438Y-86114500D01*
X113248000Y-86114500D01*
X114750000Y-86114500D01*
X114750000Y-84612500D01*
X113248000Y-84612500D01*
X113248000Y-86114500D01*
X104724438Y-86114500D01*
X104750000Y-86095363D01*
X104750000Y-85941924D01*
X110748000Y-85941924D01*
X110979993Y-85866545D01*
X110984653Y-85865131D01*
X111012995Y-85857138D01*
X111017700Y-85855911D01*
X111055817Y-85846758D01*
X111060577Y-85845713D01*
X111089477Y-85839964D01*
X111094272Y-85839108D01*
X111342941Y-85799723D01*
X111347764Y-85799056D01*
X111376997Y-85795596D01*
X111381835Y-85795119D01*
X111420914Y-85792041D01*
X111425779Y-85791754D01*
X111455231Y-85790596D01*
X111460103Y-85790500D01*
X111711897Y-85790500D01*
X111716769Y-85790596D01*
X111746221Y-85791754D01*
X111751086Y-85792041D01*
X111790165Y-85795119D01*
X111795003Y-85795596D01*
X111824236Y-85799056D01*
X111829059Y-85799723D01*
X112077728Y-85839108D01*
X112082523Y-85839964D01*
X112111423Y-85845713D01*
X112116183Y-85846758D01*
X112154300Y-85855911D01*
X112159005Y-85857138D01*
X112187347Y-85865131D01*
X112192007Y-85866545D01*
X112250000Y-85885387D01*
X112250000Y-84612500D01*
X110748000Y-84612500D01*
X110748000Y-85941924D01*
X104750000Y-85941924D01*
X104750000Y-85928927D01*
X108248000Y-85928927D01*
X108439993Y-85866545D01*
X108444653Y-85865131D01*
X108472995Y-85857138D01*
X108477700Y-85855911D01*
X108515817Y-85846758D01*
X108520577Y-85845713D01*
X108549477Y-85839964D01*
X108554272Y-85839108D01*
X108802941Y-85799723D01*
X108807764Y-85799056D01*
X108836997Y-85795596D01*
X108841835Y-85795119D01*
X108880914Y-85792041D01*
X108885779Y-85791754D01*
X108915231Y-85790596D01*
X108920103Y-85790500D01*
X109171897Y-85790500D01*
X109176769Y-85790596D01*
X109206221Y-85791754D01*
X109211086Y-85792041D01*
X109250165Y-85795119D01*
X109255003Y-85795596D01*
X109284236Y-85799056D01*
X109289059Y-85799723D01*
X109537728Y-85839108D01*
X109542523Y-85839964D01*
X109571423Y-85845713D01*
X109576183Y-85846758D01*
X109614300Y-85855911D01*
X109619005Y-85857138D01*
X109647347Y-85865131D01*
X109652007Y-85866545D01*
X109750000Y-85898385D01*
X109750000Y-84612500D01*
X108248000Y-84612500D01*
X108248000Y-85928927D01*
X104750000Y-85928927D01*
X104750000Y-85790500D01*
X105748000Y-85790500D01*
X107250000Y-85790500D01*
X107250000Y-84612500D01*
X105748000Y-84612500D01*
X105748000Y-85790500D01*
X104750000Y-85790500D01*
X104750000Y-84612500D01*
X103248000Y-84612500D01*
X103248000Y-86114500D01*
X102250000Y-86114500D01*
X102250000Y-84612500D01*
X100748000Y-84612500D01*
X100748000Y-86114500D01*
X99750000Y-86114500D01*
X99750000Y-84612500D01*
X99124000Y-84612500D01*
X99124000Y-86114500D01*
X98000000Y-86114500D01*
X98000000Y-84144014D01*
X116290000Y-84144014D01*
X116290000Y-85094000D01*
X117589999Y-85094000D01*
X117564979Y-85154402D01*
X117540000Y-85279981D01*
X117540000Y-85408019D01*
X117564979Y-85533598D01*
X117589999Y-85594000D01*
X116290000Y-85594000D01*
X116290000Y-86543985D01*
X116300493Y-86646689D01*
X116300494Y-86646696D01*
X116355641Y-86813118D01*
X116355643Y-86813123D01*
X116447684Y-86962344D01*
X116571655Y-87086315D01*
X116720876Y-87178356D01*
X116720881Y-87178358D01*
X116887303Y-87233505D01*
X116887310Y-87233506D01*
X116990014Y-87243999D01*
X116990027Y-87244000D01*
X117940000Y-87244000D01*
X117940000Y-85944001D01*
X118000402Y-85969021D01*
X118125981Y-85994000D01*
X118254019Y-85994000D01*
X118379598Y-85969021D01*
X118440000Y-85944001D01*
X118440000Y-87244000D01*
X119389973Y-87244000D01*
X119389985Y-87243999D01*
X119492689Y-87233506D01*
X119492696Y-87233505D01*
X119659118Y-87178358D01*
X119659123Y-87178356D01*
X119808344Y-87086315D01*
X119932315Y-86962344D01*
X120024356Y-86813123D01*
X120024358Y-86813118D01*
X120079505Y-86646696D01*
X120079506Y-86646689D01*
X120089999Y-86543985D01*
X120090000Y-86543972D01*
X120090000Y-85594000D01*
X118790001Y-85594000D01*
X118815021Y-85533598D01*
X118840000Y-85408019D01*
X118840000Y-85279981D01*
X118827958Y-85219441D01*
X121289500Y-85219441D01*
X121289500Y-85468558D01*
X121289501Y-85468575D01*
X121314021Y-85654826D01*
X121322018Y-85715565D01*
X121361262Y-85862025D01*
X121386498Y-85956207D01*
X121481830Y-86186361D01*
X121481837Y-86186376D01*
X121606400Y-86402126D01*
X121758060Y-86599774D01*
X121758066Y-86599781D01*
X121934218Y-86775933D01*
X121934225Y-86775939D01*
X122131873Y-86927599D01*
X122347623Y-87052162D01*
X122347638Y-87052169D01*
X122430075Y-87086315D01*
X122577793Y-87147502D01*
X122818435Y-87211982D01*
X123065435Y-87244500D01*
X123065442Y-87244500D01*
X123314558Y-87244500D01*
X123314565Y-87244500D01*
X123561565Y-87211982D01*
X123802207Y-87147502D01*
X124032373Y-87052164D01*
X124248127Y-86927599D01*
X124445776Y-86775938D01*
X124621938Y-86599776D01*
X124773599Y-86402127D01*
X124898164Y-86186373D01*
X124927935Y-86114500D01*
X125984293Y-86114500D01*
X127250000Y-86114500D01*
X127250000Y-84612500D01*
X125994744Y-84612500D01*
X126026203Y-84729907D01*
X126027189Y-84733844D01*
X126032762Y-84757746D01*
X126033618Y-84761710D01*
X126039991Y-84793747D01*
X126040719Y-84797745D01*
X126044717Y-84821966D01*
X126045311Y-84825975D01*
X126082094Y-85105362D01*
X126082558Y-85109394D01*
X126084964Y-85133823D01*
X126085296Y-85137869D01*
X126087432Y-85170465D01*
X126087631Y-85174516D01*
X126088434Y-85199047D01*
X126088500Y-85203104D01*
X126088500Y-85484896D01*
X126088434Y-85488953D01*
X126087631Y-85513484D01*
X126087432Y-85517535D01*
X126085296Y-85550131D01*
X126084964Y-85554177D01*
X126082558Y-85578606D01*
X126082094Y-85582638D01*
X126045311Y-85862025D01*
X126044717Y-85866034D01*
X126040719Y-85890255D01*
X126039991Y-85894253D01*
X126033618Y-85926290D01*
X126032762Y-85930254D01*
X126027189Y-85954156D01*
X126026203Y-85958093D01*
X125984293Y-86114500D01*
X124927935Y-86114500D01*
X124993502Y-85956207D01*
X125057982Y-85715565D01*
X125090500Y-85468565D01*
X125090500Y-85219435D01*
X125057982Y-84972435D01*
X124993502Y-84731793D01*
X124898164Y-84501627D01*
X124895442Y-84496913D01*
X124773599Y-84285873D01*
X124621939Y-84088225D01*
X124621933Y-84088218D01*
X124445781Y-83912066D01*
X124445774Y-83912060D01*
X124248126Y-83760400D01*
X124032376Y-83635837D01*
X124032361Y-83635830D01*
X123980865Y-83614500D01*
X125748000Y-83614500D01*
X127250000Y-83614500D01*
X128248000Y-83614500D01*
X128916864Y-83614500D01*
X128922293Y-83609796D01*
X128929184Y-83604243D01*
X129101368Y-83475345D01*
X129108638Y-83470297D01*
X129153705Y-83441333D01*
X129161319Y-83436815D01*
X129223909Y-83402638D01*
X129231823Y-83398677D01*
X129280559Y-83376419D01*
X129288739Y-83373030D01*
X129486096Y-83299421D01*
X129493436Y-83296942D01*
X129538305Y-83283332D01*
X129545788Y-83281315D01*
X129606499Y-83266972D01*
X129614084Y-83265428D01*
X129660262Y-83257522D01*
X129667931Y-83256455D01*
X129747935Y-83247853D01*
X130748000Y-83247853D01*
X130760998Y-83250439D01*
X130763000Y-83251268D01*
X130765002Y-83250439D01*
X130812454Y-83241000D01*
X131674177Y-83241000D01*
X131677491Y-83241044D01*
X131697539Y-83241580D01*
X131700855Y-83241713D01*
X131727542Y-83243142D01*
X131730856Y-83243364D01*
X131750905Y-83244977D01*
X131754217Y-83245289D01*
X131858069Y-83256455D01*
X131865738Y-83257522D01*
X131911916Y-83265428D01*
X131919501Y-83266972D01*
X131980212Y-83281315D01*
X131987695Y-83283332D01*
X132032564Y-83296942D01*
X132039904Y-83299421D01*
X132237261Y-83373030D01*
X132245441Y-83376419D01*
X132250000Y-83378501D01*
X132250000Y-82112500D01*
X130748000Y-82112500D01*
X130748000Y-83247853D01*
X129747935Y-83247853D01*
X129750000Y-83247631D01*
X129750000Y-82112500D01*
X128248000Y-82112500D01*
X128248000Y-83614500D01*
X127250000Y-83614500D01*
X127250000Y-82112500D01*
X125748000Y-82112500D01*
X125748000Y-83614500D01*
X123980865Y-83614500D01*
X123802207Y-83540498D01*
X123687047Y-83509641D01*
X123561565Y-83476018D01*
X123561564Y-83476017D01*
X123561561Y-83476017D01*
X123314575Y-83443501D01*
X123314570Y-83443500D01*
X123314565Y-83443500D01*
X123065435Y-83443500D01*
X123065429Y-83443500D01*
X123065424Y-83443501D01*
X122818438Y-83476017D01*
X122577792Y-83540498D01*
X122347638Y-83635830D01*
X122347623Y-83635837D01*
X122131873Y-83760400D01*
X121934225Y-83912060D01*
X121934218Y-83912066D01*
X121758066Y-84088218D01*
X121758060Y-84088225D01*
X121606400Y-84285873D01*
X121481837Y-84501623D01*
X121481830Y-84501638D01*
X121386498Y-84731792D01*
X121322017Y-84972438D01*
X121289501Y-85219424D01*
X121289500Y-85219441D01*
X118827958Y-85219441D01*
X118815021Y-85154402D01*
X118790001Y-85094000D01*
X120090000Y-85094000D01*
X120090000Y-84144027D01*
X120089999Y-84144014D01*
X120079506Y-84041310D01*
X120079505Y-84041303D01*
X120024358Y-83874881D01*
X120024356Y-83874876D01*
X119932315Y-83725655D01*
X119808344Y-83601684D01*
X119659123Y-83509643D01*
X119659118Y-83509641D01*
X119492696Y-83454494D01*
X119492689Y-83454493D01*
X119389985Y-83444000D01*
X118440000Y-83444000D01*
X118440000Y-84743998D01*
X118379598Y-84718979D01*
X118254019Y-84694000D01*
X118125981Y-84694000D01*
X118000402Y-84718979D01*
X117940000Y-84743998D01*
X117940000Y-83444000D01*
X116990014Y-83444000D01*
X116887310Y-83454493D01*
X116887303Y-83454494D01*
X116720881Y-83509641D01*
X116720876Y-83509643D01*
X116571655Y-83601684D01*
X116447684Y-83725655D01*
X116355643Y-83874876D01*
X116355641Y-83874881D01*
X116300494Y-84041303D01*
X116300493Y-84041310D01*
X116290000Y-84144014D01*
X98000000Y-84144014D01*
X98000000Y-83614500D01*
X99124000Y-83614500D01*
X99750000Y-83614500D01*
X100748000Y-83614500D01*
X102250000Y-83614500D01*
X103248000Y-83614500D01*
X104750000Y-83614500D01*
X105748000Y-83614500D01*
X107250000Y-83614500D01*
X108248000Y-83614500D01*
X109750000Y-83614500D01*
X110748000Y-83614500D01*
X112250000Y-83614500D01*
X113248000Y-83614500D01*
X114750000Y-83614500D01*
X114750000Y-83150246D01*
X120748000Y-83150246D01*
X120762518Y-83170980D01*
X120766483Y-83177008D01*
X120889024Y-83375679D01*
X120892631Y-83381927D01*
X120913349Y-83420352D01*
X120916587Y-83426799D01*
X120941135Y-83479446D01*
X120943990Y-83486067D01*
X120950188Y-83501669D01*
X120976236Y-83467724D01*
X120978759Y-83464545D01*
X120994330Y-83445572D01*
X120996954Y-83442481D01*
X121018491Y-83417922D01*
X121021217Y-83414914D01*
X121037998Y-83396997D01*
X121040820Y-83394081D01*
X121240081Y-83194820D01*
X121242997Y-83191998D01*
X121260914Y-83175217D01*
X121263922Y-83172491D01*
X121288481Y-83150954D01*
X121291572Y-83148330D01*
X121310545Y-83132759D01*
X121313725Y-83130236D01*
X121537286Y-82958692D01*
X121540544Y-82956275D01*
X121560491Y-82941981D01*
X121563828Y-82939672D01*
X121590988Y-82921524D01*
X121594400Y-82919324D01*
X121615250Y-82906359D01*
X121618729Y-82904274D01*
X121862766Y-82763380D01*
X121866309Y-82761411D01*
X121887940Y-82749848D01*
X121891549Y-82747994D01*
X121920844Y-82733546D01*
X121924516Y-82731809D01*
X121946891Y-82721671D01*
X121950614Y-82720057D01*
X122210953Y-82612221D01*
X122214724Y-82610731D01*
X122237670Y-82602094D01*
X122241488Y-82600728D01*
X122250000Y-82597838D01*
X122250000Y-82445500D01*
X123248000Y-82445500D01*
X123330896Y-82445500D01*
X123334953Y-82445566D01*
X123359484Y-82446369D01*
X123363535Y-82446568D01*
X123396131Y-82448704D01*
X123400177Y-82449036D01*
X123424606Y-82451442D01*
X123428638Y-82451906D01*
X123708025Y-82488689D01*
X123712034Y-82489283D01*
X123736255Y-82493281D01*
X123740253Y-82494009D01*
X123772290Y-82500382D01*
X123776254Y-82501238D01*
X123800156Y-82506811D01*
X123804093Y-82507797D01*
X124076298Y-82580735D01*
X124080204Y-82581851D01*
X124103718Y-82588985D01*
X124107582Y-82590227D01*
X124138512Y-82600728D01*
X124142330Y-82602094D01*
X124165276Y-82610731D01*
X124169047Y-82612221D01*
X124429386Y-82720057D01*
X124433109Y-82721671D01*
X124455484Y-82731809D01*
X124459156Y-82733546D01*
X124488451Y-82747994D01*
X124492060Y-82749848D01*
X124513691Y-82761411D01*
X124517234Y-82763380D01*
X124750000Y-82897766D01*
X124750000Y-82112500D01*
X123248000Y-82112500D01*
X123248000Y-82445500D01*
X122250000Y-82445500D01*
X122250000Y-82112500D01*
X120748000Y-82112500D01*
X120748000Y-83150246D01*
X114750000Y-83150246D01*
X114750000Y-83013956D01*
X115748000Y-83013956D01*
X115886500Y-82875456D01*
X115891744Y-82870508D01*
X115924342Y-82841497D01*
X115929868Y-82836860D01*
X115975434Y-82800830D01*
X115981220Y-82796522D01*
X116016980Y-82771482D01*
X116023008Y-82767517D01*
X116221679Y-82644976D01*
X116227927Y-82641369D01*
X116266352Y-82620651D01*
X116272799Y-82617413D01*
X116325446Y-82592865D01*
X116332067Y-82590010D01*
X116372619Y-82573900D01*
X116379396Y-82571433D01*
X116599225Y-82498589D01*
X116605698Y-82496638D01*
X116645166Y-82485908D01*
X116651734Y-82484314D01*
X116704983Y-82472912D01*
X116711634Y-82471676D01*
X116752068Y-82465301D01*
X116758777Y-82464430D01*
X116901233Y-82449876D01*
X116904379Y-82449595D01*
X116923428Y-82448138D01*
X116926579Y-82447937D01*
X116951950Y-82446645D01*
X116955104Y-82446525D01*
X116974175Y-82446040D01*
X116977327Y-82446000D01*
X117250000Y-82446000D01*
X118248000Y-82446000D01*
X119402673Y-82446000D01*
X119405825Y-82446040D01*
X119424896Y-82446525D01*
X119428050Y-82446645D01*
X119453421Y-82447937D01*
X119456572Y-82448138D01*
X119475621Y-82449595D01*
X119478767Y-82449876D01*
X119621223Y-82464430D01*
X119627932Y-82465301D01*
X119668366Y-82471676D01*
X119675017Y-82472912D01*
X119728266Y-82484314D01*
X119734834Y-82485908D01*
X119750000Y-82490031D01*
X119750000Y-82112500D01*
X118248000Y-82112500D01*
X118248000Y-82446000D01*
X117250000Y-82446000D01*
X117250000Y-82112500D01*
X115748000Y-82112500D01*
X115748000Y-83013956D01*
X114750000Y-83013956D01*
X114750000Y-82112500D01*
X113248000Y-82112500D01*
X113248000Y-83614500D01*
X112250000Y-83614500D01*
X112250000Y-82112500D01*
X110748000Y-82112500D01*
X110748000Y-83614500D01*
X109750000Y-83614500D01*
X109750000Y-82112500D01*
X108248000Y-82112500D01*
X108248000Y-83614500D01*
X107250000Y-83614500D01*
X107250000Y-82112500D01*
X105748000Y-82112500D01*
X105748000Y-83614500D01*
X104750000Y-83614500D01*
X104750000Y-82112500D01*
X103248000Y-82112500D01*
X103248000Y-83614500D01*
X102250000Y-83614500D01*
X102250000Y-82112500D01*
X100748000Y-82112500D01*
X100748000Y-83614500D01*
X99750000Y-83614500D01*
X99750000Y-82112500D01*
X99124000Y-82112500D01*
X99124000Y-83614500D01*
X98000000Y-83614500D01*
X98000000Y-81114500D01*
X99124000Y-81114500D01*
X99750000Y-81114500D01*
X100748000Y-81114500D01*
X102250000Y-81114500D01*
X108762573Y-81114500D01*
X109750000Y-81114500D01*
X110748000Y-81114500D01*
X112250000Y-81114500D01*
X113248000Y-81114500D01*
X114750000Y-81114500D01*
X115748000Y-81114500D01*
X117250000Y-81114500D01*
X118248000Y-81114500D01*
X119750000Y-81114500D01*
X120748000Y-81114500D01*
X122250000Y-81114500D01*
X123248000Y-81114500D01*
X124750000Y-81114500D01*
X125748000Y-81114500D01*
X127250000Y-81114500D01*
X128248000Y-81114500D01*
X129750000Y-81114500D01*
X130748000Y-81114500D01*
X132250000Y-81114500D01*
X132250000Y-79612500D01*
X130748000Y-79612500D01*
X130748000Y-81114500D01*
X129750000Y-81114500D01*
X129750000Y-79612500D01*
X128248000Y-79612500D01*
X128248000Y-81114500D01*
X127250000Y-81114500D01*
X127250000Y-79612500D01*
X125748000Y-79612500D01*
X125748000Y-81114500D01*
X124750000Y-81114500D01*
X124750000Y-79612500D01*
X123248000Y-79612500D01*
X123248000Y-81114500D01*
X122250000Y-81114500D01*
X122250000Y-79612500D01*
X120748000Y-79612500D01*
X120748000Y-81114500D01*
X119750000Y-81114500D01*
X119750000Y-79612500D01*
X118248000Y-79612500D01*
X118248000Y-81114500D01*
X117250000Y-81114500D01*
X117250000Y-79612500D01*
X115748000Y-79612500D01*
X115748000Y-81114500D01*
X114750000Y-81114500D01*
X114750000Y-79612500D01*
X113248000Y-79612500D01*
X113248000Y-81114500D01*
X112250000Y-81114500D01*
X112250000Y-79612500D01*
X110748000Y-79612500D01*
X110748000Y-81114500D01*
X109750000Y-81114500D01*
X109750000Y-79612500D01*
X109690914Y-79612500D01*
X109672638Y-79727886D01*
X109671783Y-79732674D01*
X109666043Y-79761536D01*
X109665001Y-79766286D01*
X109655853Y-79804405D01*
X109654622Y-79809124D01*
X109646619Y-79837503D01*
X109645205Y-79842166D01*
X109569857Y-80074058D01*
X109568264Y-80078652D01*
X109558080Y-80106261D01*
X109556307Y-80110792D01*
X109541309Y-80147008D01*
X109539355Y-80151474D01*
X109527013Y-80178248D01*
X109524887Y-80182633D01*
X109414185Y-80399898D01*
X109411890Y-80404191D01*
X109397493Y-80429899D01*
X109395029Y-80434103D01*
X109374544Y-80467530D01*
X109371920Y-80471630D01*
X109355556Y-80496120D01*
X109352771Y-80500115D01*
X109178541Y-80739914D01*
X109138812Y-80775217D01*
X109017277Y-80843277D01*
X108949217Y-80964812D01*
X108913914Y-81004541D01*
X108762573Y-81114500D01*
X102250000Y-81114500D01*
X102250000Y-79612500D01*
X100748000Y-79612500D01*
X100748000Y-81114500D01*
X99750000Y-81114500D01*
X99750000Y-79612500D01*
X99124000Y-79612500D01*
X99124000Y-81114500D01*
X98000000Y-81114500D01*
X98000000Y-79145648D01*
X103621500Y-79145648D01*
X103621500Y-79350351D01*
X103653522Y-79552534D01*
X103716781Y-79747223D01*
X103759248Y-79830567D01*
X103809585Y-79929359D01*
X103809715Y-79929613D01*
X103930028Y-80095213D01*
X104074786Y-80239971D01*
X104195226Y-80327474D01*
X104240390Y-80360287D01*
X104356607Y-80419503D01*
X104422776Y-80453218D01*
X104422778Y-80453218D01*
X104422781Y-80453220D01*
X104527137Y-80487127D01*
X104617465Y-80516477D01*
X104718557Y-80532488D01*
X104819648Y-80548500D01*
X104819649Y-80548500D01*
X105024351Y-80548500D01*
X105024352Y-80548500D01*
X105226534Y-80516477D01*
X105421219Y-80453220D01*
X105603610Y-80360287D01*
X105696590Y-80292732D01*
X105769213Y-80239971D01*
X105769215Y-80239968D01*
X105769219Y-80239966D01*
X105913966Y-80095219D01*
X105913968Y-80095215D01*
X105913971Y-80095213D01*
X106034286Y-79929611D01*
X106034415Y-79929359D01*
X106061795Y-79875621D01*
X106109769Y-79824826D01*
X106177589Y-79808030D01*
X106243725Y-79830567D01*
X106282765Y-79875621D01*
X106310141Y-79929350D01*
X106310147Y-79929359D01*
X106342523Y-79973921D01*
X106342524Y-79973922D01*
X107022000Y-79294446D01*
X107022000Y-79300661D01*
X107049259Y-79402394D01*
X107101920Y-79493606D01*
X107176394Y-79568080D01*
X107267606Y-79620741D01*
X107369339Y-79648000D01*
X107375553Y-79648000D01*
X106696076Y-80327474D01*
X106740650Y-80359859D01*
X106922968Y-80452755D01*
X107117582Y-80515990D01*
X107319683Y-80548000D01*
X107524317Y-80548000D01*
X107726417Y-80515990D01*
X107921031Y-80452755D01*
X108103349Y-80359859D01*
X108147921Y-80327474D01*
X107468447Y-79648000D01*
X107474661Y-79648000D01*
X107576394Y-79620741D01*
X107667606Y-79568080D01*
X107742080Y-79493606D01*
X107794741Y-79402394D01*
X107822000Y-79300661D01*
X107822000Y-79294447D01*
X108501474Y-79973921D01*
X108533859Y-79929349D01*
X108626755Y-79747031D01*
X108689990Y-79552417D01*
X108722000Y-79350317D01*
X108722000Y-79145682D01*
X108689990Y-78943582D01*
X108626755Y-78748968D01*
X108533859Y-78566650D01*
X108501474Y-78522077D01*
X108501474Y-78522076D01*
X107822000Y-79201551D01*
X107822000Y-79195339D01*
X107794741Y-79093606D01*
X107742080Y-79002394D01*
X107667606Y-78927920D01*
X107576394Y-78875259D01*
X107474661Y-78848000D01*
X107468446Y-78848000D01*
X108147922Y-78168524D01*
X108147921Y-78168523D01*
X108103359Y-78136147D01*
X108103350Y-78136141D01*
X107921031Y-78043244D01*
X107726417Y-77980009D01*
X107524317Y-77948000D01*
X107319683Y-77948000D01*
X107117582Y-77980009D01*
X106922968Y-78043244D01*
X106740644Y-78136143D01*
X106696077Y-78168523D01*
X106696077Y-78168524D01*
X107375554Y-78848000D01*
X107369339Y-78848000D01*
X107267606Y-78875259D01*
X107176394Y-78927920D01*
X107101920Y-79002394D01*
X107049259Y-79093606D01*
X107022000Y-79195339D01*
X107022000Y-79201553D01*
X106342524Y-78522077D01*
X106342523Y-78522077D01*
X106310143Y-78566644D01*
X106282765Y-78620378D01*
X106234790Y-78671174D01*
X106166969Y-78687969D01*
X106100834Y-78665431D01*
X106061795Y-78620378D01*
X106034284Y-78566385D01*
X105913971Y-78400786D01*
X105769213Y-78256028D01*
X105603613Y-78135715D01*
X105603612Y-78135714D01*
X105603610Y-78135713D01*
X105525879Y-78096107D01*
X105421223Y-78042781D01*
X105226534Y-77979522D01*
X105051995Y-77951878D01*
X105024352Y-77947500D01*
X104819648Y-77947500D01*
X104795329Y-77951351D01*
X104617465Y-77979522D01*
X104422776Y-78042781D01*
X104240386Y-78135715D01*
X104074786Y-78256028D01*
X103930028Y-78400786D01*
X103809715Y-78566386D01*
X103716781Y-78748776D01*
X103653522Y-78943465D01*
X103621500Y-79145648D01*
X98000000Y-79145648D01*
X98000000Y-78614500D01*
X99124000Y-78614500D01*
X99750000Y-78614500D01*
X100748000Y-78614500D01*
X102250000Y-78614500D01*
X102250000Y-77112500D01*
X108281743Y-77112500D01*
X108284792Y-77113693D01*
X108321008Y-77128691D01*
X108325476Y-77130646D01*
X108352251Y-77142989D01*
X108356634Y-77145114D01*
X108573884Y-77255808D01*
X108578175Y-77258102D01*
X108603854Y-77272482D01*
X108608049Y-77274940D01*
X108641474Y-77295419D01*
X108645583Y-77298049D01*
X108670095Y-77314427D01*
X108674090Y-77317212D01*
X108913906Y-77491447D01*
X108949211Y-77531176D01*
X109017278Y-77652720D01*
X109138818Y-77720785D01*
X109178547Y-77756089D01*
X109352780Y-77995897D01*
X109355566Y-77999895D01*
X109371934Y-78024393D01*
X109374558Y-78028492D01*
X109395040Y-78061916D01*
X109397502Y-78066116D01*
X109411893Y-78091813D01*
X109414188Y-78096107D01*
X109524887Y-78313367D01*
X109527013Y-78317752D01*
X109539355Y-78344526D01*
X109541309Y-78348992D01*
X109556307Y-78385208D01*
X109558080Y-78389739D01*
X109568264Y-78417348D01*
X109569857Y-78421942D01*
X109632424Y-78614500D01*
X109750000Y-78614500D01*
X110748000Y-78614500D01*
X112250000Y-78614500D01*
X113248000Y-78614500D01*
X114750000Y-78614500D01*
X115748000Y-78614500D01*
X117250000Y-78614500D01*
X117250000Y-78195147D01*
X117236760Y-78181907D01*
X117233386Y-78178398D01*
X117213393Y-78156770D01*
X117210158Y-78153130D01*
X117184700Y-78123323D01*
X117181612Y-78119560D01*
X117163375Y-78096427D01*
X117160435Y-78092544D01*
X117026320Y-77907953D01*
X117023534Y-77903955D01*
X117007166Y-77879457D01*
X117004542Y-77875358D01*
X116984060Y-77841934D01*
X116981599Y-77837736D01*
X116967208Y-77812040D01*
X116964912Y-77807743D01*
X116861324Y-77604438D01*
X116859199Y-77600056D01*
X116846856Y-77573281D01*
X116844901Y-77568813D01*
X116829903Y-77532597D01*
X116828131Y-77528067D01*
X116817947Y-77500459D01*
X116816353Y-77495864D01*
X116745845Y-77278868D01*
X116744430Y-77274204D01*
X116736427Y-77245824D01*
X116735197Y-77241106D01*
X116726049Y-77202987D01*
X116725007Y-77198237D01*
X116719267Y-77169375D01*
X116718412Y-77164587D01*
X116710162Y-77112500D01*
X115748000Y-77112500D01*
X115748000Y-78614500D01*
X114750000Y-78614500D01*
X114750000Y-77112500D01*
X113248000Y-77112500D01*
X113248000Y-78614500D01*
X112250000Y-78614500D01*
X112250000Y-77112500D01*
X110748000Y-77112500D01*
X110748000Y-78614500D01*
X109750000Y-78614500D01*
X109750000Y-77112500D01*
X108281743Y-77112500D01*
X102250000Y-77112500D01*
X100748000Y-77112500D01*
X100748000Y-78614500D01*
X99750000Y-78614500D01*
X99750000Y-77112500D01*
X99124000Y-77112500D01*
X99124000Y-78614500D01*
X98000000Y-78614500D01*
X98000000Y-76613513D01*
X117671500Y-76613513D01*
X117671500Y-76802486D01*
X117701059Y-76989118D01*
X117759454Y-77168836D01*
X117815519Y-77278868D01*
X117845240Y-77337199D01*
X117956310Y-77490073D01*
X118089927Y-77623690D01*
X118242801Y-77734760D01*
X118284662Y-77756089D01*
X118411163Y-77820545D01*
X118411165Y-77820545D01*
X118411168Y-77820547D01*
X118464070Y-77837736D01*
X118590881Y-77878940D01*
X118777514Y-77908500D01*
X118777519Y-77908500D01*
X118966486Y-77908500D01*
X119153118Y-77878940D01*
X119164142Y-77875358D01*
X119207045Y-77861418D01*
X120748000Y-77861418D01*
X120748000Y-78614500D01*
X122250000Y-78614500D01*
X123248000Y-78614500D01*
X124750000Y-78614500D01*
X124750000Y-78050654D01*
X124736000Y-78031385D01*
X128248000Y-78031385D01*
X128248000Y-78614500D01*
X129750000Y-78614500D01*
X130748000Y-78614500D01*
X132250000Y-78614500D01*
X132250000Y-77112500D01*
X130748000Y-77112500D01*
X130748000Y-78614500D01*
X129750000Y-78614500D01*
X129750000Y-77112500D01*
X128653838Y-77112500D01*
X128645588Y-77164587D01*
X128644733Y-77169375D01*
X128638993Y-77198237D01*
X128637951Y-77202987D01*
X128628803Y-77241106D01*
X128627573Y-77245824D01*
X128619570Y-77274204D01*
X128618155Y-77278868D01*
X128547647Y-77495864D01*
X128546053Y-77500459D01*
X128535869Y-77528067D01*
X128534097Y-77532597D01*
X128519099Y-77568813D01*
X128517144Y-77573281D01*
X128504801Y-77600056D01*
X128502676Y-77604438D01*
X128399088Y-77807743D01*
X128396792Y-77812040D01*
X128382401Y-77837736D01*
X128379940Y-77841934D01*
X128359458Y-77875358D01*
X128356834Y-77879457D01*
X128340466Y-77903955D01*
X128337680Y-77907953D01*
X128248000Y-78031385D01*
X124736000Y-78031385D01*
X124646320Y-77907953D01*
X124643534Y-77903955D01*
X124627166Y-77879457D01*
X124624542Y-77875358D01*
X124604060Y-77841934D01*
X124601599Y-77837736D01*
X124587208Y-77812040D01*
X124584912Y-77807743D01*
X124481324Y-77604438D01*
X124479199Y-77600056D01*
X124466856Y-77573281D01*
X124464901Y-77568813D01*
X124449903Y-77532597D01*
X124448131Y-77528067D01*
X124437947Y-77500459D01*
X124436353Y-77495864D01*
X124365845Y-77278868D01*
X124364430Y-77274204D01*
X124356427Y-77245824D01*
X124355197Y-77241106D01*
X124346049Y-77202987D01*
X124345007Y-77198237D01*
X124339267Y-77169375D01*
X124338412Y-77164587D01*
X124330162Y-77112500D01*
X123248000Y-77112500D01*
X123248000Y-78614500D01*
X122250000Y-78614500D01*
X122250000Y-77112500D01*
X121033838Y-77112500D01*
X121025588Y-77164587D01*
X121024733Y-77169375D01*
X121018993Y-77198237D01*
X121017951Y-77202987D01*
X121008803Y-77241106D01*
X121007573Y-77245824D01*
X120999570Y-77274204D01*
X120998155Y-77278868D01*
X120927647Y-77495864D01*
X120926053Y-77500459D01*
X120915869Y-77528067D01*
X120914097Y-77532597D01*
X120899099Y-77568813D01*
X120897144Y-77573281D01*
X120884801Y-77600056D01*
X120882676Y-77604438D01*
X120779088Y-77807743D01*
X120776792Y-77812040D01*
X120762401Y-77837736D01*
X120759940Y-77841934D01*
X120748000Y-77861418D01*
X119207045Y-77861418D01*
X119332832Y-77820547D01*
X119501199Y-77734760D01*
X119654073Y-77623690D01*
X119787690Y-77490073D01*
X119898760Y-77337199D01*
X119984547Y-77168832D01*
X120042940Y-76989118D01*
X120072500Y-76802486D01*
X120072500Y-76613513D01*
X125291500Y-76613513D01*
X125291500Y-76802486D01*
X125321059Y-76989118D01*
X125379454Y-77168836D01*
X125435519Y-77278868D01*
X125465240Y-77337199D01*
X125576310Y-77490073D01*
X125709927Y-77623690D01*
X125862801Y-77734760D01*
X125904662Y-77756089D01*
X126031163Y-77820545D01*
X126031165Y-77820545D01*
X126031168Y-77820547D01*
X126084070Y-77837736D01*
X126210881Y-77878940D01*
X126397514Y-77908500D01*
X126397519Y-77908500D01*
X126586486Y-77908500D01*
X126773118Y-77878940D01*
X126784142Y-77875358D01*
X126952832Y-77820547D01*
X127121199Y-77734760D01*
X127274073Y-77623690D01*
X127407690Y-77490073D01*
X127518760Y-77337199D01*
X127604547Y-77168832D01*
X127662940Y-76989118D01*
X127692500Y-76802486D01*
X127692500Y-76613513D01*
X127662940Y-76426881D01*
X127604545Y-76247163D01*
X127518759Y-76078800D01*
X127407690Y-75925927D01*
X127274073Y-75792310D01*
X127121199Y-75681240D01*
X127090013Y-75665350D01*
X126952836Y-75595454D01*
X126773118Y-75537059D01*
X126586486Y-75507500D01*
X126586481Y-75507500D01*
X126397519Y-75507500D01*
X126397514Y-75507500D01*
X126210881Y-75537059D01*
X126031163Y-75595454D01*
X125862800Y-75681240D01*
X125775579Y-75744610D01*
X125709927Y-75792310D01*
X125709925Y-75792312D01*
X125709924Y-75792312D01*
X125576312Y-75925924D01*
X125576312Y-75925925D01*
X125576310Y-75925927D01*
X125528610Y-75991579D01*
X125465240Y-76078800D01*
X125379454Y-76247163D01*
X125321059Y-76426881D01*
X125291500Y-76613513D01*
X120072500Y-76613513D01*
X120042940Y-76426881D01*
X119984545Y-76247163D01*
X119898759Y-76078800D01*
X119787690Y-75925927D01*
X119654073Y-75792310D01*
X119501199Y-75681240D01*
X119470013Y-75665350D01*
X119332836Y-75595454D01*
X119207044Y-75554581D01*
X120748000Y-75554581D01*
X120759940Y-75574066D01*
X120762401Y-75578264D01*
X120776792Y-75603960D01*
X120779088Y-75608257D01*
X120882676Y-75811562D01*
X120884801Y-75815944D01*
X120897144Y-75842719D01*
X120899099Y-75847187D01*
X120914097Y-75883403D01*
X120915869Y-75887933D01*
X120926053Y-75915541D01*
X120927647Y-75920136D01*
X120990801Y-76114500D01*
X122250000Y-76114500D01*
X123248000Y-76114500D01*
X124373199Y-76114500D01*
X124436353Y-75920136D01*
X124437947Y-75915541D01*
X124448131Y-75887933D01*
X124449903Y-75883403D01*
X124464901Y-75847187D01*
X124466856Y-75842719D01*
X124479199Y-75815944D01*
X124481324Y-75811562D01*
X124584912Y-75608257D01*
X124587208Y-75603960D01*
X124601599Y-75578264D01*
X124604060Y-75574066D01*
X124624542Y-75540642D01*
X124627166Y-75536543D01*
X124643534Y-75512045D01*
X124646320Y-75508047D01*
X124736000Y-75384614D01*
X128248000Y-75384614D01*
X128337680Y-75508047D01*
X128340466Y-75512045D01*
X128356834Y-75536543D01*
X128359458Y-75540642D01*
X128379940Y-75574066D01*
X128382401Y-75578264D01*
X128396792Y-75603960D01*
X128399088Y-75608257D01*
X128502676Y-75811562D01*
X128504801Y-75815944D01*
X128517144Y-75842719D01*
X128519099Y-75847187D01*
X128534097Y-75883403D01*
X128535869Y-75887933D01*
X128546053Y-75915541D01*
X128547647Y-75920136D01*
X128610801Y-76114500D01*
X129750000Y-76114500D01*
X130748000Y-76114500D01*
X132250000Y-76114500D01*
X132250000Y-74612500D01*
X130748000Y-74612500D01*
X130748000Y-76114500D01*
X129750000Y-76114500D01*
X129750000Y-74612500D01*
X128248000Y-74612500D01*
X128248000Y-75384614D01*
X124736000Y-75384614D01*
X124750000Y-75365345D01*
X124750000Y-74612500D01*
X123248000Y-74612500D01*
X123248000Y-76114500D01*
X122250000Y-76114500D01*
X122250000Y-74612500D01*
X120748000Y-74612500D01*
X120748000Y-75554581D01*
X119207044Y-75554581D01*
X119153118Y-75537059D01*
X118966486Y-75507500D01*
X118966481Y-75507500D01*
X118777519Y-75507500D01*
X118777514Y-75507500D01*
X118590881Y-75537059D01*
X118411163Y-75595454D01*
X118242800Y-75681240D01*
X118155579Y-75744610D01*
X118089927Y-75792310D01*
X118089925Y-75792312D01*
X118089924Y-75792312D01*
X117956312Y-75925924D01*
X117956312Y-75925925D01*
X117956310Y-75925927D01*
X117908610Y-75991579D01*
X117845240Y-76078800D01*
X117759454Y-76247163D01*
X117701059Y-76426881D01*
X117671500Y-76613513D01*
X98000000Y-76613513D01*
X98000000Y-76114500D01*
X99124000Y-76114500D01*
X99750000Y-76114500D01*
X100748000Y-76114500D01*
X102250000Y-76114500D01*
X103248000Y-76114500D01*
X104750000Y-76114500D01*
X104750000Y-75838499D01*
X105748000Y-75838499D01*
X105748000Y-76114500D01*
X107250000Y-76114500D01*
X107250000Y-75795243D01*
X107200288Y-75787370D01*
X107195500Y-75786515D01*
X107183995Y-75784227D01*
X108248000Y-75784227D01*
X108248000Y-76114500D01*
X109750000Y-76114500D01*
X109750000Y-75791125D01*
X110748000Y-75791125D01*
X110748000Y-76114500D01*
X112250000Y-76114500D01*
X113248000Y-76114500D01*
X114750000Y-76114500D01*
X115748000Y-76114500D01*
X116753199Y-76114500D01*
X116816353Y-75920136D01*
X116817947Y-75915541D01*
X116828131Y-75887933D01*
X116829903Y-75883403D01*
X116844901Y-75847187D01*
X116846856Y-75842719D01*
X116859199Y-75815944D01*
X116861324Y-75811562D01*
X116964912Y-75608257D01*
X116967208Y-75603960D01*
X116981599Y-75578264D01*
X116984060Y-75574066D01*
X117004542Y-75540642D01*
X117007166Y-75536543D01*
X117023534Y-75512045D01*
X117026320Y-75508047D01*
X117160435Y-75323456D01*
X117163375Y-75319573D01*
X117181612Y-75296440D01*
X117184700Y-75292677D01*
X117210158Y-75262870D01*
X117213393Y-75259230D01*
X117233386Y-75237602D01*
X117236760Y-75234093D01*
X117250000Y-75220853D01*
X117250000Y-74612500D01*
X115748000Y-74612500D01*
X115748000Y-76114500D01*
X114750000Y-76114500D01*
X114750000Y-74612500D01*
X113248000Y-74612500D01*
X113248000Y-76114500D01*
X112250000Y-76114500D01*
X112250000Y-74812885D01*
X112160162Y-74936536D01*
X112157222Y-74940419D01*
X112138984Y-74963553D01*
X112135896Y-74967316D01*
X112110438Y-74997123D01*
X112107203Y-75000763D01*
X112087210Y-75022391D01*
X112083836Y-75025900D01*
X111894400Y-75215336D01*
X111890891Y-75218710D01*
X111869263Y-75238703D01*
X111865623Y-75241938D01*
X111835816Y-75267396D01*
X111832053Y-75270484D01*
X111808919Y-75288722D01*
X111805036Y-75291662D01*
X111588291Y-75449137D01*
X111584295Y-75451922D01*
X111559798Y-75468290D01*
X111555697Y-75470915D01*
X111522273Y-75491397D01*
X111518072Y-75493859D01*
X111492376Y-75508249D01*
X111488083Y-75510544D01*
X111249381Y-75632169D01*
X111245002Y-75634293D01*
X111218260Y-75646622D01*
X111213799Y-75648573D01*
X111177583Y-75663575D01*
X111173049Y-75665350D01*
X111145405Y-75675549D01*
X111140802Y-75677145D01*
X110885990Y-75759938D01*
X110881326Y-75761353D01*
X110852949Y-75769355D01*
X110848232Y-75770585D01*
X110810114Y-75779733D01*
X110805363Y-75780775D01*
X110776500Y-75786515D01*
X110771712Y-75787370D01*
X110748000Y-75791125D01*
X109750000Y-75791125D01*
X109750000Y-75788908D01*
X109740289Y-75787370D01*
X109735500Y-75786515D01*
X109706637Y-75780775D01*
X109701886Y-75779733D01*
X109663768Y-75770585D01*
X109659051Y-75769355D01*
X109630674Y-75761353D01*
X109626010Y-75759938D01*
X109371198Y-75677145D01*
X109366595Y-75675549D01*
X109338951Y-75665350D01*
X109334417Y-75663575D01*
X109298201Y-75648573D01*
X109293740Y-75646622D01*
X109266998Y-75634293D01*
X109262619Y-75632169D01*
X109023917Y-75510544D01*
X109019624Y-75508249D01*
X108993928Y-75493859D01*
X108989727Y-75491397D01*
X108986000Y-75489113D01*
X108982273Y-75491397D01*
X108978072Y-75493859D01*
X108952376Y-75508249D01*
X108948083Y-75510544D01*
X108709381Y-75632169D01*
X108705002Y-75634293D01*
X108678260Y-75646622D01*
X108673799Y-75648573D01*
X108637583Y-75663575D01*
X108633049Y-75665350D01*
X108605405Y-75675549D01*
X108600802Y-75677145D01*
X108345990Y-75759938D01*
X108341326Y-75761353D01*
X108312949Y-75769355D01*
X108308232Y-75770585D01*
X108270114Y-75779733D01*
X108265363Y-75780775D01*
X108248000Y-75784227D01*
X107183995Y-75784227D01*
X107166637Y-75780775D01*
X107161886Y-75779733D01*
X107123768Y-75770585D01*
X107119051Y-75769355D01*
X107090674Y-75761353D01*
X107086010Y-75759938D01*
X106831198Y-75677145D01*
X106826595Y-75675549D01*
X106822738Y-75674126D01*
X106817835Y-75676804D01*
X106809919Y-75680767D01*
X106761182Y-75703025D01*
X106753002Y-75706413D01*
X106555518Y-75780069D01*
X106548179Y-75782548D01*
X106503328Y-75796153D01*
X106495852Y-75798168D01*
X106435137Y-75812516D01*
X106427545Y-75814061D01*
X106381340Y-75821972D01*
X106373667Y-75823041D01*
X106269744Y-75834212D01*
X106266439Y-75834522D01*
X106246399Y-75836135D01*
X106243078Y-75836358D01*
X106216395Y-75837786D01*
X106213082Y-75837919D01*
X106193034Y-75838455D01*
X106189720Y-75838499D01*
X105748000Y-75838499D01*
X104750000Y-75838499D01*
X104162252Y-75838500D01*
X104158928Y-75838455D01*
X104138826Y-75837916D01*
X104135506Y-75837783D01*
X104108820Y-75836351D01*
X104105511Y-75836129D01*
X104085518Y-75834519D01*
X104082215Y-75834208D01*
X103978325Y-75823038D01*
X103970657Y-75821971D01*
X103924471Y-75814064D01*
X103916881Y-75812519D01*
X103856170Y-75798174D01*
X103848691Y-75796158D01*
X103803828Y-75782550D01*
X103796488Y-75780071D01*
X103598998Y-75706413D01*
X103590818Y-75703025D01*
X103542081Y-75680767D01*
X103534167Y-75676805D01*
X103471577Y-75642628D01*
X103463963Y-75638110D01*
X103418896Y-75609146D01*
X103411626Y-75604098D01*
X103248000Y-75481606D01*
X103248000Y-76114500D01*
X102250000Y-76114500D01*
X102250000Y-74612500D01*
X100748000Y-74612500D01*
X100748000Y-76114500D01*
X99750000Y-76114500D01*
X99750000Y-74612500D01*
X99124000Y-74612500D01*
X99124000Y-76114500D01*
X98000000Y-76114500D01*
X98000000Y-73614500D01*
X99124000Y-73614500D01*
X99750000Y-73614500D01*
X100748000Y-73614500D01*
X102250000Y-73614500D01*
X102250000Y-72292135D01*
X103723000Y-72292135D01*
X103723000Y-74387870D01*
X103723001Y-74387876D01*
X103729408Y-74447483D01*
X103779702Y-74582328D01*
X103779706Y-74582335D01*
X103865952Y-74697544D01*
X103865955Y-74697547D01*
X103981164Y-74783793D01*
X103981171Y-74783797D01*
X104116017Y-74834091D01*
X104116016Y-74834091D01*
X104122944Y-74834835D01*
X104175627Y-74840500D01*
X106176372Y-74840499D01*
X106235983Y-74834091D01*
X106370831Y-74783796D01*
X106486046Y-74697546D01*
X106572296Y-74582331D01*
X106582690Y-74554460D01*
X106624560Y-74498527D01*
X106690023Y-74474108D01*
X106758297Y-74488958D01*
X106771746Y-74497465D01*
X106954462Y-74630217D01*
X107086599Y-74697544D01*
X107158244Y-74734049D01*
X107375751Y-74804721D01*
X107375752Y-74804721D01*
X107375755Y-74804722D01*
X107601646Y-74840500D01*
X107601647Y-74840500D01*
X107830353Y-74840500D01*
X107830354Y-74840500D01*
X108056245Y-74804722D01*
X108056248Y-74804721D01*
X108056249Y-74804721D01*
X108273755Y-74734049D01*
X108273755Y-74734048D01*
X108273758Y-74734048D01*
X108477538Y-74630217D01*
X108662566Y-74495786D01*
X108824286Y-74334066D01*
X108885683Y-74249559D01*
X108941012Y-74206896D01*
X109010625Y-74200917D01*
X109072420Y-74233523D01*
X109086314Y-74249556D01*
X109147714Y-74334066D01*
X109309434Y-74495786D01*
X109494462Y-74630217D01*
X109626599Y-74697544D01*
X109698244Y-74734049D01*
X109915751Y-74804721D01*
X109915752Y-74804721D01*
X109915755Y-74804722D01*
X110141646Y-74840500D01*
X110141647Y-74840500D01*
X110370353Y-74840500D01*
X110370354Y-74840500D01*
X110596245Y-74804722D01*
X110596248Y-74804721D01*
X110596249Y-74804721D01*
X110813755Y-74734049D01*
X110813755Y-74734048D01*
X110813758Y-74734048D01*
X111017538Y-74630217D01*
X111202566Y-74495786D01*
X111364286Y-74334066D01*
X111498717Y-74149038D01*
X111602548Y-73945258D01*
X111673222Y-73727745D01*
X111691158Y-73614500D01*
X113248000Y-73614500D01*
X114750000Y-73614500D01*
X115748000Y-73614500D01*
X117250000Y-73614500D01*
X117250000Y-72842628D01*
X120748000Y-72842628D01*
X120748000Y-73614500D01*
X122250000Y-73614500D01*
X123248000Y-73614500D01*
X124750000Y-73614500D01*
X124750000Y-72981147D01*
X128248000Y-72981147D01*
X128248000Y-73614500D01*
X129750000Y-73614500D01*
X130748000Y-73614500D01*
X132250000Y-73614500D01*
X132250000Y-72112500D01*
X130748000Y-72112500D01*
X130748000Y-73614500D01*
X129750000Y-73614500D01*
X129750000Y-72112500D01*
X128817687Y-72112500D01*
X128801647Y-72161864D01*
X128800053Y-72166459D01*
X128789869Y-72194067D01*
X128788097Y-72198597D01*
X128773099Y-72234813D01*
X128771144Y-72239281D01*
X128758801Y-72266056D01*
X128756676Y-72270438D01*
X128653088Y-72473743D01*
X128650792Y-72478040D01*
X128636401Y-72503736D01*
X128633940Y-72507934D01*
X128613458Y-72541358D01*
X128610834Y-72545457D01*
X128594466Y-72569955D01*
X128591680Y-72573953D01*
X128457565Y-72758544D01*
X128454625Y-72762427D01*
X128436388Y-72785560D01*
X128433300Y-72789323D01*
X128407842Y-72819130D01*
X128404607Y-72822770D01*
X128384614Y-72844398D01*
X128381240Y-72847907D01*
X128248000Y-72981147D01*
X124750000Y-72981147D01*
X124750000Y-72299242D01*
X124735324Y-72270439D01*
X124733199Y-72266056D01*
X124720856Y-72239281D01*
X124718901Y-72234813D01*
X124703903Y-72198597D01*
X124702131Y-72194067D01*
X124691947Y-72166459D01*
X124690353Y-72161864D01*
X124674313Y-72112500D01*
X123248000Y-72112500D01*
X123248000Y-73614500D01*
X122250000Y-73614500D01*
X122250000Y-72112500D01*
X121197161Y-72112500D01*
X121181181Y-72161683D01*
X121179585Y-72166284D01*
X121169386Y-72193929D01*
X121167611Y-72198465D01*
X121152609Y-72234681D01*
X121150659Y-72239139D01*
X121138330Y-72265883D01*
X121136205Y-72270265D01*
X121032656Y-72473489D01*
X121030359Y-72477786D01*
X121015962Y-72503492D01*
X121013501Y-72507691D01*
X120993017Y-72541117D01*
X120990391Y-72545219D01*
X120974026Y-72569710D01*
X120971242Y-72573704D01*
X120810947Y-72794323D01*
X120771217Y-72829627D01*
X120748000Y-72842628D01*
X117250000Y-72842628D01*
X117250000Y-72526457D01*
X117238506Y-72507702D01*
X117236043Y-72503500D01*
X117221643Y-72477788D01*
X117219347Y-72473493D01*
X117172668Y-72381882D01*
X118471669Y-72381882D01*
X118471670Y-72381883D01*
X118497059Y-72400329D01*
X118665362Y-72486085D01*
X118844997Y-72544451D01*
X119031553Y-72574000D01*
X119220447Y-72574000D01*
X119407002Y-72544451D01*
X119586637Y-72486085D01*
X119754937Y-72400331D01*
X119780328Y-72381883D01*
X119780328Y-72381882D01*
X119126001Y-71727554D01*
X119126000Y-71727554D01*
X118471669Y-72381882D01*
X117172668Y-72381882D01*
X117115796Y-72270266D01*
X117113670Y-72265883D01*
X117101341Y-72239139D01*
X117099391Y-72234681D01*
X117084389Y-72198465D01*
X117082614Y-72193929D01*
X117072415Y-72166284D01*
X117070819Y-72161683D01*
X117054839Y-72112500D01*
X115748000Y-72112500D01*
X115748000Y-73614500D01*
X114750000Y-73614500D01*
X114750000Y-72112500D01*
X113248000Y-72112500D01*
X113248000Y-73614500D01*
X111691158Y-73614500D01*
X111709000Y-73501854D01*
X111709000Y-73178146D01*
X111673222Y-72952255D01*
X111673221Y-72952251D01*
X111673221Y-72952250D01*
X111602549Y-72734744D01*
X111602548Y-72734742D01*
X111498717Y-72530962D01*
X111364286Y-72345934D01*
X111202566Y-72184214D01*
X111017538Y-72049783D01*
X110926112Y-72003199D01*
X110813755Y-71945950D01*
X110596248Y-71875278D01*
X110410812Y-71845908D01*
X110370354Y-71839500D01*
X110141646Y-71839500D01*
X110101188Y-71845908D01*
X109915753Y-71875278D01*
X109915750Y-71875278D01*
X109698244Y-71945950D01*
X109494461Y-72049783D01*
X109390194Y-72125538D01*
X109309434Y-72184214D01*
X109309432Y-72184216D01*
X109309431Y-72184216D01*
X109147715Y-72345932D01*
X109086318Y-72430438D01*
X109030987Y-72473103D01*
X108961374Y-72479082D01*
X108899579Y-72446476D01*
X108885682Y-72430438D01*
X108874773Y-72415423D01*
X108824286Y-72345934D01*
X108662566Y-72184214D01*
X108477538Y-72049783D01*
X108386112Y-72003199D01*
X108273755Y-71945950D01*
X108056248Y-71875278D01*
X107870812Y-71845908D01*
X107830354Y-71839500D01*
X107601646Y-71839500D01*
X107561188Y-71845908D01*
X107375753Y-71875278D01*
X107375750Y-71875278D01*
X107158244Y-71945950D01*
X106954461Y-72049783D01*
X106850194Y-72125538D01*
X106794113Y-72166284D01*
X106771759Y-72182525D01*
X106705952Y-72206005D01*
X106637898Y-72190180D01*
X106589203Y-72140074D01*
X106582690Y-72125538D01*
X106577827Y-72112500D01*
X106572296Y-72097669D01*
X106572293Y-72097664D01*
X106486047Y-71982455D01*
X106486044Y-71982452D01*
X106370835Y-71896206D01*
X106370828Y-71896202D01*
X106235982Y-71845908D01*
X106235983Y-71845908D01*
X106176383Y-71839501D01*
X106176381Y-71839500D01*
X106176373Y-71839500D01*
X106176364Y-71839500D01*
X104175629Y-71839500D01*
X104175623Y-71839501D01*
X104116016Y-71845908D01*
X103981171Y-71896202D01*
X103981164Y-71896206D01*
X103865955Y-71982452D01*
X103865952Y-71982455D01*
X103779706Y-72097664D01*
X103779702Y-72097671D01*
X103729408Y-72232517D01*
X103723001Y-72292116D01*
X103723000Y-72292135D01*
X102250000Y-72292135D01*
X102250000Y-72112500D01*
X100748000Y-72112500D01*
X100748000Y-73614500D01*
X99750000Y-73614500D01*
X99750000Y-72112500D01*
X99124000Y-72112500D01*
X99124000Y-73614500D01*
X98000000Y-73614500D01*
X98000000Y-71279552D01*
X117926000Y-71279552D01*
X117926000Y-71468447D01*
X117955548Y-71655002D01*
X118013914Y-71834637D01*
X118099666Y-72002933D01*
X118118116Y-72028328D01*
X118772446Y-71374000D01*
X118772446Y-71373999D01*
X118726369Y-71327922D01*
X118776000Y-71327922D01*
X118776000Y-71420078D01*
X118799852Y-71509095D01*
X118845930Y-71588905D01*
X118911095Y-71654070D01*
X118990905Y-71700148D01*
X119079922Y-71724000D01*
X119172078Y-71724000D01*
X119261095Y-71700148D01*
X119340905Y-71654070D01*
X119406070Y-71588905D01*
X119452148Y-71509095D01*
X119476000Y-71420078D01*
X119476000Y-71373999D01*
X119479554Y-71373999D01*
X119479554Y-71374000D01*
X120133882Y-72028328D01*
X120133883Y-72028328D01*
X120152331Y-72002937D01*
X120238085Y-71834637D01*
X120296451Y-71655002D01*
X120326000Y-71468447D01*
X120326000Y-71279552D01*
X120325994Y-71279513D01*
X125545500Y-71279513D01*
X125545500Y-71468486D01*
X125575059Y-71655118D01*
X125633454Y-71834836D01*
X125690070Y-71945950D01*
X125719240Y-72003199D01*
X125830310Y-72156073D01*
X125963927Y-72289690D01*
X126116801Y-72400760D01*
X126175048Y-72430438D01*
X126285163Y-72486545D01*
X126285165Y-72486545D01*
X126285168Y-72486547D01*
X126337344Y-72503500D01*
X126464881Y-72544940D01*
X126651514Y-72574500D01*
X126651519Y-72574500D01*
X126840486Y-72574500D01*
X127027118Y-72544940D01*
X127038884Y-72541117D01*
X127206832Y-72486547D01*
X127375199Y-72400760D01*
X127528073Y-72289690D01*
X127661690Y-72156073D01*
X127772760Y-72003199D01*
X127858547Y-71834832D01*
X127916940Y-71655118D01*
X127927427Y-71588905D01*
X127946500Y-71468486D01*
X127946500Y-71279513D01*
X127916940Y-71092881D01*
X127860327Y-70918647D01*
X127858547Y-70913168D01*
X127858545Y-70913165D01*
X127858545Y-70913163D01*
X127813290Y-70824347D01*
X127772760Y-70744801D01*
X127661690Y-70591927D01*
X127528073Y-70458310D01*
X127375199Y-70347240D01*
X127206836Y-70261454D01*
X127027118Y-70203059D01*
X126840486Y-70173500D01*
X126840481Y-70173500D01*
X126651519Y-70173500D01*
X126651514Y-70173500D01*
X126464881Y-70203059D01*
X126285163Y-70261454D01*
X126116800Y-70347240D01*
X126029579Y-70410610D01*
X125963927Y-70458310D01*
X125963925Y-70458312D01*
X125963924Y-70458312D01*
X125830312Y-70591924D01*
X125830312Y-70591925D01*
X125830310Y-70591927D01*
X125782610Y-70657579D01*
X125719240Y-70744800D01*
X125633454Y-70913163D01*
X125575059Y-71092881D01*
X125545500Y-71279513D01*
X120325994Y-71279513D01*
X120296451Y-71092997D01*
X120238085Y-70913362D01*
X120152329Y-70745059D01*
X120133883Y-70719670D01*
X120133882Y-70719669D01*
X119479554Y-71373999D01*
X119476000Y-71373999D01*
X119476000Y-71327922D01*
X119452148Y-71238905D01*
X119406070Y-71159095D01*
X119340905Y-71093930D01*
X119261095Y-71047852D01*
X119172078Y-71024000D01*
X119079922Y-71024000D01*
X118990905Y-71047852D01*
X118911095Y-71093930D01*
X118845930Y-71159095D01*
X118799852Y-71238905D01*
X118776000Y-71327922D01*
X118726369Y-71327922D01*
X118118116Y-70719669D01*
X118118116Y-70719670D01*
X118099669Y-70745060D01*
X118013914Y-70913362D01*
X117955548Y-71092997D01*
X117926000Y-71279552D01*
X98000000Y-71279552D01*
X98000000Y-71114500D01*
X99124000Y-71114500D01*
X99750000Y-71114500D01*
X100748000Y-71114500D01*
X102250000Y-71114500D01*
X103248000Y-71114500D01*
X103360066Y-71114500D01*
X103411626Y-71075902D01*
X103418896Y-71070854D01*
X103463963Y-71041890D01*
X103471577Y-71037372D01*
X103534167Y-71003195D01*
X103542081Y-70999233D01*
X103590818Y-70976975D01*
X103598998Y-70973587D01*
X103796482Y-70899931D01*
X103803821Y-70897452D01*
X103848672Y-70883847D01*
X103856148Y-70881832D01*
X103916863Y-70867484D01*
X103924455Y-70865939D01*
X103970660Y-70858028D01*
X103978333Y-70856959D01*
X104082256Y-70845788D01*
X104085561Y-70845478D01*
X104105601Y-70843865D01*
X104108922Y-70843642D01*
X104135605Y-70842214D01*
X104138918Y-70842081D01*
X104158966Y-70841545D01*
X104162280Y-70841501D01*
X104750000Y-70841500D01*
X105748000Y-70841500D01*
X106189748Y-70841500D01*
X106193072Y-70841545D01*
X106213174Y-70842084D01*
X106216494Y-70842217D01*
X106243180Y-70843649D01*
X106246489Y-70843871D01*
X106266482Y-70845481D01*
X106269785Y-70845792D01*
X106373675Y-70856962D01*
X106381343Y-70858029D01*
X106427529Y-70865936D01*
X106435119Y-70867481D01*
X106495830Y-70881826D01*
X106503309Y-70883842D01*
X106548172Y-70897450D01*
X106555512Y-70899929D01*
X106753002Y-70973587D01*
X106761182Y-70976975D01*
X106809919Y-70999233D01*
X106817833Y-71003195D01*
X106822738Y-71005873D01*
X106826595Y-71004451D01*
X106831198Y-71002855D01*
X107086010Y-70920062D01*
X107090674Y-70918647D01*
X107119051Y-70910645D01*
X107123768Y-70909415D01*
X107161886Y-70900267D01*
X107166637Y-70899225D01*
X107184000Y-70895772D01*
X108248000Y-70895772D01*
X108265363Y-70899225D01*
X108270114Y-70900267D01*
X108308232Y-70909415D01*
X108312949Y-70910645D01*
X108341326Y-70918647D01*
X108345990Y-70920062D01*
X108600802Y-71002855D01*
X108605405Y-71004451D01*
X108633049Y-71014650D01*
X108637583Y-71016425D01*
X108673799Y-71031427D01*
X108678260Y-71033378D01*
X108705002Y-71045707D01*
X108709381Y-71047831D01*
X108840226Y-71114500D01*
X109131774Y-71114500D01*
X109262619Y-71047831D01*
X109266998Y-71045707D01*
X109293740Y-71033378D01*
X109298201Y-71031427D01*
X109334417Y-71016425D01*
X109338951Y-71014650D01*
X109366595Y-71004451D01*
X109371198Y-71002855D01*
X109626010Y-70920062D01*
X109630674Y-70918647D01*
X109659051Y-70910645D01*
X109663768Y-70909415D01*
X109701886Y-70900267D01*
X109706637Y-70899225D01*
X109735500Y-70893485D01*
X109740288Y-70892630D01*
X109750000Y-70891091D01*
X109750000Y-70888874D01*
X110748000Y-70888874D01*
X110771713Y-70892630D01*
X110776500Y-70893485D01*
X110805363Y-70899225D01*
X110810114Y-70900267D01*
X110848232Y-70909415D01*
X110852949Y-70910645D01*
X110881326Y-70918647D01*
X110885990Y-70920062D01*
X111140802Y-71002855D01*
X111145405Y-71004451D01*
X111173049Y-71014650D01*
X111177583Y-71016425D01*
X111213799Y-71031427D01*
X111218260Y-71033378D01*
X111245002Y-71045707D01*
X111249381Y-71047831D01*
X111380226Y-71114500D01*
X112250000Y-71114500D01*
X113248000Y-71114500D01*
X114750000Y-71114500D01*
X115748000Y-71114500D01*
X116941702Y-71114500D01*
X116972901Y-70917525D01*
X116973756Y-70912736D01*
X116979498Y-70883865D01*
X116980540Y-70879114D01*
X116989688Y-70840999D01*
X116990919Y-70836282D01*
X116998919Y-70807914D01*
X117000333Y-70803252D01*
X117070819Y-70586317D01*
X117072415Y-70581716D01*
X117082614Y-70554071D01*
X117084388Y-70549536D01*
X117099390Y-70513319D01*
X117101343Y-70508856D01*
X117113673Y-70482112D01*
X117115796Y-70477734D01*
X117172669Y-70366116D01*
X118471669Y-70366116D01*
X119126000Y-71020446D01*
X119126001Y-71020446D01*
X119780328Y-70366116D01*
X119754933Y-70347666D01*
X119586637Y-70261914D01*
X119407002Y-70203548D01*
X119220447Y-70174000D01*
X119031553Y-70174000D01*
X118844997Y-70203548D01*
X118665362Y-70261914D01*
X118497060Y-70347669D01*
X118471670Y-70366116D01*
X118471669Y-70366116D01*
X117172669Y-70366116D01*
X117219339Y-70274522D01*
X117221634Y-70270229D01*
X117236017Y-70244546D01*
X117238476Y-70240350D01*
X117250000Y-70221542D01*
X117250000Y-69905370D01*
X120748000Y-69905370D01*
X120771233Y-69918382D01*
X120810961Y-69953686D01*
X120971255Y-70174314D01*
X120974041Y-70178311D01*
X120990407Y-70202806D01*
X120993031Y-70206906D01*
X121013512Y-70240329D01*
X121015973Y-70244528D01*
X121030363Y-70270223D01*
X121032659Y-70274517D01*
X121136205Y-70477735D01*
X121138330Y-70482117D01*
X121150659Y-70508861D01*
X121152609Y-70513319D01*
X121167611Y-70549535D01*
X121169386Y-70554071D01*
X121179585Y-70581716D01*
X121181181Y-70586317D01*
X121251667Y-70803252D01*
X121253081Y-70807914D01*
X121261081Y-70836282D01*
X121262312Y-70840999D01*
X121271460Y-70879114D01*
X121272502Y-70883865D01*
X121278244Y-70912736D01*
X121279099Y-70917525D01*
X121310298Y-71114500D01*
X122250000Y-71114500D01*
X123248000Y-71114500D01*
X124561196Y-71114500D01*
X124592412Y-70917414D01*
X124593267Y-70912625D01*
X124599007Y-70883763D01*
X124600049Y-70879013D01*
X124609197Y-70840894D01*
X124610427Y-70836176D01*
X124618430Y-70807796D01*
X124619845Y-70803132D01*
X124690353Y-70586136D01*
X124691947Y-70581541D01*
X124702131Y-70553933D01*
X124703903Y-70549403D01*
X124718901Y-70513187D01*
X124720856Y-70508719D01*
X124733199Y-70481944D01*
X124735324Y-70477562D01*
X124750000Y-70448758D01*
X124750000Y-69766853D01*
X128248000Y-69766853D01*
X128381240Y-69900093D01*
X128384614Y-69903602D01*
X128404607Y-69925230D01*
X128407842Y-69928870D01*
X128433300Y-69958677D01*
X128436388Y-69962440D01*
X128454625Y-69985573D01*
X128457565Y-69989456D01*
X128591680Y-70174047D01*
X128594466Y-70178045D01*
X128610834Y-70202543D01*
X128613458Y-70206642D01*
X128633940Y-70240066D01*
X128636401Y-70244264D01*
X128650792Y-70269960D01*
X128653088Y-70274257D01*
X128756676Y-70477562D01*
X128758801Y-70481944D01*
X128771144Y-70508719D01*
X128773099Y-70513187D01*
X128788097Y-70549403D01*
X128789869Y-70553933D01*
X128800053Y-70581541D01*
X128801647Y-70586136D01*
X128872155Y-70803132D01*
X128873570Y-70807796D01*
X128881573Y-70836176D01*
X128882803Y-70840894D01*
X128891951Y-70879013D01*
X128892993Y-70883763D01*
X128898733Y-70912625D01*
X128899588Y-70917414D01*
X128930804Y-71114500D01*
X129750000Y-71114500D01*
X130748000Y-71114500D01*
X132250000Y-71114500D01*
X132250000Y-69612500D01*
X130748000Y-69612500D01*
X130748000Y-71114500D01*
X129750000Y-71114500D01*
X129750000Y-69612500D01*
X128248000Y-69612500D01*
X128248000Y-69766853D01*
X124750000Y-69766853D01*
X124750000Y-69612500D01*
X123248000Y-69612500D01*
X123248000Y-71114500D01*
X122250000Y-71114500D01*
X122250000Y-69612500D01*
X120748000Y-69612500D01*
X120748000Y-69905370D01*
X117250000Y-69905370D01*
X117250000Y-69612500D01*
X115748000Y-69612500D01*
X115748000Y-71114500D01*
X114750000Y-71114500D01*
X114750000Y-69612500D01*
X113248000Y-69612500D01*
X113248000Y-71114500D01*
X112250000Y-71114500D01*
X112250000Y-69612500D01*
X110748000Y-69612500D01*
X110748000Y-70888874D01*
X109750000Y-70888874D01*
X109750000Y-69612500D01*
X108248000Y-69612500D01*
X108248000Y-70895772D01*
X107184000Y-70895772D01*
X107195500Y-70893485D01*
X107200287Y-70892630D01*
X107250000Y-70884755D01*
X107250000Y-69612500D01*
X105748000Y-69612500D01*
X105748000Y-70841500D01*
X104750000Y-70841500D01*
X104750000Y-69612500D01*
X103248000Y-69612500D01*
X103248000Y-71114500D01*
X102250000Y-71114500D01*
X102250000Y-69612500D01*
X100748000Y-69612500D01*
X100748000Y-71114500D01*
X99750000Y-71114500D01*
X99750000Y-69612500D01*
X99124000Y-69612500D01*
X99124000Y-71114500D01*
X98000000Y-71114500D01*
X98000000Y-68614500D01*
X99124000Y-68614500D01*
X99750000Y-68614500D01*
X100748000Y-68614500D01*
X102250000Y-68614500D01*
X103248000Y-68614500D01*
X104750000Y-68614500D01*
X105748000Y-68614500D01*
X107250000Y-68614500D01*
X108248000Y-68614500D01*
X109750000Y-68614500D01*
X109750000Y-67763999D01*
X109523454Y-67763999D01*
X109475999Y-67754559D01*
X109474001Y-67753731D01*
X109472004Y-67754559D01*
X109424549Y-67763999D01*
X108493851Y-67764000D01*
X108490574Y-67763957D01*
X108467385Y-67763344D01*
X108464083Y-67763212D01*
X108382696Y-67758888D01*
X108378435Y-67758588D01*
X108352705Y-67756330D01*
X108348461Y-67755884D01*
X108314288Y-67751696D01*
X108310044Y-67751101D01*
X108284448Y-67747062D01*
X108280230Y-67746322D01*
X108248000Y-67740088D01*
X108248000Y-68614500D01*
X107250000Y-68614500D01*
X107250000Y-67730805D01*
X110748000Y-67730805D01*
X110748000Y-68614500D01*
X112250000Y-68614500D01*
X113248000Y-68614500D01*
X114750000Y-68614500D01*
X115748000Y-68614500D01*
X117250000Y-68614500D01*
X118248000Y-68614500D01*
X119750000Y-68614500D01*
X120748000Y-68614500D01*
X122250000Y-68614500D01*
X123248000Y-68614500D01*
X124750000Y-68614500D01*
X125748000Y-68614500D01*
X127250000Y-68614500D01*
X128248000Y-68614500D01*
X129750000Y-68614500D01*
X130748000Y-68614500D01*
X132250000Y-68614500D01*
X132250000Y-67112500D01*
X130748000Y-67112500D01*
X130748000Y-68614500D01*
X129750000Y-68614500D01*
X129750000Y-67112500D01*
X128248000Y-67112500D01*
X128248000Y-68614500D01*
X127250000Y-68614500D01*
X127250000Y-67112500D01*
X125748000Y-67112500D01*
X125748000Y-68614500D01*
X124750000Y-68614500D01*
X124750000Y-67112500D01*
X123248000Y-67112500D01*
X123248000Y-68614500D01*
X122250000Y-68614500D01*
X122250000Y-67112500D01*
X120748000Y-67112500D01*
X120748000Y-68614500D01*
X119750000Y-68614500D01*
X119750000Y-67112500D01*
X118248000Y-67112500D01*
X118248000Y-68614500D01*
X117250000Y-68614500D01*
X117250000Y-67112500D01*
X115748000Y-67112500D01*
X115748000Y-68614500D01*
X114750000Y-68614500D01*
X114750000Y-67112500D01*
X113248000Y-67112500D01*
X113248000Y-68614500D01*
X112250000Y-68614500D01*
X112250000Y-67112500D01*
X111988404Y-67112500D01*
X111988243Y-67112648D01*
X111984290Y-67116127D01*
X111772942Y-67294319D01*
X111768847Y-67297625D01*
X111743648Y-67317103D01*
X111739414Y-67320235D01*
X111704813Y-67344706D01*
X111700455Y-67347651D01*
X111673703Y-67364917D01*
X111669219Y-67367678D01*
X111430802Y-67507586D01*
X111426208Y-67510152D01*
X111398086Y-67525088D01*
X111393386Y-67527458D01*
X111355147Y-67545731D01*
X111350348Y-67547901D01*
X111321055Y-67560400D01*
X111316172Y-67562362D01*
X111057531Y-67659969D01*
X111052566Y-67661723D01*
X111022312Y-67671695D01*
X111017278Y-67673236D01*
X110976502Y-67684782D01*
X110971407Y-67686109D01*
X110940436Y-67693474D01*
X110935294Y-67694582D01*
X110748000Y-67730805D01*
X107250000Y-67730805D01*
X107250000Y-67349235D01*
X107247545Y-67347651D01*
X107243187Y-67344706D01*
X107208586Y-67320235D01*
X107204352Y-67317103D01*
X107179153Y-67297625D01*
X107175058Y-67294319D01*
X106963710Y-67116127D01*
X106959757Y-67112648D01*
X106959596Y-67112500D01*
X105748000Y-67112500D01*
X105748000Y-68614500D01*
X104750000Y-68614500D01*
X104750000Y-67112500D01*
X103248000Y-67112500D01*
X103248000Y-68614500D01*
X102250000Y-68614500D01*
X102250000Y-67112500D01*
X100748000Y-67112500D01*
X100748000Y-68614500D01*
X99750000Y-68614500D01*
X99750000Y-67112500D01*
X99124000Y-67112500D01*
X99124000Y-68614500D01*
X98000000Y-68614500D01*
X98000000Y-66114500D01*
X99124000Y-66114500D01*
X99750000Y-66114500D01*
X100748000Y-66114500D01*
X102250000Y-66114500D01*
X103248000Y-66114500D01*
X104750000Y-66114500D01*
X105748000Y-66114500D01*
X106335680Y-66114500D01*
X106330031Y-66099531D01*
X106328277Y-66094566D01*
X106318305Y-66064312D01*
X106316764Y-66059278D01*
X106305218Y-66018502D01*
X106303891Y-66013407D01*
X106296526Y-65982436D01*
X106295418Y-65977294D01*
X106243681Y-65709786D01*
X106242941Y-65705573D01*
X106238906Y-65680009D01*
X106238312Y-65675771D01*
X106234120Y-65641591D01*
X106233673Y-65637337D01*
X106231411Y-65611562D01*
X106231110Y-65607296D01*
X106226788Y-65525901D01*
X106226657Y-65522605D01*
X106226044Y-65499431D01*
X106226001Y-65496152D01*
X106226001Y-64612500D01*
X105748000Y-64612500D01*
X105748000Y-66114500D01*
X104750000Y-66114500D01*
X104750000Y-64612500D01*
X103248000Y-64612500D01*
X103248000Y-66114500D01*
X102250000Y-66114500D01*
X102250000Y-64612500D01*
X100748000Y-64612500D01*
X100748000Y-66114500D01*
X99750000Y-66114500D01*
X99750000Y-64612500D01*
X99124000Y-64612500D01*
X99124000Y-66114500D01*
X98000000Y-66114500D01*
X98000000Y-63614500D01*
X99124000Y-63614500D01*
X99750000Y-63614500D01*
X100748000Y-63614500D01*
X102250000Y-63614500D01*
X103248000Y-63614500D01*
X104750000Y-63614500D01*
X104750000Y-62842620D01*
X104671494Y-62806962D01*
X104666478Y-62804547D01*
X104636483Y-62789263D01*
X104631587Y-62786628D01*
X104592621Y-62764519D01*
X104587842Y-62761664D01*
X104559337Y-62743753D01*
X104554693Y-62740687D01*
X104332901Y-62587030D01*
X104328397Y-62583758D01*
X104301595Y-62563350D01*
X104297241Y-62559877D01*
X104262850Y-62531162D01*
X104258661Y-62527503D01*
X104233827Y-62504802D01*
X104229809Y-62500959D01*
X104039041Y-62310191D01*
X104035198Y-62306173D01*
X104012497Y-62281339D01*
X104008838Y-62277150D01*
X103980123Y-62242759D01*
X103976650Y-62238405D01*
X103956242Y-62211603D01*
X103952969Y-62207099D01*
X103887431Y-62112500D01*
X103248000Y-62112500D01*
X103248000Y-63614500D01*
X102250000Y-63614500D01*
X102250000Y-62112500D01*
X100748000Y-62112500D01*
X100748000Y-63614500D01*
X99750000Y-63614500D01*
X99750000Y-62112500D01*
X99124000Y-62112500D01*
X99124000Y-63614500D01*
X98000000Y-63614500D01*
X98000000Y-61114500D01*
X99124000Y-61114500D01*
X99750000Y-61114500D01*
X100748000Y-61114500D01*
X102250000Y-61114500D01*
X102250000Y-59612500D01*
X100748000Y-59612500D01*
X100748000Y-61114500D01*
X99750000Y-61114500D01*
X99750000Y-59612500D01*
X99124000Y-59612500D01*
X99124000Y-61114500D01*
X98000000Y-61114500D01*
X98000000Y-58751803D01*
X104474000Y-58751803D01*
X104474000Y-59566000D01*
X105974000Y-59566000D01*
X105974000Y-60066000D01*
X104474001Y-60066000D01*
X104474001Y-60880197D01*
X104484400Y-61012332D01*
X104539377Y-61230519D01*
X104632428Y-61435374D01*
X104632431Y-61435380D01*
X104760559Y-61620323D01*
X104760569Y-61620335D01*
X104919664Y-61779430D01*
X104919676Y-61779440D01*
X105104619Y-61907568D01*
X105104625Y-61907571D01*
X105309480Y-62000622D01*
X105527667Y-62055599D01*
X105659810Y-62065999D01*
X106223999Y-62065999D01*
X106224000Y-62065998D01*
X106224000Y-61249012D01*
X106281007Y-61281925D01*
X106408174Y-61316000D01*
X106539826Y-61316000D01*
X106666993Y-61281925D01*
X106724000Y-61249012D01*
X106724000Y-62065999D01*
X107288182Y-62065999D01*
X107288197Y-62065998D01*
X107420332Y-62055599D01*
X107638519Y-62000622D01*
X107843374Y-61907571D01*
X107843380Y-61907568D01*
X108028323Y-61779440D01*
X108028335Y-61779430D01*
X108187430Y-61620335D01*
X108187440Y-61620323D01*
X108315568Y-61435380D01*
X108315571Y-61435374D01*
X108408622Y-61230519D01*
X108463599Y-61012332D01*
X108473999Y-60880196D01*
X108474000Y-60880184D01*
X108474000Y-60066000D01*
X106974000Y-60066000D01*
X106974000Y-59566000D01*
X108473999Y-59566000D01*
X108473999Y-58751817D01*
X108473998Y-58751802D01*
X108463599Y-58619667D01*
X108408622Y-58401480D01*
X108315571Y-58196625D01*
X108315568Y-58196619D01*
X108187440Y-58011676D01*
X108187430Y-58011664D01*
X108028335Y-57852569D01*
X108028323Y-57852559D01*
X107843380Y-57724431D01*
X107843374Y-57724428D01*
X107638519Y-57631377D01*
X107420332Y-57576400D01*
X107288196Y-57566000D01*
X106724000Y-57566000D01*
X106724000Y-58382988D01*
X106666993Y-58350075D01*
X106539826Y-58316000D01*
X106408174Y-58316000D01*
X106281007Y-58350075D01*
X106224000Y-58382988D01*
X106224000Y-57566000D01*
X105659817Y-57566000D01*
X105659802Y-57566001D01*
X105527667Y-57576400D01*
X105309480Y-57631377D01*
X105104625Y-57724428D01*
X105104619Y-57724431D01*
X104919676Y-57852559D01*
X104919664Y-57852569D01*
X104760569Y-58011664D01*
X104760559Y-58011676D01*
X104632431Y-58196619D01*
X104632428Y-58196625D01*
X104539377Y-58401480D01*
X104484400Y-58619667D01*
X104474000Y-58751803D01*
X98000000Y-58751803D01*
X98000000Y-58614500D01*
X99124000Y-58614500D01*
X99750000Y-58614500D01*
X100748000Y-58614500D01*
X102250000Y-58614500D01*
X103248000Y-58614500D01*
X103483720Y-58614500D01*
X103491124Y-58520429D01*
X103491643Y-58515237D01*
X103495440Y-58483912D01*
X103496176Y-58478751D01*
X103502978Y-58437305D01*
X103503931Y-58432174D01*
X103510349Y-58401269D01*
X103511517Y-58396184D01*
X103577101Y-58135906D01*
X103578582Y-58130541D01*
X103588268Y-58098286D01*
X103589988Y-58092992D01*
X103604787Y-58050702D01*
X103606742Y-58045494D01*
X103619272Y-58014258D01*
X103621459Y-58009142D01*
X103733038Y-57763494D01*
X103735453Y-57758478D01*
X103750737Y-57728483D01*
X103753372Y-57723587D01*
X103775481Y-57684621D01*
X103778336Y-57679842D01*
X103796247Y-57651337D01*
X103799313Y-57646693D01*
X103952970Y-57424901D01*
X103956242Y-57420397D01*
X103976650Y-57393595D01*
X103980123Y-57389241D01*
X104008838Y-57354850D01*
X104012497Y-57350661D01*
X104035198Y-57325827D01*
X104039041Y-57321809D01*
X104229809Y-57131041D01*
X104233827Y-57127198D01*
X104249906Y-57112500D01*
X103248000Y-57112500D01*
X103248000Y-58614500D01*
X102250000Y-58614500D01*
X102250000Y-57112500D01*
X100748000Y-57112500D01*
X100748000Y-58614500D01*
X99750000Y-58614500D01*
X99750000Y-57112500D01*
X99124000Y-57112500D01*
X99124000Y-58614500D01*
X98000000Y-58614500D01*
X98000000Y-56114500D01*
X99124000Y-56114500D01*
X99750000Y-56114500D01*
X100748000Y-56114500D01*
X102250000Y-56114500D01*
X102250000Y-55339336D01*
X102100778Y-55401145D01*
X102095101Y-55403335D01*
X102060440Y-55415737D01*
X102054662Y-55417646D01*
X102007767Y-55431872D01*
X102001903Y-55433495D01*
X101966177Y-55442445D01*
X101960235Y-55443779D01*
X101757508Y-55484104D01*
X101751511Y-55485145D01*
X101715080Y-55490549D01*
X101709039Y-55491294D01*
X101660267Y-55496097D01*
X101654197Y-55496545D01*
X101617425Y-55498351D01*
X101611342Y-55498500D01*
X101404658Y-55498500D01*
X101398575Y-55498351D01*
X101361803Y-55496545D01*
X101355733Y-55496097D01*
X101306961Y-55491294D01*
X101300920Y-55490549D01*
X101264489Y-55485145D01*
X101258492Y-55484104D01*
X101055765Y-55443779D01*
X101049823Y-55442445D01*
X101014097Y-55433495D01*
X101008233Y-55431872D01*
X100961338Y-55417646D01*
X100955560Y-55415737D01*
X100920899Y-55403335D01*
X100915222Y-55401145D01*
X100748000Y-55331880D01*
X100748000Y-56114500D01*
X99750000Y-56114500D01*
X99750000Y-55273486D01*
X103248000Y-55273486D01*
X103248000Y-56114500D01*
X104750000Y-56114500D01*
X105748000Y-56114500D01*
X107250000Y-56114500D01*
X108248000Y-56114500D01*
X109750000Y-56114500D01*
X109750000Y-54612500D01*
X108248000Y-54612500D01*
X108248000Y-56114500D01*
X107250000Y-56114500D01*
X107250000Y-54612500D01*
X105748000Y-54612500D01*
X105748000Y-56114500D01*
X104750000Y-56114500D01*
X104750000Y-54612500D01*
X104292616Y-54612500D01*
X104183692Y-54721423D01*
X104183672Y-54721449D01*
X104123449Y-54781671D01*
X104119542Y-54811353D01*
X104091277Y-54875250D01*
X104058604Y-54902557D01*
X103840565Y-55028444D01*
X103840508Y-55028480D01*
X103769704Y-55069356D01*
X103769703Y-55069355D01*
X103646984Y-55140210D01*
X103639826Y-55144037D01*
X103595769Y-55165763D01*
X103588374Y-55169113D01*
X103527987Y-55194123D01*
X103520396Y-55196980D01*
X103473911Y-55212759D01*
X103466148Y-55215114D01*
X103250299Y-55272951D01*
X103248000Y-55273486D01*
X99750000Y-55273486D01*
X99750000Y-54612500D01*
X99124000Y-54612500D01*
X99124000Y-56114500D01*
X98000000Y-56114500D01*
X98000000Y-53614500D01*
X99124000Y-53614500D01*
X99709500Y-53614500D01*
X99709500Y-53596658D01*
X99709649Y-53590575D01*
X99711455Y-53553803D01*
X99711903Y-53547733D01*
X99716706Y-53498961D01*
X99717451Y-53492920D01*
X99722855Y-53456489D01*
X99723896Y-53450492D01*
X99750000Y-53319258D01*
X99750000Y-52112500D01*
X99124000Y-52112500D01*
X99124000Y-53614500D01*
X98000000Y-53614500D01*
X98000000Y-51114500D01*
X99124000Y-51114500D01*
X99750000Y-51114500D01*
X100748000Y-51114500D01*
X102250000Y-51114500D01*
X103248000Y-51114500D01*
X103269380Y-51114500D01*
X104750000Y-49633878D01*
X104750000Y-49612500D01*
X103248000Y-49612500D01*
X103248000Y-51114500D01*
X102250000Y-51114500D01*
X102250000Y-49612500D01*
X100748000Y-49612500D01*
X100748000Y-51114500D01*
X99750000Y-51114500D01*
X99750000Y-49612500D01*
X99124000Y-49612500D01*
X99124000Y-51114500D01*
X98000000Y-51114500D01*
X98000000Y-48614500D01*
X99124000Y-48614500D01*
X99750000Y-48614500D01*
X99750000Y-47523925D01*
X99735562Y-47479490D01*
X99734147Y-47474826D01*
X99726145Y-47446449D01*
X99724915Y-47441732D01*
X99715767Y-47403614D01*
X99714725Y-47398863D01*
X99708985Y-47370000D01*
X99708130Y-47365212D01*
X99668104Y-47112500D01*
X99124000Y-47112500D01*
X99124000Y-48614500D01*
X98000000Y-48614500D01*
X98000000Y-46640146D01*
X100655000Y-46640146D01*
X100655000Y-46963853D01*
X100690778Y-47189746D01*
X100690778Y-47189749D01*
X100761450Y-47407255D01*
X100801503Y-47485863D01*
X100865283Y-47611038D01*
X100999714Y-47796066D01*
X101161434Y-47957786D01*
X101346462Y-48092217D01*
X101478599Y-48159544D01*
X101550244Y-48196049D01*
X101767751Y-48266721D01*
X101767752Y-48266721D01*
X101767755Y-48266722D01*
X101993646Y-48302500D01*
X101993647Y-48302500D01*
X102222353Y-48302500D01*
X102222354Y-48302500D01*
X102448245Y-48266722D01*
X102448248Y-48266721D01*
X102448249Y-48266721D01*
X102665755Y-48196049D01*
X102665755Y-48196048D01*
X102665758Y-48196048D01*
X102869538Y-48092217D01*
X103054566Y-47957786D01*
X103216286Y-47796066D01*
X103277992Y-47711134D01*
X103333319Y-47668470D01*
X103402932Y-47662491D01*
X103464727Y-47695096D01*
X103478626Y-47711135D01*
X103540097Y-47795741D01*
X103540097Y-47795742D01*
X103701757Y-47957402D01*
X103886723Y-48091788D01*
X104090429Y-48195582D01*
X104307871Y-48266234D01*
X104398000Y-48280509D01*
X104398000Y-47292747D01*
X104435708Y-47314518D01*
X104575591Y-47352000D01*
X104720409Y-47352000D01*
X104860292Y-47314518D01*
X104898000Y-47292747D01*
X104898000Y-48280508D01*
X104988128Y-48266234D01*
X105205570Y-48195582D01*
X105409276Y-48091788D01*
X105592059Y-47958988D01*
X105657865Y-47935508D01*
X105725919Y-47951333D01*
X105774614Y-48001439D01*
X105781127Y-48015974D01*
X105791701Y-48044326D01*
X105791706Y-48044335D01*
X105877952Y-48159544D01*
X105877955Y-48159547D01*
X105993164Y-48245793D01*
X105993171Y-48245797D01*
X106128017Y-48296091D01*
X106128016Y-48296091D01*
X106134944Y-48296835D01*
X106187627Y-48302500D01*
X107193402Y-48302499D01*
X107260441Y-48322183D01*
X107306196Y-48374987D01*
X107316140Y-48444146D01*
X107287115Y-48507702D01*
X107281083Y-48514180D01*
X102732084Y-53063181D01*
X102670761Y-53096666D01*
X102644403Y-53099500D01*
X102087766Y-53099500D01*
X102020727Y-53079815D01*
X102018875Y-53078602D01*
X101887185Y-52990609D01*
X101887172Y-52990602D01*
X101741501Y-52930264D01*
X101741489Y-52930261D01*
X101586845Y-52899500D01*
X101586842Y-52899500D01*
X101429158Y-52899500D01*
X101429155Y-52899500D01*
X101274510Y-52930261D01*
X101274498Y-52930264D01*
X101128827Y-52990602D01*
X101128814Y-52990609D01*
X100997711Y-53078210D01*
X100997707Y-53078213D01*
X100886213Y-53189707D01*
X100886210Y-53189711D01*
X100798609Y-53320814D01*
X100798602Y-53320827D01*
X100738264Y-53466498D01*
X100738261Y-53466510D01*
X100707500Y-53621153D01*
X100707500Y-53778846D01*
X100738261Y-53933489D01*
X100738264Y-53933501D01*
X100798602Y-54079172D01*
X100798609Y-54079185D01*
X100886210Y-54210288D01*
X100886213Y-54210292D01*
X100997707Y-54321786D01*
X100997711Y-54321789D01*
X101128814Y-54409390D01*
X101128827Y-54409397D01*
X101274498Y-54469735D01*
X101274503Y-54469737D01*
X101429153Y-54500499D01*
X101429156Y-54500500D01*
X101429158Y-54500500D01*
X101586844Y-54500500D01*
X101586845Y-54500499D01*
X101741497Y-54469737D01*
X101887179Y-54409394D01*
X101887185Y-54409390D01*
X102018875Y-54321398D01*
X102085553Y-54300520D01*
X102087766Y-54300500D01*
X102857831Y-54300500D01*
X102857847Y-54300501D01*
X102865443Y-54300501D01*
X103023554Y-54300501D01*
X103023557Y-54300501D01*
X103176285Y-54259577D01*
X103239293Y-54223199D01*
X103313216Y-54180520D01*
X103425020Y-54068716D01*
X103425020Y-54068714D01*
X103435224Y-54058511D01*
X103435227Y-54058506D01*
X104336617Y-53157116D01*
X105748000Y-53157116D01*
X105748000Y-53614500D01*
X107250000Y-53614500D01*
X108248000Y-53614500D01*
X109750000Y-53614500D01*
X109750000Y-52112500D01*
X108248000Y-52112500D01*
X108248000Y-53614500D01*
X107250000Y-53614500D01*
X107250000Y-52112500D01*
X106792617Y-52112500D01*
X105748000Y-53157116D01*
X104336617Y-53157116D01*
X106836617Y-50657117D01*
X108248000Y-50657117D01*
X108248000Y-51114500D01*
X109750000Y-51114500D01*
X109750000Y-49612500D01*
X109292618Y-49612500D01*
X108248000Y-50657117D01*
X106836617Y-50657117D01*
X110474916Y-47018819D01*
X110536239Y-46985334D01*
X110562597Y-46982500D01*
X111525500Y-46982500D01*
X111592539Y-47002185D01*
X111638294Y-47054989D01*
X111649500Y-47106500D01*
X111649500Y-47166771D01*
X111682182Y-47331074D01*
X111682184Y-47331082D01*
X111746295Y-47485860D01*
X111802602Y-47570128D01*
X111823480Y-47636805D01*
X111823500Y-47639019D01*
X111823500Y-57441500D01*
X111803815Y-57508539D01*
X111751011Y-57554294D01*
X111699500Y-57565500D01*
X110676129Y-57565500D01*
X110676123Y-57565501D01*
X110616516Y-57571908D01*
X110481671Y-57622202D01*
X110481664Y-57622206D01*
X110366455Y-57708452D01*
X110366452Y-57708455D01*
X110280206Y-57823664D01*
X110280202Y-57823671D01*
X110229908Y-57958517D01*
X110223916Y-58014258D01*
X110223501Y-58018123D01*
X110223500Y-58018135D01*
X110223500Y-61613870D01*
X110223501Y-61613876D01*
X110229908Y-61673483D01*
X110280202Y-61808328D01*
X110280206Y-61808335D01*
X110366452Y-61923544D01*
X110366455Y-61923547D01*
X110481664Y-62009793D01*
X110481673Y-62009798D01*
X110530506Y-62028011D01*
X110586440Y-62069881D01*
X110610858Y-62135345D01*
X110596007Y-62203618D01*
X110546603Y-62253024D01*
X110480598Y-62268018D01*
X110442625Y-62266001D01*
X110442579Y-62266000D01*
X109724000Y-62266000D01*
X109724000Y-64016000D01*
X109224000Y-64016000D01*
X109224000Y-62266000D01*
X108505423Y-62266000D01*
X108505411Y-62266001D01*
X108452808Y-62268794D01*
X108223012Y-62313237D01*
X108004024Y-62395879D01*
X107802158Y-62514339D01*
X107802151Y-62514344D01*
X107623213Y-62665211D01*
X107623211Y-62665213D01*
X107472344Y-62844151D01*
X107472339Y-62844158D01*
X107353879Y-63046024D01*
X107271237Y-63265012D01*
X107226794Y-63494808D01*
X107226794Y-63494809D01*
X107224001Y-63547382D01*
X107224000Y-63547421D01*
X107224000Y-64266000D01*
X108040988Y-64266000D01*
X108008075Y-64323007D01*
X107974000Y-64450174D01*
X107974000Y-64581826D01*
X108008075Y-64708993D01*
X108040988Y-64766000D01*
X107224001Y-64766000D01*
X107224001Y-65484588D01*
X107226794Y-65537191D01*
X107271237Y-65766987D01*
X107353879Y-65985975D01*
X107472339Y-66187841D01*
X107472344Y-66187848D01*
X107623211Y-66366786D01*
X107623213Y-66366788D01*
X107802151Y-66517655D01*
X107802158Y-66517660D01*
X108004024Y-66636120D01*
X108223012Y-66718762D01*
X108452809Y-66763205D01*
X108505382Y-66765998D01*
X108505421Y-66765999D01*
X109223999Y-66765999D01*
X109224000Y-66765998D01*
X109224000Y-65016000D01*
X109724000Y-65016000D01*
X109724000Y-66765999D01*
X110442576Y-66765999D01*
X110442588Y-66765998D01*
X110495191Y-66763205D01*
X110724987Y-66718762D01*
X110943975Y-66636120D01*
X111145841Y-66517660D01*
X111145848Y-66517655D01*
X111324786Y-66366788D01*
X111324788Y-66366786D01*
X111475655Y-66187848D01*
X111475660Y-66187841D01*
X111518698Y-66114500D01*
X113248000Y-66114500D01*
X114750000Y-66114500D01*
X115748000Y-66114500D01*
X117250000Y-66114500D01*
X118248000Y-66114500D01*
X119750000Y-66114500D01*
X120748000Y-66114500D01*
X122250000Y-66114500D01*
X123248000Y-66114500D01*
X124750000Y-66114500D01*
X125748000Y-66114500D01*
X127250000Y-66114500D01*
X128248000Y-66114500D01*
X129750000Y-66114500D01*
X130748000Y-66114500D01*
X132250000Y-66114500D01*
X132250000Y-64612500D01*
X130748000Y-64612500D01*
X130748000Y-66114500D01*
X129750000Y-66114500D01*
X129750000Y-64612500D01*
X128248000Y-64612500D01*
X128248000Y-66114500D01*
X127250000Y-66114500D01*
X127250000Y-64612500D01*
X125748000Y-64612500D01*
X125748000Y-66114500D01*
X124750000Y-66114500D01*
X124750000Y-64612500D01*
X123248000Y-64612500D01*
X123248000Y-66114500D01*
X122250000Y-66114500D01*
X122250000Y-64612500D01*
X120748000Y-64612500D01*
X120748000Y-66114500D01*
X119750000Y-66114500D01*
X119750000Y-64612500D01*
X118248000Y-64612500D01*
X118248000Y-66114500D01*
X117250000Y-66114500D01*
X117250000Y-64612500D01*
X115748000Y-64612500D01*
X115748000Y-66114500D01*
X114750000Y-66114500D01*
X114750000Y-64612500D01*
X113248000Y-64612500D01*
X113248000Y-66114500D01*
X111518698Y-66114500D01*
X111594120Y-65985975D01*
X111676762Y-65766987D01*
X111721205Y-65537191D01*
X111721205Y-65537190D01*
X111723998Y-65484617D01*
X111724000Y-65484578D01*
X111724000Y-64766000D01*
X110907012Y-64766000D01*
X110939925Y-64708993D01*
X110974000Y-64581826D01*
X110974000Y-64450174D01*
X110939925Y-64323007D01*
X110907012Y-64266000D01*
X111723999Y-64266000D01*
X111723999Y-63547423D01*
X111723998Y-63547411D01*
X111721205Y-63494808D01*
X111676762Y-63265012D01*
X111601092Y-63064499D01*
X113248000Y-63064499D01*
X113248000Y-63614500D01*
X114750000Y-63614500D01*
X115748000Y-63614500D01*
X117250000Y-63614500D01*
X118248000Y-63614500D01*
X119750000Y-63614500D01*
X125748000Y-63614500D01*
X127250000Y-63614500D01*
X128248000Y-63614500D01*
X129750000Y-63614500D01*
X130748000Y-63614500D01*
X132250000Y-63614500D01*
X132250000Y-62112500D01*
X130748000Y-62112500D01*
X130748000Y-63614500D01*
X129750000Y-63614500D01*
X129750000Y-62112500D01*
X128248000Y-62112500D01*
X128248000Y-63614500D01*
X127250000Y-63614500D01*
X127250000Y-62112500D01*
X125748000Y-62112500D01*
X125748000Y-63614500D01*
X119750000Y-63614500D01*
X119750000Y-62112500D01*
X118248000Y-62112500D01*
X118248000Y-63614500D01*
X117250000Y-63614500D01*
X117250000Y-62112500D01*
X115748000Y-62112500D01*
X115748000Y-63614500D01*
X114750000Y-63614500D01*
X114750000Y-62969151D01*
X114651018Y-63006069D01*
X114643679Y-63008548D01*
X114598828Y-63022153D01*
X114591352Y-63024168D01*
X114530637Y-63038516D01*
X114523045Y-63040061D01*
X114476840Y-63047972D01*
X114469167Y-63049041D01*
X114365244Y-63060212D01*
X114361939Y-63060522D01*
X114341899Y-63062135D01*
X114338578Y-63062358D01*
X114311895Y-63063786D01*
X114308582Y-63063919D01*
X114288534Y-63064455D01*
X114285220Y-63064499D01*
X113248000Y-63064499D01*
X111601092Y-63064499D01*
X111594120Y-63046024D01*
X111475660Y-62844158D01*
X111475655Y-62844151D01*
X111324788Y-62665213D01*
X111324786Y-62665211D01*
X111145848Y-62514344D01*
X111145841Y-62514339D01*
X110943975Y-62395879D01*
X110724984Y-62313236D01*
X110719840Y-62312241D01*
X110657760Y-62280180D01*
X110622869Y-62219646D01*
X110626244Y-62149858D01*
X110666814Y-62092973D01*
X110731697Y-62067052D01*
X110743374Y-62066499D01*
X114271872Y-62066499D01*
X114331483Y-62060091D01*
X114466331Y-62009796D01*
X114581546Y-61923546D01*
X114667796Y-61808331D01*
X114718091Y-61673483D01*
X114724500Y-61613873D01*
X114724500Y-61114500D01*
X115748000Y-61114500D01*
X117250000Y-61114500D01*
X118248000Y-61114500D01*
X119750000Y-61114500D01*
X119750000Y-59612500D01*
X118248000Y-59612500D01*
X118248000Y-61114500D01*
X117250000Y-61114500D01*
X117250000Y-59612500D01*
X115748000Y-59612500D01*
X115748000Y-61114500D01*
X114724500Y-61114500D01*
X114724499Y-59076778D01*
X121579500Y-59076778D01*
X121579500Y-59297221D01*
X121613985Y-59514952D01*
X121682103Y-59724603D01*
X121682104Y-59724606D01*
X121782187Y-59921025D01*
X121911752Y-60099358D01*
X121911756Y-60099363D01*
X121962316Y-60149923D01*
X121995801Y-60211246D01*
X121990817Y-60280938D01*
X121948945Y-60336871D01*
X121917969Y-60353785D01*
X121837918Y-60383643D01*
X121837906Y-60383649D01*
X121722812Y-60469809D01*
X121722809Y-60469812D01*
X121636649Y-60584906D01*
X121636645Y-60584913D01*
X121586403Y-60719620D01*
X121586401Y-60719627D01*
X121580000Y-60779155D01*
X121580000Y-61477000D01*
X122604722Y-61477000D01*
X122560667Y-61553306D01*
X122530000Y-61667756D01*
X122530000Y-61786244D01*
X122560667Y-61900694D01*
X122604722Y-61977000D01*
X121580000Y-61977000D01*
X121580000Y-62674844D01*
X121586401Y-62734372D01*
X121586403Y-62734379D01*
X121636645Y-62869086D01*
X121636649Y-62869093D01*
X121722809Y-62984187D01*
X121722812Y-62984190D01*
X121837906Y-63070350D01*
X121837913Y-63070354D01*
X121972620Y-63120596D01*
X121972627Y-63120598D01*
X122032155Y-63126999D01*
X122032172Y-63127000D01*
X122730000Y-63127000D01*
X122730000Y-62102277D01*
X122806306Y-62146333D01*
X122920756Y-62177000D01*
X123039244Y-62177000D01*
X123153694Y-62146333D01*
X123230000Y-62102277D01*
X123230000Y-63127000D01*
X123927828Y-63127000D01*
X123927844Y-63126999D01*
X123987372Y-63120598D01*
X123987379Y-63120596D01*
X124122086Y-63070354D01*
X124122093Y-63070350D01*
X124237187Y-62984190D01*
X124237190Y-62984187D01*
X124323350Y-62869093D01*
X124323354Y-62869086D01*
X124373596Y-62734379D01*
X124373598Y-62734372D01*
X124379999Y-62674844D01*
X124380000Y-62674827D01*
X124380000Y-61977000D01*
X123355278Y-61977000D01*
X123399333Y-61900694D01*
X123430000Y-61786244D01*
X123430000Y-61667756D01*
X123399333Y-61553306D01*
X123355278Y-61477000D01*
X124380000Y-61477000D01*
X124380000Y-61114500D01*
X125748000Y-61114500D01*
X127250000Y-61114500D01*
X128248000Y-61114500D01*
X129750000Y-61114500D01*
X130748000Y-61114500D01*
X132250000Y-61114500D01*
X132250000Y-59612500D01*
X130748000Y-59612500D01*
X130748000Y-61114500D01*
X129750000Y-61114500D01*
X129750000Y-59612500D01*
X128248000Y-59612500D01*
X128248000Y-61114500D01*
X127250000Y-61114500D01*
X127250000Y-59612500D01*
X125748000Y-59612500D01*
X125748000Y-61114500D01*
X124380000Y-61114500D01*
X124380000Y-60779172D01*
X124379999Y-60779155D01*
X124373598Y-60719627D01*
X124373596Y-60719620D01*
X124323354Y-60584913D01*
X124323350Y-60584906D01*
X124237190Y-60469812D01*
X124237187Y-60469809D01*
X124122093Y-60383649D01*
X124122087Y-60383646D01*
X124042030Y-60353786D01*
X123986097Y-60311914D01*
X123961680Y-60246450D01*
X123976532Y-60178177D01*
X123997681Y-60149925D01*
X124048242Y-60099365D01*
X124177815Y-59921022D01*
X124277895Y-59724606D01*
X124346015Y-59514951D01*
X124380500Y-59297222D01*
X124380500Y-59076778D01*
X124346015Y-58859049D01*
X124277895Y-58649394D01*
X124277895Y-58649393D01*
X124260116Y-58614500D01*
X125748000Y-58614500D01*
X127250000Y-58614500D01*
X128248000Y-58614500D01*
X129750000Y-58614500D01*
X130748000Y-58614500D01*
X132250000Y-58614500D01*
X132250000Y-57112500D01*
X130748000Y-57112500D01*
X130748000Y-58614500D01*
X129750000Y-58614500D01*
X129750000Y-57112500D01*
X128248000Y-57112500D01*
X128248000Y-58614500D01*
X127250000Y-58614500D01*
X127250000Y-57112500D01*
X125748000Y-57112500D01*
X125748000Y-58614500D01*
X124260116Y-58614500D01*
X124212183Y-58520429D01*
X124177815Y-58452978D01*
X124140400Y-58401480D01*
X124048247Y-58274641D01*
X124048243Y-58274636D01*
X123892363Y-58118756D01*
X123892358Y-58118752D01*
X123714025Y-57989187D01*
X123714024Y-57989186D01*
X123714022Y-57989185D01*
X123651096Y-57957122D01*
X123517606Y-57889104D01*
X123517603Y-57889103D01*
X123307952Y-57820985D01*
X123199086Y-57803742D01*
X123090222Y-57786500D01*
X122869778Y-57786500D01*
X122797201Y-57797995D01*
X122652047Y-57820985D01*
X122442396Y-57889103D01*
X122442393Y-57889104D01*
X122245974Y-57989187D01*
X122067641Y-58118752D01*
X122067636Y-58118756D01*
X121911756Y-58274636D01*
X121911752Y-58274641D01*
X121782187Y-58452974D01*
X121682104Y-58649393D01*
X121682103Y-58649396D01*
X121613985Y-58859047D01*
X121579500Y-59076778D01*
X114724499Y-59076778D01*
X114724499Y-58614500D01*
X115748000Y-58614500D01*
X117250000Y-58614500D01*
X118248000Y-58614500D01*
X119750000Y-58614500D01*
X119750000Y-58297700D01*
X120748000Y-58297700D01*
X120750794Y-58290127D01*
X120752568Y-58285596D01*
X120767569Y-58249378D01*
X120769522Y-58244913D01*
X120781858Y-58218155D01*
X120783982Y-58213775D01*
X120901859Y-57982431D01*
X120904153Y-57978140D01*
X120918542Y-57952445D01*
X120921006Y-57948241D01*
X120941487Y-57914819D01*
X120944112Y-57910718D01*
X120960479Y-57886223D01*
X120963262Y-57882229D01*
X121115886Y-57672157D01*
X121118831Y-57668267D01*
X121137090Y-57645109D01*
X121140179Y-57641346D01*
X121165640Y-57611539D01*
X121168874Y-57607900D01*
X121188848Y-57586295D01*
X121192218Y-57582791D01*
X121375791Y-57399218D01*
X121379295Y-57395848D01*
X121400900Y-57375874D01*
X121404539Y-57372640D01*
X121434346Y-57347179D01*
X121438109Y-57344090D01*
X121461267Y-57325831D01*
X121465157Y-57322886D01*
X121675229Y-57170262D01*
X121679223Y-57167479D01*
X121703718Y-57151112D01*
X121707819Y-57148487D01*
X121741241Y-57128006D01*
X121745445Y-57125542D01*
X121768735Y-57112500D01*
X120748000Y-57112500D01*
X120748000Y-58297700D01*
X119750000Y-58297700D01*
X119750000Y-57112500D01*
X118248000Y-57112500D01*
X118248000Y-58614500D01*
X117250000Y-58614500D01*
X117250000Y-57112500D01*
X115748000Y-57112500D01*
X115748000Y-58614500D01*
X114724499Y-58614500D01*
X114724499Y-58018128D01*
X114718091Y-57958517D01*
X114715826Y-57952445D01*
X114667797Y-57823671D01*
X114667793Y-57823664D01*
X114581547Y-57708455D01*
X114581544Y-57708452D01*
X114466335Y-57622206D01*
X114466328Y-57622202D01*
X114331482Y-57571908D01*
X114331483Y-57571908D01*
X114271883Y-57565501D01*
X114271881Y-57565500D01*
X114271873Y-57565500D01*
X114271865Y-57565500D01*
X113248500Y-57565500D01*
X113181461Y-57545815D01*
X113135706Y-57493011D01*
X113124500Y-57441500D01*
X113124500Y-56114500D01*
X114122500Y-56114500D01*
X114750000Y-56114500D01*
X115748000Y-56114500D01*
X117250000Y-56114500D01*
X117250000Y-55761301D01*
X117163414Y-55747588D01*
X117158625Y-55746733D01*
X117129763Y-55740993D01*
X117125013Y-55739951D01*
X117086894Y-55730803D01*
X117082176Y-55729573D01*
X117053796Y-55721570D01*
X117049132Y-55720155D01*
X116991999Y-55701591D01*
X118248000Y-55701591D01*
X118248000Y-56114500D01*
X119750000Y-56114500D01*
X120748000Y-56114500D01*
X122250000Y-56114500D01*
X123248000Y-56114500D01*
X124750000Y-56114500D01*
X124750000Y-55741040D01*
X124749763Y-55740993D01*
X124745013Y-55739951D01*
X124732000Y-55736828D01*
X125748000Y-55736828D01*
X125748000Y-56114500D01*
X127250000Y-56114500D01*
X128248000Y-56114500D01*
X129750000Y-56114500D01*
X130748000Y-56114500D01*
X132250000Y-56114500D01*
X132250000Y-54612500D01*
X130748000Y-54612500D01*
X130748000Y-56114500D01*
X129750000Y-56114500D01*
X129750000Y-54612500D01*
X128248000Y-54612500D01*
X128248000Y-56114500D01*
X127250000Y-56114500D01*
X127250000Y-54612500D01*
X127188484Y-54612500D01*
X127147088Y-54693744D01*
X127144792Y-54698040D01*
X127130401Y-54723736D01*
X127127940Y-54727934D01*
X127107458Y-54761358D01*
X127104834Y-54765457D01*
X127088466Y-54789955D01*
X127085680Y-54793953D01*
X126951565Y-54978544D01*
X126948625Y-54982427D01*
X126930388Y-55005560D01*
X126927300Y-55009323D01*
X126901842Y-55039130D01*
X126898607Y-55042770D01*
X126878614Y-55064398D01*
X126875240Y-55067907D01*
X126713907Y-55229240D01*
X126710398Y-55232614D01*
X126688770Y-55252607D01*
X126685130Y-55255842D01*
X126655323Y-55281300D01*
X126651560Y-55284388D01*
X126628427Y-55302625D01*
X126624544Y-55305565D01*
X126439953Y-55439680D01*
X126435955Y-55442466D01*
X126411457Y-55458834D01*
X126407358Y-55461458D01*
X126373934Y-55481940D01*
X126369736Y-55484401D01*
X126344040Y-55498792D01*
X126339743Y-55501088D01*
X126136438Y-55604676D01*
X126132056Y-55606801D01*
X126105281Y-55619144D01*
X126100813Y-55621099D01*
X126064597Y-55636097D01*
X126060067Y-55637869D01*
X126032459Y-55648053D01*
X126027864Y-55649647D01*
X125810868Y-55720155D01*
X125806204Y-55721570D01*
X125777824Y-55729573D01*
X125773106Y-55730803D01*
X125748000Y-55736828D01*
X124732000Y-55736828D01*
X124706894Y-55730803D01*
X124702176Y-55729573D01*
X124673796Y-55721570D01*
X124669132Y-55720155D01*
X124452136Y-55649647D01*
X124447541Y-55648053D01*
X124419933Y-55637869D01*
X124415403Y-55636097D01*
X124379187Y-55621099D01*
X124374719Y-55619144D01*
X124347944Y-55606801D01*
X124343562Y-55604676D01*
X124140257Y-55501088D01*
X124135960Y-55498792D01*
X124110264Y-55484401D01*
X124106066Y-55481940D01*
X124072642Y-55461458D01*
X124068543Y-55458834D01*
X124044045Y-55442466D01*
X124040047Y-55439680D01*
X123855456Y-55305565D01*
X123851573Y-55302625D01*
X123828440Y-55284388D01*
X123824677Y-55281300D01*
X123794870Y-55255842D01*
X123791230Y-55252607D01*
X123769602Y-55232614D01*
X123766093Y-55229240D01*
X123604760Y-55067907D01*
X123601386Y-55064398D01*
X123581393Y-55042770D01*
X123578158Y-55039130D01*
X123552700Y-55009323D01*
X123549612Y-55005560D01*
X123531375Y-54982427D01*
X123528435Y-54978544D01*
X123394320Y-54793953D01*
X123391534Y-54789955D01*
X123375166Y-54765457D01*
X123372542Y-54761358D01*
X123352060Y-54727934D01*
X123349599Y-54723736D01*
X123335208Y-54698040D01*
X123332912Y-54693744D01*
X123291516Y-54612500D01*
X123248000Y-54612500D01*
X123248000Y-56114500D01*
X122250000Y-56114500D01*
X122250000Y-54612500D01*
X120748000Y-54612500D01*
X120748000Y-56114500D01*
X119750000Y-56114500D01*
X119750000Y-54612500D01*
X119568484Y-54612500D01*
X119527088Y-54693744D01*
X119524792Y-54698040D01*
X119510401Y-54723736D01*
X119507940Y-54727934D01*
X119487458Y-54761358D01*
X119484834Y-54765457D01*
X119468466Y-54789955D01*
X119465680Y-54793953D01*
X119331565Y-54978544D01*
X119328625Y-54982427D01*
X119310388Y-55005560D01*
X119307300Y-55009323D01*
X119281842Y-55039130D01*
X119278607Y-55042770D01*
X119258614Y-55064398D01*
X119255240Y-55067907D01*
X119093907Y-55229240D01*
X119090398Y-55232614D01*
X119068770Y-55252607D01*
X119065130Y-55255842D01*
X119035323Y-55281300D01*
X119031560Y-55284388D01*
X119008427Y-55302625D01*
X119004544Y-55305565D01*
X118819953Y-55439680D01*
X118815955Y-55442466D01*
X118791457Y-55458834D01*
X118787358Y-55461458D01*
X118753934Y-55481940D01*
X118749736Y-55484401D01*
X118724040Y-55498792D01*
X118719743Y-55501088D01*
X118516438Y-55604676D01*
X118512056Y-55606801D01*
X118485281Y-55619144D01*
X118480813Y-55621099D01*
X118444597Y-55636097D01*
X118440067Y-55637869D01*
X118412459Y-55648053D01*
X118407864Y-55649647D01*
X118248000Y-55701591D01*
X116991999Y-55701591D01*
X116832136Y-55649647D01*
X116827541Y-55648053D01*
X116799933Y-55637869D01*
X116795403Y-55636097D01*
X116759187Y-55621099D01*
X116754719Y-55619144D01*
X116727944Y-55606801D01*
X116723562Y-55604676D01*
X116520257Y-55501088D01*
X116515960Y-55498792D01*
X116490264Y-55484401D01*
X116486066Y-55481940D01*
X116452642Y-55461458D01*
X116448543Y-55458834D01*
X116424045Y-55442466D01*
X116420047Y-55439680D01*
X116235456Y-55305565D01*
X116231573Y-55302625D01*
X116208440Y-55284388D01*
X116204677Y-55281300D01*
X116174870Y-55255842D01*
X116171230Y-55252607D01*
X116149602Y-55232614D01*
X116146093Y-55229240D01*
X115984760Y-55067907D01*
X115981386Y-55064398D01*
X115961393Y-55042770D01*
X115958158Y-55039130D01*
X115932700Y-55009323D01*
X115929612Y-55005560D01*
X115911375Y-54982427D01*
X115908435Y-54978544D01*
X115774320Y-54793953D01*
X115771534Y-54789955D01*
X115755166Y-54765457D01*
X115752542Y-54761358D01*
X115748000Y-54753946D01*
X115748000Y-56114500D01*
X114750000Y-56114500D01*
X114750000Y-54612500D01*
X114122500Y-54612500D01*
X114122500Y-56114500D01*
X113124500Y-56114500D01*
X113124500Y-53614500D01*
X114122500Y-53614500D01*
X114750000Y-53614500D01*
X114750000Y-52112500D01*
X114122500Y-52112500D01*
X114122500Y-53614500D01*
X113124500Y-53614500D01*
X113124500Y-51114500D01*
X114122500Y-51114500D01*
X114750000Y-51114500D01*
X114750000Y-50602255D01*
X114122500Y-49974755D01*
X114122500Y-51114500D01*
X113124500Y-51114500D01*
X113124500Y-47864733D01*
X113144185Y-47797694D01*
X113196989Y-47751939D01*
X113266147Y-47741995D01*
X113329703Y-47771020D01*
X113336181Y-47777052D01*
X116983181Y-51424052D01*
X117016666Y-51485375D01*
X117019500Y-51511733D01*
X117019500Y-52483207D01*
X116999815Y-52550246D01*
X116968386Y-52583525D01*
X116837925Y-52678311D01*
X116704312Y-52811924D01*
X116704312Y-52811925D01*
X116704310Y-52811927D01*
X116656610Y-52877579D01*
X116593240Y-52964800D01*
X116507454Y-53133163D01*
X116449059Y-53312881D01*
X116419500Y-53499513D01*
X116419500Y-53688486D01*
X116449059Y-53875118D01*
X116507454Y-54054836D01*
X116593238Y-54223196D01*
X116593240Y-54223199D01*
X116704310Y-54376073D01*
X116837927Y-54509690D01*
X116990801Y-54620760D01*
X117070347Y-54661290D01*
X117159163Y-54706545D01*
X117159165Y-54706545D01*
X117159168Y-54706547D01*
X117212070Y-54723736D01*
X117338881Y-54764940D01*
X117525514Y-54794500D01*
X117525519Y-54794500D01*
X117714486Y-54794500D01*
X117901118Y-54764940D01*
X117912142Y-54761358D01*
X118080832Y-54706547D01*
X118249199Y-54620760D01*
X118402073Y-54509690D01*
X118535690Y-54376073D01*
X118646760Y-54223199D01*
X118732547Y-54054832D01*
X118790940Y-53875118D01*
X118806188Y-53778846D01*
X118820500Y-53688486D01*
X118820500Y-53614500D01*
X120748000Y-53614500D01*
X122250000Y-53614500D01*
X122250000Y-53499513D01*
X124039500Y-53499513D01*
X124039500Y-53688486D01*
X124069059Y-53875118D01*
X124127454Y-54054836D01*
X124213238Y-54223196D01*
X124213240Y-54223199D01*
X124324310Y-54376073D01*
X124457927Y-54509690D01*
X124610801Y-54620760D01*
X124690347Y-54661290D01*
X124779163Y-54706545D01*
X124779165Y-54706545D01*
X124779168Y-54706547D01*
X124832070Y-54723736D01*
X124958881Y-54764940D01*
X125145514Y-54794500D01*
X125145519Y-54794500D01*
X125334486Y-54794500D01*
X125521118Y-54764940D01*
X125532142Y-54761358D01*
X125700832Y-54706547D01*
X125869199Y-54620760D01*
X126022073Y-54509690D01*
X126155690Y-54376073D01*
X126266760Y-54223199D01*
X126352547Y-54054832D01*
X126410940Y-53875118D01*
X126426188Y-53778846D01*
X126440500Y-53688486D01*
X126440500Y-53614500D01*
X128248000Y-53614500D01*
X129750000Y-53614500D01*
X130748000Y-53614500D01*
X132250000Y-53614500D01*
X132250000Y-52112500D01*
X130748000Y-52112500D01*
X130748000Y-53614500D01*
X129750000Y-53614500D01*
X129750000Y-52112500D01*
X128248000Y-52112500D01*
X128248000Y-53614500D01*
X126440500Y-53614500D01*
X126440500Y-53499513D01*
X126410940Y-53312881D01*
X126352545Y-53133163D01*
X126307290Y-53044347D01*
X126266760Y-52964801D01*
X126155690Y-52811927D01*
X126022073Y-52678310D01*
X125869199Y-52567240D01*
X125840500Y-52552617D01*
X125700836Y-52481454D01*
X125521118Y-52423059D01*
X125334486Y-52393500D01*
X125334481Y-52393500D01*
X125145519Y-52393500D01*
X125145514Y-52393500D01*
X124958881Y-52423059D01*
X124779163Y-52481454D01*
X124610800Y-52567240D01*
X124523579Y-52630610D01*
X124457927Y-52678310D01*
X124457925Y-52678312D01*
X124457924Y-52678312D01*
X124324312Y-52811924D01*
X124324312Y-52811925D01*
X124324310Y-52811927D01*
X124276610Y-52877579D01*
X124213240Y-52964800D01*
X124127454Y-53133163D01*
X124069059Y-53312881D01*
X124039500Y-53499513D01*
X122250000Y-53499513D01*
X122250000Y-52112500D01*
X120748000Y-52112500D01*
X120748000Y-53614500D01*
X118820500Y-53614500D01*
X118820500Y-53499513D01*
X118790940Y-53312881D01*
X118732545Y-53133163D01*
X118687290Y-53044347D01*
X118646760Y-52964801D01*
X118535690Y-52811927D01*
X118402073Y-52678310D01*
X118357649Y-52646034D01*
X118271614Y-52583525D01*
X118228948Y-52528194D01*
X118220500Y-52483207D01*
X118220500Y-51300696D01*
X118220501Y-51300683D01*
X118220501Y-51132580D01*
X118220501Y-51132579D01*
X118179577Y-50979852D01*
X118173831Y-50969899D01*
X118100524Y-50842926D01*
X118100518Y-50842918D01*
X116870100Y-49612500D01*
X118281484Y-49612500D01*
X118829317Y-50160333D01*
X118834863Y-50166254D01*
X118867234Y-50203165D01*
X118872380Y-50209435D01*
X118912171Y-50261288D01*
X118916900Y-50267887D01*
X118944188Y-50308726D01*
X118948474Y-50315618D01*
X119060214Y-50509160D01*
X119064038Y-50516315D01*
X119085758Y-50560359D01*
X119089108Y-50567752D01*
X119114118Y-50628134D01*
X119116976Y-50635729D01*
X119132757Y-50682221D01*
X119135112Y-50689983D01*
X119192951Y-50905836D01*
X119194793Y-50913736D01*
X119204373Y-50961893D01*
X119205695Y-50969899D01*
X119214228Y-51034701D01*
X119215024Y-51042779D01*
X119218236Y-51091785D01*
X119218501Y-51099895D01*
X119218501Y-51114500D01*
X119750000Y-51114500D01*
X120748000Y-51114500D01*
X122250000Y-51114500D01*
X123248000Y-51114500D01*
X124750000Y-51114500D01*
X125748000Y-51114500D01*
X127250000Y-51114500D01*
X128248000Y-51114500D01*
X129750000Y-51114500D01*
X130748000Y-51114500D01*
X132250000Y-51114500D01*
X132250000Y-49612500D01*
X130748000Y-49612500D01*
X130748000Y-51114500D01*
X129750000Y-51114500D01*
X129750000Y-49612500D01*
X128248000Y-49612500D01*
X128248000Y-51114500D01*
X127250000Y-51114500D01*
X127250000Y-49612500D01*
X125748000Y-49612500D01*
X125748000Y-51114500D01*
X124750000Y-51114500D01*
X124750000Y-49612500D01*
X123248000Y-49612500D01*
X123248000Y-51114500D01*
X122250000Y-51114500D01*
X122250000Y-49612500D01*
X120748000Y-49612500D01*
X120748000Y-51114500D01*
X119750000Y-51114500D01*
X119750000Y-49612500D01*
X118281484Y-49612500D01*
X116870100Y-49612500D01*
X115872100Y-48614500D01*
X125748000Y-48614500D01*
X127250000Y-48614500D01*
X128248000Y-48614500D01*
X129750000Y-48614500D01*
X130748000Y-48614500D01*
X132250000Y-48614500D01*
X132250000Y-47112500D01*
X130748000Y-47112500D01*
X130748000Y-48614500D01*
X129750000Y-48614500D01*
X129750000Y-47112500D01*
X128248000Y-47112500D01*
X128248000Y-48614500D01*
X127250000Y-48614500D01*
X127250000Y-47112500D01*
X125748000Y-47112500D01*
X125748000Y-48614500D01*
X115872100Y-48614500D01*
X113625436Y-46367837D01*
X115977500Y-46367837D01*
X115977500Y-46596162D01*
X116013215Y-46821660D01*
X116083770Y-47038803D01*
X116178000Y-47223738D01*
X116187421Y-47242228D01*
X116321621Y-47426937D01*
X116483063Y-47588379D01*
X116667772Y-47722579D01*
X116762843Y-47771020D01*
X116871196Y-47826229D01*
X116871198Y-47826229D01*
X116871201Y-47826231D01*
X116987592Y-47864049D01*
X117088339Y-47896784D01*
X117313838Y-47932500D01*
X117313843Y-47932500D01*
X117542162Y-47932500D01*
X117767660Y-47896784D01*
X117984799Y-47826231D01*
X118188228Y-47722579D01*
X118372937Y-47588379D01*
X118534379Y-47426937D01*
X118577683Y-47367333D01*
X118633012Y-47324670D01*
X118702626Y-47318691D01*
X118764421Y-47351297D01*
X118778313Y-47367329D01*
X118821621Y-47426937D01*
X118983063Y-47588379D01*
X119167772Y-47722579D01*
X119262843Y-47771020D01*
X119371196Y-47826229D01*
X119371198Y-47826229D01*
X119371201Y-47826231D01*
X119487592Y-47864049D01*
X119588339Y-47896784D01*
X119813838Y-47932500D01*
X119813843Y-47932500D01*
X120042162Y-47932500D01*
X120267660Y-47896784D01*
X120484799Y-47826231D01*
X120688228Y-47722579D01*
X120842564Y-47610446D01*
X120908368Y-47586967D01*
X120976422Y-47602792D01*
X121025117Y-47652897D01*
X121031629Y-47667429D01*
X121034202Y-47674327D01*
X121034206Y-47674335D01*
X121120452Y-47789544D01*
X121120455Y-47789547D01*
X121235664Y-47875793D01*
X121235671Y-47875797D01*
X121370517Y-47926091D01*
X121370516Y-47926091D01*
X121377444Y-47926835D01*
X121430127Y-47932500D01*
X123425872Y-47932499D01*
X123485483Y-47926091D01*
X123620331Y-47875796D01*
X123735546Y-47789546D01*
X123821796Y-47674331D01*
X123872091Y-47539483D01*
X123878500Y-47479873D01*
X123878499Y-46114500D01*
X125748000Y-46114500D01*
X127250000Y-46114500D01*
X128248000Y-46114500D01*
X129750000Y-46114500D01*
X130748000Y-46114500D01*
X132250000Y-46114500D01*
X132250000Y-44612500D01*
X130748000Y-44612500D01*
X130748000Y-46114500D01*
X129750000Y-46114500D01*
X129750000Y-44612500D01*
X128248000Y-44612500D01*
X128248000Y-46114500D01*
X127250000Y-46114500D01*
X127250000Y-44612500D01*
X125748000Y-44612500D01*
X125748000Y-46114500D01*
X123878499Y-46114500D01*
X123878499Y-45484128D01*
X123872091Y-45424517D01*
X123853854Y-45375622D01*
X123821797Y-45289671D01*
X123821793Y-45289664D01*
X123735547Y-45174455D01*
X123735544Y-45174452D01*
X123620335Y-45088206D01*
X123620328Y-45088202D01*
X123485482Y-45037908D01*
X123485483Y-45037908D01*
X123425883Y-45031501D01*
X123425881Y-45031500D01*
X123425873Y-45031500D01*
X123425864Y-45031500D01*
X121430129Y-45031500D01*
X121430123Y-45031501D01*
X121370516Y-45037908D01*
X121235671Y-45088202D01*
X121235664Y-45088206D01*
X121120455Y-45174452D01*
X121120452Y-45174455D01*
X121034206Y-45289664D01*
X121034202Y-45289672D01*
X121031629Y-45296571D01*
X120989757Y-45352504D01*
X120924292Y-45376919D01*
X120856019Y-45362066D01*
X120842571Y-45353559D01*
X120688228Y-45241421D01*
X120484803Y-45137770D01*
X120267660Y-45067215D01*
X120042162Y-45031500D01*
X120042157Y-45031500D01*
X119813843Y-45031500D01*
X119813838Y-45031500D01*
X119588339Y-45067215D01*
X119371196Y-45137770D01*
X119167771Y-45241421D01*
X118983061Y-45375622D01*
X118821623Y-45537060D01*
X118821616Y-45537069D01*
X118778317Y-45596664D01*
X118722987Y-45639330D01*
X118653373Y-45645308D01*
X118591579Y-45612701D01*
X118577683Y-45596664D01*
X118534383Y-45537069D01*
X118534379Y-45537063D01*
X118372937Y-45375621D01*
X118188228Y-45241421D01*
X117984803Y-45137770D01*
X117767660Y-45067215D01*
X117542162Y-45031500D01*
X117542157Y-45031500D01*
X117313843Y-45031500D01*
X117313838Y-45031500D01*
X117088339Y-45067215D01*
X116871196Y-45137770D01*
X116667771Y-45241421D01*
X116483061Y-45375622D01*
X116321622Y-45537061D01*
X116187421Y-45721771D01*
X116083770Y-45925196D01*
X116013215Y-46142339D01*
X115977500Y-46367837D01*
X113625436Y-46367837D01*
X113277954Y-46020355D01*
X113277952Y-46020352D01*
X113159081Y-45901481D01*
X113159080Y-45901480D01*
X113072268Y-45851360D01*
X113072268Y-45851359D01*
X113072264Y-45851358D01*
X113022149Y-45822423D01*
X112869421Y-45781499D01*
X112711307Y-45781499D01*
X112703711Y-45781499D01*
X112703695Y-45781500D01*
X110349169Y-45781500D01*
X110349153Y-45781499D01*
X110341557Y-45781499D01*
X110183443Y-45781499D01*
X110076087Y-45810265D01*
X110030710Y-45822424D01*
X110030709Y-45822425D01*
X109980596Y-45851359D01*
X109980595Y-45851360D01*
X109937189Y-45876420D01*
X109893785Y-45901479D01*
X109893782Y-45901481D01*
X108852680Y-46942584D01*
X108791357Y-46976069D01*
X108721665Y-46971085D01*
X108665732Y-46929213D01*
X108641315Y-46863749D01*
X108640999Y-46854903D01*
X108640999Y-45754129D01*
X108640998Y-45754123D01*
X108634591Y-45694516D01*
X108584297Y-45559671D01*
X108584293Y-45559664D01*
X108498047Y-45444455D01*
X108498044Y-45444452D01*
X108382835Y-45358206D01*
X108382828Y-45358202D01*
X108247982Y-45307908D01*
X108247983Y-45307908D01*
X108188383Y-45301501D01*
X108188381Y-45301500D01*
X108188373Y-45301500D01*
X108188364Y-45301500D01*
X106187629Y-45301500D01*
X106187623Y-45301501D01*
X106128016Y-45307908D01*
X105993171Y-45358202D01*
X105993164Y-45358206D01*
X105877955Y-45444452D01*
X105877952Y-45444455D01*
X105791706Y-45559664D01*
X105791702Y-45559671D01*
X105781127Y-45588026D01*
X105739256Y-45643960D01*
X105673791Y-45668377D01*
X105605518Y-45653525D01*
X105592060Y-45645011D01*
X105409279Y-45512213D01*
X105205568Y-45408417D01*
X104988124Y-45337765D01*
X104898000Y-45323490D01*
X104898000Y-46311252D01*
X104860292Y-46289482D01*
X104720409Y-46252000D01*
X104575591Y-46252000D01*
X104435708Y-46289482D01*
X104398000Y-46311252D01*
X104398000Y-45323490D01*
X104397999Y-45323490D01*
X104307875Y-45337765D01*
X104090431Y-45408417D01*
X103886723Y-45512211D01*
X103701757Y-45646597D01*
X103540097Y-45808257D01*
X103478627Y-45892864D01*
X103423297Y-45935529D01*
X103353684Y-45941508D01*
X103291889Y-45908902D01*
X103277991Y-45892864D01*
X103216286Y-45807934D01*
X103054566Y-45646214D01*
X102869538Y-45511783D01*
X102808271Y-45480566D01*
X102665755Y-45407950D01*
X102448248Y-45337278D01*
X102262812Y-45307908D01*
X102222354Y-45301500D01*
X101993646Y-45301500D01*
X101953188Y-45307908D01*
X101767753Y-45337278D01*
X101767750Y-45337278D01*
X101550244Y-45407950D01*
X101346461Y-45511783D01*
X101280550Y-45559671D01*
X101161434Y-45646214D01*
X101161432Y-45646216D01*
X101161431Y-45646216D01*
X100999716Y-45807931D01*
X100999716Y-45807932D01*
X100999714Y-45807934D01*
X100941980Y-45887396D01*
X100865283Y-45992961D01*
X100761450Y-46196744D01*
X100690778Y-46414250D01*
X100690778Y-46414253D01*
X100655000Y-46640146D01*
X98000000Y-46640146D01*
X98000000Y-46114500D01*
X99124000Y-46114500D01*
X99738814Y-46114500D01*
X99750000Y-46080073D01*
X99750000Y-44849733D01*
X113248000Y-44849733D01*
X113312023Y-44866889D01*
X113319787Y-44869244D01*
X113366292Y-44885030D01*
X113373890Y-44887890D01*
X113434277Y-44912905D01*
X113441665Y-44916253D01*
X113475949Y-44933160D01*
X113475755Y-44933552D01*
X113485750Y-44937693D01*
X113492815Y-44941772D01*
X113492860Y-44941796D01*
X113571277Y-44987071D01*
X113571278Y-44987072D01*
X113686381Y-45053526D01*
X113693272Y-45057811D01*
X113734112Y-45085099D01*
X113740712Y-45089829D01*
X113792565Y-45129620D01*
X113798835Y-45134766D01*
X113835746Y-45167137D01*
X113841667Y-45172682D01*
X114009837Y-45340851D01*
X114009865Y-45340882D01*
X114750000Y-46081016D01*
X114750000Y-44612500D01*
X113248000Y-44612500D01*
X113248000Y-44849733D01*
X99750000Y-44849733D01*
X99750000Y-44612500D01*
X99124000Y-44612500D01*
X99124000Y-46114500D01*
X98000000Y-46114500D01*
X98000000Y-43446459D01*
X100748000Y-43446459D01*
X100748000Y-43614500D01*
X102250000Y-43614500D01*
X102250000Y-43445959D01*
X103248000Y-43445959D01*
X103248000Y-43614500D01*
X104750000Y-43614500D01*
X104750000Y-43562872D01*
X110748000Y-43562872D01*
X110748000Y-43614500D01*
X112250000Y-43614500D01*
X113248000Y-43614500D01*
X114750000Y-43614500D01*
X115748000Y-43614500D01*
X117250000Y-43614500D01*
X118248000Y-43614500D01*
X119750000Y-43614500D01*
X120748000Y-43614500D01*
X122250000Y-43614500D01*
X123248000Y-43614500D01*
X124750000Y-43614500D01*
X125748000Y-43614500D01*
X127250000Y-43614500D01*
X128248000Y-43614500D01*
X129750000Y-43614500D01*
X130748000Y-43614500D01*
X132250000Y-43614500D01*
X132250000Y-42112500D01*
X130748000Y-42112500D01*
X130748000Y-43614500D01*
X129750000Y-43614500D01*
X129750000Y-42112500D01*
X128248000Y-42112500D01*
X128248000Y-43614500D01*
X127250000Y-43614500D01*
X127250000Y-42112500D01*
X125748000Y-42112500D01*
X125748000Y-43614500D01*
X124750000Y-43614500D01*
X124750000Y-42112500D01*
X123248000Y-42112500D01*
X123248000Y-43614500D01*
X122250000Y-43614500D01*
X122250000Y-42112500D01*
X120748000Y-42112500D01*
X120748000Y-43614500D01*
X119750000Y-43614500D01*
X119750000Y-42112500D01*
X118248000Y-42112500D01*
X118248000Y-43614500D01*
X117250000Y-43614500D01*
X117250000Y-42112500D01*
X115748000Y-42112500D01*
X115748000Y-43614500D01*
X114750000Y-43614500D01*
X114750000Y-42112500D01*
X113248000Y-42112500D01*
X113248000Y-43614500D01*
X112250000Y-43614500D01*
X112250000Y-42112500D01*
X112147405Y-42112500D01*
X112109857Y-42228058D01*
X112108264Y-42232652D01*
X112098080Y-42260261D01*
X112096307Y-42264792D01*
X112081309Y-42301008D01*
X112079355Y-42305474D01*
X112067013Y-42332248D01*
X112064887Y-42336633D01*
X111954185Y-42553898D01*
X111951890Y-42558191D01*
X111937493Y-42583899D01*
X111935029Y-42588103D01*
X111914544Y-42621530D01*
X111911920Y-42625630D01*
X111895556Y-42650120D01*
X111892771Y-42654115D01*
X111718541Y-42893914D01*
X111678812Y-42929217D01*
X111557277Y-42997277D01*
X111489217Y-43118812D01*
X111453914Y-43158541D01*
X111214115Y-43332771D01*
X111210120Y-43335556D01*
X111185630Y-43351920D01*
X111181530Y-43354544D01*
X111148103Y-43375029D01*
X111143899Y-43377493D01*
X111118191Y-43391890D01*
X111113898Y-43394185D01*
X110896633Y-43504887D01*
X110892248Y-43507013D01*
X110865474Y-43519355D01*
X110861008Y-43521309D01*
X110824792Y-43536307D01*
X110820261Y-43538080D01*
X110792652Y-43548264D01*
X110788058Y-43549857D01*
X110748000Y-43562872D01*
X104750000Y-43562872D01*
X104750000Y-42726072D01*
X104719277Y-42743277D01*
X104651217Y-42864812D01*
X104615914Y-42904541D01*
X104376115Y-43078771D01*
X104372120Y-43081556D01*
X104347630Y-43097920D01*
X104343530Y-43100544D01*
X104310103Y-43121029D01*
X104305899Y-43123493D01*
X104280191Y-43137890D01*
X104275898Y-43140185D01*
X104058633Y-43250887D01*
X104054248Y-43253013D01*
X104027474Y-43265355D01*
X104023008Y-43267309D01*
X103986792Y-43282307D01*
X103982261Y-43284080D01*
X103954652Y-43294264D01*
X103950058Y-43295857D01*
X103718166Y-43371205D01*
X103713503Y-43372619D01*
X103685124Y-43380622D01*
X103680405Y-43381853D01*
X103642286Y-43391001D01*
X103637536Y-43392043D01*
X103608674Y-43397783D01*
X103603885Y-43398638D01*
X103363067Y-43436781D01*
X103358237Y-43437449D01*
X103328964Y-43440912D01*
X103324120Y-43441389D01*
X103285040Y-43444463D01*
X103280181Y-43444750D01*
X103250767Y-43445905D01*
X103248000Y-43445959D01*
X102250000Y-43445959D01*
X102250000Y-43277665D01*
X102224992Y-43267309D01*
X102220526Y-43265355D01*
X102193752Y-43253013D01*
X102189367Y-43250887D01*
X101972107Y-43140188D01*
X101967813Y-43137893D01*
X101942116Y-43123502D01*
X101937916Y-43121040D01*
X101904492Y-43100558D01*
X101900393Y-43097934D01*
X101875895Y-43081566D01*
X101874436Y-43080549D01*
X101872363Y-43081995D01*
X101847869Y-43098361D01*
X101843767Y-43100986D01*
X101810344Y-43121467D01*
X101806144Y-43123929D01*
X101780448Y-43138319D01*
X101776155Y-43140614D01*
X101558827Y-43251349D01*
X101554443Y-43253475D01*
X101527667Y-43265818D01*
X101523200Y-43267772D01*
X101486984Y-43282770D01*
X101482453Y-43284543D01*
X101454844Y-43294727D01*
X101450250Y-43296320D01*
X101218283Y-43371692D01*
X101213620Y-43373106D01*
X101185241Y-43381109D01*
X101180522Y-43382340D01*
X101142403Y-43391488D01*
X101137652Y-43392530D01*
X101108789Y-43398270D01*
X101104001Y-43399125D01*
X100863125Y-43437277D01*
X100858301Y-43437945D01*
X100829067Y-43441405D01*
X100824230Y-43441881D01*
X100785151Y-43444959D01*
X100780286Y-43445246D01*
X100750834Y-43446404D01*
X100748000Y-43446459D01*
X98000000Y-43446459D01*
X98000000Y-41045648D01*
X99323500Y-41045648D01*
X99323500Y-41250351D01*
X99355522Y-41452534D01*
X99418781Y-41647223D01*
X99461248Y-41730567D01*
X99511585Y-41829359D01*
X99511715Y-41829613D01*
X99632028Y-41995213D01*
X99776786Y-42139971D01*
X99897226Y-42227474D01*
X99942390Y-42260287D01*
X100058607Y-42319503D01*
X100124776Y-42353218D01*
X100124778Y-42353218D01*
X100124781Y-42353220D01*
X100229137Y-42387127D01*
X100319465Y-42416477D01*
X100420557Y-42432488D01*
X100521648Y-42448500D01*
X100521649Y-42448500D01*
X100726351Y-42448500D01*
X100726352Y-42448500D01*
X100928534Y-42416477D01*
X101123219Y-42353220D01*
X101305610Y-42260287D01*
X101398590Y-42192732D01*
X101471213Y-42139971D01*
X101471215Y-42139968D01*
X101471219Y-42139966D01*
X101615966Y-41995219D01*
X101615968Y-41995215D01*
X101615971Y-41995213D01*
X101736286Y-41829611D01*
X101736415Y-41829359D01*
X101763795Y-41775621D01*
X101811769Y-41724826D01*
X101879589Y-41708030D01*
X101945725Y-41730567D01*
X101984765Y-41775621D01*
X102012141Y-41829350D01*
X102012147Y-41829359D01*
X102044523Y-41873921D01*
X102044524Y-41873922D01*
X102724000Y-41194446D01*
X102724000Y-41200661D01*
X102751259Y-41302394D01*
X102803920Y-41393606D01*
X102878394Y-41468080D01*
X102969606Y-41520741D01*
X103071339Y-41548000D01*
X103077553Y-41548000D01*
X102398076Y-42227474D01*
X102442650Y-42259859D01*
X102624968Y-42352755D01*
X102819582Y-42415990D01*
X103021683Y-42448000D01*
X103226317Y-42448000D01*
X103428417Y-42415990D01*
X103623031Y-42352755D01*
X103805349Y-42259859D01*
X103849921Y-42227474D01*
X103170447Y-41548000D01*
X103176661Y-41548000D01*
X103278394Y-41520741D01*
X103369606Y-41468080D01*
X103444080Y-41393606D01*
X103496741Y-41302394D01*
X103524000Y-41200661D01*
X103524000Y-41194447D01*
X104203474Y-41873921D01*
X104235859Y-41829349D01*
X104328755Y-41647031D01*
X104391990Y-41452417D01*
X104416187Y-41299648D01*
X106161500Y-41299648D01*
X106161500Y-41504351D01*
X106193522Y-41706534D01*
X106256781Y-41901223D01*
X106299248Y-41984567D01*
X106349585Y-42083359D01*
X106349715Y-42083613D01*
X106470028Y-42249213D01*
X106614786Y-42393971D01*
X106735226Y-42481474D01*
X106780390Y-42514287D01*
X106896607Y-42573503D01*
X106962776Y-42607218D01*
X106962778Y-42607218D01*
X106962781Y-42607220D01*
X107067137Y-42641127D01*
X107157465Y-42670477D01*
X107258557Y-42686488D01*
X107359648Y-42702500D01*
X107359649Y-42702500D01*
X107564351Y-42702500D01*
X107564352Y-42702500D01*
X107766534Y-42670477D01*
X107961219Y-42607220D01*
X108143610Y-42514287D01*
X108236590Y-42446732D01*
X108309213Y-42393971D01*
X108309215Y-42393968D01*
X108309219Y-42393966D01*
X108453966Y-42249219D01*
X108453968Y-42249215D01*
X108453971Y-42249213D01*
X108574286Y-42083611D01*
X108574415Y-42083359D01*
X108601795Y-42029621D01*
X108649769Y-41978826D01*
X108717589Y-41962030D01*
X108783725Y-41984567D01*
X108822765Y-42029621D01*
X108850141Y-42083350D01*
X108850147Y-42083359D01*
X108882523Y-42127921D01*
X108882524Y-42127922D01*
X109562000Y-41448446D01*
X109562000Y-41454661D01*
X109589259Y-41556394D01*
X109641920Y-41647606D01*
X109716394Y-41722080D01*
X109807606Y-41774741D01*
X109909339Y-41802000D01*
X109915553Y-41802000D01*
X109236076Y-42481474D01*
X109280650Y-42513859D01*
X109462968Y-42606755D01*
X109657582Y-42669990D01*
X109859683Y-42702000D01*
X110064317Y-42702000D01*
X110266417Y-42669990D01*
X110461031Y-42606755D01*
X110643349Y-42513859D01*
X110687921Y-42481474D01*
X110008447Y-41802000D01*
X110014661Y-41802000D01*
X110116394Y-41774741D01*
X110207606Y-41722080D01*
X110282080Y-41647606D01*
X110334741Y-41556394D01*
X110362000Y-41454661D01*
X110362000Y-41448447D01*
X111041474Y-42127921D01*
X111073859Y-42083349D01*
X111166755Y-41901031D01*
X111229990Y-41706417D01*
X111262000Y-41504317D01*
X111262000Y-41299682D01*
X111229990Y-41097582D01*
X111166755Y-40902968D01*
X111073859Y-40720650D01*
X111041474Y-40676077D01*
X111041474Y-40676076D01*
X110362000Y-41355551D01*
X110362000Y-41349339D01*
X110334741Y-41247606D01*
X110282080Y-41156394D01*
X110207606Y-41081920D01*
X110116394Y-41029259D01*
X110014661Y-41002000D01*
X110008446Y-41002000D01*
X110687922Y-40322524D01*
X110687921Y-40322523D01*
X110643359Y-40290147D01*
X110643350Y-40290141D01*
X110461031Y-40197244D01*
X110266417Y-40134009D01*
X110064317Y-40102000D01*
X109859683Y-40102000D01*
X109657582Y-40134009D01*
X109462968Y-40197244D01*
X109280644Y-40290143D01*
X109236077Y-40322523D01*
X109236077Y-40322524D01*
X109915554Y-41002000D01*
X109909339Y-41002000D01*
X109807606Y-41029259D01*
X109716394Y-41081920D01*
X109641920Y-41156394D01*
X109589259Y-41247606D01*
X109562000Y-41349339D01*
X109562000Y-41355553D01*
X108882524Y-40676077D01*
X108882523Y-40676077D01*
X108850143Y-40720644D01*
X108822765Y-40774378D01*
X108774790Y-40825174D01*
X108706969Y-40841969D01*
X108640834Y-40819431D01*
X108601795Y-40774378D01*
X108574284Y-40720385D01*
X108453971Y-40554786D01*
X108309213Y-40410028D01*
X108143613Y-40289715D01*
X108143612Y-40289714D01*
X108143610Y-40289713D01*
X108057452Y-40245813D01*
X107961223Y-40196781D01*
X107766534Y-40133522D01*
X107591995Y-40105878D01*
X107564352Y-40101500D01*
X107359648Y-40101500D01*
X107335329Y-40105351D01*
X107157465Y-40133522D01*
X106962776Y-40196781D01*
X106780386Y-40289715D01*
X106614786Y-40410028D01*
X106470028Y-40554786D01*
X106349715Y-40720386D01*
X106256781Y-40902776D01*
X106193522Y-41097465D01*
X106161500Y-41299648D01*
X104416187Y-41299648D01*
X104424000Y-41250317D01*
X104424000Y-41045682D01*
X104391990Y-40843582D01*
X104328755Y-40648968D01*
X104235859Y-40466650D01*
X104203474Y-40422077D01*
X104203474Y-40422076D01*
X103524000Y-41101551D01*
X103524000Y-41095339D01*
X103496741Y-40993606D01*
X103444080Y-40902394D01*
X103369606Y-40827920D01*
X103278394Y-40775259D01*
X103176661Y-40748000D01*
X103170446Y-40748000D01*
X103849922Y-40068524D01*
X103849921Y-40068523D01*
X103805359Y-40036147D01*
X103805350Y-40036141D01*
X103623031Y-39943244D01*
X103428417Y-39880009D01*
X103226317Y-39848000D01*
X103021683Y-39848000D01*
X102819582Y-39880009D01*
X102624968Y-39943244D01*
X102442644Y-40036143D01*
X102398077Y-40068523D01*
X102398077Y-40068524D01*
X103077554Y-40748000D01*
X103071339Y-40748000D01*
X102969606Y-40775259D01*
X102878394Y-40827920D01*
X102803920Y-40902394D01*
X102751259Y-40993606D01*
X102724000Y-41095339D01*
X102724000Y-41101553D01*
X102044524Y-40422077D01*
X102044523Y-40422077D01*
X102012143Y-40466644D01*
X101984765Y-40520378D01*
X101936790Y-40571174D01*
X101868969Y-40587969D01*
X101802834Y-40565431D01*
X101763795Y-40520378D01*
X101736287Y-40466390D01*
X101736285Y-40466387D01*
X101736284Y-40466385D01*
X101615971Y-40300786D01*
X101471213Y-40156028D01*
X101305613Y-40035715D01*
X101305612Y-40035714D01*
X101305610Y-40035713D01*
X101248653Y-40006691D01*
X101123223Y-39942781D01*
X100928534Y-39879522D01*
X100753995Y-39851878D01*
X100726352Y-39847500D01*
X100521648Y-39847500D01*
X100497329Y-39851351D01*
X100319465Y-39879522D01*
X100124776Y-39942781D01*
X99942386Y-40035715D01*
X99776786Y-40156028D01*
X99632028Y-40300786D01*
X99511715Y-40466386D01*
X99418781Y-40648776D01*
X99355522Y-40843465D01*
X99323500Y-41045648D01*
X98000000Y-41045648D01*
X98000000Y-39612500D01*
X111408558Y-39612500D01*
X111453906Y-39645447D01*
X111489211Y-39685176D01*
X111557278Y-39806720D01*
X111678818Y-39874785D01*
X111718547Y-39910089D01*
X111892780Y-40149897D01*
X111895566Y-40153895D01*
X111911934Y-40178393D01*
X111914558Y-40182492D01*
X111935040Y-40215916D01*
X111937502Y-40220116D01*
X111951893Y-40245813D01*
X111954188Y-40250107D01*
X112064887Y-40467367D01*
X112067013Y-40471752D01*
X112079355Y-40498526D01*
X112081309Y-40502992D01*
X112096307Y-40539208D01*
X112098080Y-40543739D01*
X112108264Y-40571348D01*
X112109857Y-40575942D01*
X112185205Y-40807834D01*
X112186619Y-40812497D01*
X112194622Y-40840876D01*
X112195853Y-40845595D01*
X112205001Y-40883714D01*
X112206043Y-40888464D01*
X112211783Y-40917326D01*
X112212638Y-40922115D01*
X112243110Y-41114500D01*
X112250000Y-41114500D01*
X113248000Y-41114500D01*
X114750000Y-41114500D01*
X115748000Y-41114500D01*
X117250000Y-41114500D01*
X118248000Y-41114500D01*
X119750000Y-41114500D01*
X120748000Y-41114500D01*
X122250000Y-41114500D01*
X123248000Y-41114500D01*
X124750000Y-41114500D01*
X125748000Y-41114500D01*
X127250000Y-41114500D01*
X128248000Y-41114500D01*
X129750000Y-41114500D01*
X130748000Y-41114500D01*
X132250000Y-41114500D01*
X132250000Y-39612500D01*
X130748000Y-39612500D01*
X130748000Y-41114500D01*
X129750000Y-41114500D01*
X129750000Y-39612500D01*
X128248000Y-39612500D01*
X128248000Y-41114500D01*
X127250000Y-41114500D01*
X127250000Y-39612500D01*
X125748000Y-39612500D01*
X125748000Y-41114500D01*
X124750000Y-41114500D01*
X124750000Y-39612500D01*
X123248000Y-39612500D01*
X123248000Y-41114500D01*
X122250000Y-41114500D01*
X122250000Y-39612500D01*
X120748000Y-39612500D01*
X120748000Y-41114500D01*
X119750000Y-41114500D01*
X119750000Y-39612500D01*
X118248000Y-39612500D01*
X118248000Y-41114500D01*
X117250000Y-41114500D01*
X117250000Y-39612500D01*
X115748000Y-39612500D01*
X115748000Y-41114500D01*
X114750000Y-41114500D01*
X114750000Y-39612500D01*
X113248000Y-39612500D01*
X113248000Y-41114500D01*
X112250000Y-41114500D01*
X112250000Y-39612500D01*
X111408558Y-39612500D01*
X98000000Y-39612500D01*
X98000000Y-38614500D01*
X99124000Y-38614500D01*
X99750000Y-38614500D01*
X100748000Y-38614500D01*
X102250000Y-38614500D01*
X103248000Y-38614500D01*
X104750000Y-38614500D01*
X105748000Y-38614500D01*
X107250000Y-38614500D01*
X108248000Y-38614500D01*
X109750000Y-38614500D01*
X110748000Y-38614500D01*
X112250000Y-38614500D01*
X113248000Y-38614500D01*
X114750000Y-38614500D01*
X115748000Y-38614500D01*
X117250000Y-38614500D01*
X117250000Y-37886000D01*
X118248000Y-37886000D01*
X118248000Y-38614500D01*
X119750000Y-38614500D01*
X119750000Y-37841968D01*
X119734834Y-37846092D01*
X119728266Y-37847686D01*
X119675017Y-37859088D01*
X119668366Y-37860324D01*
X119627932Y-37866699D01*
X119621223Y-37867570D01*
X119478767Y-37882124D01*
X119475621Y-37882405D01*
X119456572Y-37883862D01*
X119453421Y-37884063D01*
X119428050Y-37885355D01*
X119424896Y-37885475D01*
X119405825Y-37885960D01*
X119402673Y-37886000D01*
X118248000Y-37886000D01*
X117250000Y-37886000D01*
X116977327Y-37886000D01*
X116974175Y-37885960D01*
X116955104Y-37885475D01*
X116951950Y-37885355D01*
X116926579Y-37884063D01*
X116923428Y-37883862D01*
X116904379Y-37882405D01*
X116901233Y-37882124D01*
X116758777Y-37867570D01*
X116752068Y-37866699D01*
X116711634Y-37860324D01*
X116704983Y-37859088D01*
X116651734Y-37847686D01*
X116645166Y-37846092D01*
X116605698Y-37835362D01*
X116599225Y-37833411D01*
X116379396Y-37760567D01*
X116372619Y-37758100D01*
X116332067Y-37741990D01*
X116325446Y-37739135D01*
X116272799Y-37714587D01*
X116266352Y-37711349D01*
X116227927Y-37690631D01*
X116221679Y-37687024D01*
X116023008Y-37564483D01*
X116016980Y-37560518D01*
X115981220Y-37535478D01*
X115975434Y-37531170D01*
X115929868Y-37495140D01*
X115924342Y-37490503D01*
X115891744Y-37461492D01*
X115886500Y-37456544D01*
X115748000Y-37318044D01*
X115748000Y-38614500D01*
X114750000Y-38614500D01*
X114750000Y-37181753D01*
X120748000Y-37181753D01*
X120748000Y-38614500D01*
X122250000Y-38614500D01*
X122250000Y-37886500D01*
X123248000Y-37886500D01*
X123248000Y-38614500D01*
X124750000Y-38614500D01*
X125748000Y-38614500D01*
X127250000Y-38614500D01*
X128248000Y-38614500D01*
X129750000Y-38614500D01*
X129750000Y-37633724D01*
X130748000Y-37633724D01*
X130748000Y-38614500D01*
X132250000Y-38614500D01*
X132250000Y-37337209D01*
X132246654Y-37339083D01*
X132242361Y-37341378D01*
X132018019Y-37455686D01*
X132013636Y-37457811D01*
X131986861Y-37470154D01*
X131982392Y-37472109D01*
X131946175Y-37487107D01*
X131941647Y-37488879D01*
X131914037Y-37499064D01*
X131909440Y-37500658D01*
X131670007Y-37578455D01*
X131665347Y-37579869D01*
X131637005Y-37587862D01*
X131632300Y-37589089D01*
X131594183Y-37598242D01*
X131589423Y-37599287D01*
X131560523Y-37605036D01*
X131555728Y-37605892D01*
X131307059Y-37645277D01*
X131302236Y-37645944D01*
X131273003Y-37649404D01*
X131268165Y-37649881D01*
X131229086Y-37652959D01*
X131224221Y-37653246D01*
X131194769Y-37654404D01*
X131189897Y-37654500D01*
X130938103Y-37654500D01*
X130933231Y-37654404D01*
X130903779Y-37653246D01*
X130898914Y-37652959D01*
X130859835Y-37649881D01*
X130854997Y-37649404D01*
X130825764Y-37645944D01*
X130820941Y-37645277D01*
X130748000Y-37633724D01*
X129750000Y-37633724D01*
X129750000Y-37254229D01*
X129581731Y-37131975D01*
X129577843Y-37129032D01*
X129556874Y-37112500D01*
X128248000Y-37112500D01*
X128248000Y-38614500D01*
X127250000Y-38614500D01*
X127250000Y-37112500D01*
X125748000Y-37112500D01*
X125748000Y-38614500D01*
X124750000Y-38614500D01*
X124750000Y-37434233D01*
X124517234Y-37568620D01*
X124513691Y-37570589D01*
X124492060Y-37582152D01*
X124488451Y-37584006D01*
X124459156Y-37598454D01*
X124455484Y-37600191D01*
X124433109Y-37610329D01*
X124429386Y-37611943D01*
X124169047Y-37719779D01*
X124165276Y-37721269D01*
X124142330Y-37729906D01*
X124138512Y-37731272D01*
X124107582Y-37741773D01*
X124103718Y-37743015D01*
X124080204Y-37750149D01*
X124076298Y-37751265D01*
X123804093Y-37824203D01*
X123800156Y-37825189D01*
X123776254Y-37830762D01*
X123772290Y-37831618D01*
X123740253Y-37837991D01*
X123736255Y-37838719D01*
X123712034Y-37842717D01*
X123708025Y-37843311D01*
X123428638Y-37880094D01*
X123424606Y-37880558D01*
X123400177Y-37882964D01*
X123396131Y-37883296D01*
X123363535Y-37885432D01*
X123359484Y-37885631D01*
X123334953Y-37886434D01*
X123330896Y-37886500D01*
X123248000Y-37886500D01*
X122250000Y-37886500D01*
X122250000Y-37734161D01*
X122241488Y-37731272D01*
X122237670Y-37729906D01*
X122214724Y-37721269D01*
X122210953Y-37719779D01*
X121950614Y-37611943D01*
X121946891Y-37610329D01*
X121924516Y-37600191D01*
X121920844Y-37598454D01*
X121891549Y-37584006D01*
X121887940Y-37582152D01*
X121866309Y-37570589D01*
X121862766Y-37568620D01*
X121618729Y-37427726D01*
X121615250Y-37425641D01*
X121594400Y-37412676D01*
X121590988Y-37410476D01*
X121563828Y-37392328D01*
X121560491Y-37390019D01*
X121540544Y-37375725D01*
X121537286Y-37373308D01*
X121313725Y-37201764D01*
X121310545Y-37199241D01*
X121291572Y-37183670D01*
X121288481Y-37181046D01*
X121263922Y-37159509D01*
X121260914Y-37156783D01*
X121242997Y-37140002D01*
X121240081Y-37137180D01*
X121215401Y-37112500D01*
X120792692Y-37112500D01*
X120766483Y-37154992D01*
X120762518Y-37161020D01*
X120748000Y-37181753D01*
X114750000Y-37181753D01*
X114750000Y-37112500D01*
X113248000Y-37112500D01*
X113248000Y-38614500D01*
X112250000Y-38614500D01*
X112250000Y-37112500D01*
X110748000Y-37112500D01*
X110748000Y-38614500D01*
X109750000Y-38614500D01*
X109750000Y-37112500D01*
X108248000Y-37112500D01*
X108248000Y-38614500D01*
X107250000Y-38614500D01*
X107250000Y-37112500D01*
X105748000Y-37112500D01*
X105748000Y-38614500D01*
X104750000Y-38614500D01*
X104750000Y-37112500D01*
X103248000Y-37112500D01*
X103248000Y-38614500D01*
X102250000Y-38614500D01*
X102250000Y-37112500D01*
X100748000Y-37112500D01*
X100748000Y-38614500D01*
X99750000Y-38614500D01*
X99750000Y-37112500D01*
X99124000Y-37112500D01*
X99124000Y-38614500D01*
X98000000Y-38614500D01*
X98000000Y-36114500D01*
X99124000Y-36114500D01*
X99750000Y-36114500D01*
X100748000Y-36114500D01*
X102250000Y-36114500D01*
X103248000Y-36114500D01*
X104750000Y-36114500D01*
X105748000Y-36114500D01*
X107250000Y-36114500D01*
X108248000Y-36114500D01*
X109750000Y-36114500D01*
X110748000Y-36114500D01*
X112250000Y-36114500D01*
X113248000Y-36114500D01*
X114750000Y-36114500D01*
X114750000Y-34612500D01*
X113248000Y-34612500D01*
X113248000Y-36114500D01*
X112250000Y-36114500D01*
X112250000Y-34612500D01*
X110748000Y-34612500D01*
X110748000Y-36114500D01*
X109750000Y-36114500D01*
X109750000Y-34612500D01*
X108248000Y-34612500D01*
X108248000Y-36114500D01*
X107250000Y-36114500D01*
X107250000Y-34612500D01*
X105748000Y-34612500D01*
X105748000Y-36114500D01*
X104750000Y-36114500D01*
X104750000Y-34612500D01*
X103248000Y-34612500D01*
X103248000Y-36114500D01*
X102250000Y-36114500D01*
X102250000Y-34612500D01*
X100748000Y-34612500D01*
X100748000Y-36114500D01*
X99750000Y-36114500D01*
X99750000Y-34612500D01*
X99124000Y-34612500D01*
X99124000Y-36114500D01*
X98000000Y-36114500D01*
X98000000Y-33788014D01*
X116290000Y-33788014D01*
X116290000Y-34738000D01*
X117589999Y-34738000D01*
X117564979Y-34798402D01*
X117540000Y-34923981D01*
X117540000Y-35052019D01*
X117564979Y-35177598D01*
X117589999Y-35238000D01*
X116290000Y-35238000D01*
X116290000Y-36187985D01*
X116300493Y-36290689D01*
X116300494Y-36290696D01*
X116355641Y-36457118D01*
X116355643Y-36457123D01*
X116447684Y-36606344D01*
X116571655Y-36730315D01*
X116720876Y-36822356D01*
X116720881Y-36822358D01*
X116887303Y-36877505D01*
X116887310Y-36877506D01*
X116990014Y-36887999D01*
X116990027Y-36888000D01*
X117940000Y-36888000D01*
X117940000Y-35588001D01*
X118000402Y-35613021D01*
X118125981Y-35638000D01*
X118254019Y-35638000D01*
X118379598Y-35613021D01*
X118440000Y-35588001D01*
X118440000Y-36888000D01*
X119389973Y-36888000D01*
X119389985Y-36887999D01*
X119492689Y-36877506D01*
X119492696Y-36877505D01*
X119659118Y-36822358D01*
X119659123Y-36822356D01*
X119808344Y-36730315D01*
X119932315Y-36606344D01*
X120024356Y-36457123D01*
X120024358Y-36457118D01*
X120079505Y-36290696D01*
X120079506Y-36290689D01*
X120089999Y-36187985D01*
X120090000Y-36187972D01*
X120090000Y-35238000D01*
X118790001Y-35238000D01*
X118815021Y-35177598D01*
X118840000Y-35052019D01*
X118840000Y-34923981D01*
X118827958Y-34863441D01*
X121289500Y-34863441D01*
X121289500Y-35112558D01*
X121289501Y-35112575D01*
X121306013Y-35238000D01*
X121322018Y-35359565D01*
X121351900Y-35471086D01*
X121386498Y-35600207D01*
X121481830Y-35830361D01*
X121481837Y-35830376D01*
X121606400Y-36046126D01*
X121758060Y-36243774D01*
X121758066Y-36243781D01*
X121934218Y-36419933D01*
X121934225Y-36419939D01*
X122131873Y-36571599D01*
X122347623Y-36696162D01*
X122347638Y-36696169D01*
X122430075Y-36730315D01*
X122577793Y-36791502D01*
X122818435Y-36855982D01*
X123065435Y-36888500D01*
X123065442Y-36888500D01*
X123314558Y-36888500D01*
X123314565Y-36888500D01*
X123561565Y-36855982D01*
X123802207Y-36791502D01*
X124032373Y-36696164D01*
X124248127Y-36571599D01*
X124445776Y-36419938D01*
X124621938Y-36243776D01*
X124721135Y-36114500D01*
X125860702Y-36114500D01*
X127250000Y-36114500D01*
X128248000Y-36114500D01*
X128857339Y-36114500D01*
X128791545Y-35912007D01*
X128790131Y-35907347D01*
X128782138Y-35879005D01*
X128780911Y-35874300D01*
X128771758Y-35836183D01*
X128770713Y-35831423D01*
X128764964Y-35802523D01*
X128764108Y-35797728D01*
X128724723Y-35549059D01*
X128724056Y-35544236D01*
X128720596Y-35515003D01*
X128720119Y-35510165D01*
X128717041Y-35471086D01*
X128716754Y-35466221D01*
X128715596Y-35436769D01*
X128715500Y-35431897D01*
X128715500Y-35199713D01*
X129713500Y-35199713D01*
X129713500Y-35412286D01*
X129746753Y-35622239D01*
X129812444Y-35824414D01*
X129908951Y-36013820D01*
X130033890Y-36185786D01*
X130184213Y-36336109D01*
X130356179Y-36461048D01*
X130356181Y-36461049D01*
X130356184Y-36461051D01*
X130545588Y-36557557D01*
X130747757Y-36623246D01*
X130957713Y-36656500D01*
X130957714Y-36656500D01*
X131170286Y-36656500D01*
X131170287Y-36656500D01*
X131380243Y-36623246D01*
X131582412Y-36557557D01*
X131771816Y-36461051D01*
X131828404Y-36419938D01*
X131943786Y-36336109D01*
X131943788Y-36336106D01*
X131943792Y-36336104D01*
X132094104Y-36185792D01*
X132094106Y-36185788D01*
X132094109Y-36185786D01*
X132219048Y-36013820D01*
X132219047Y-36013820D01*
X132219051Y-36013816D01*
X132315557Y-35824412D01*
X132381246Y-35622243D01*
X132414500Y-35412287D01*
X132414500Y-35199713D01*
X132381246Y-34989757D01*
X132315557Y-34787588D01*
X132219051Y-34598184D01*
X132219049Y-34598181D01*
X132219048Y-34598179D01*
X132094109Y-34426213D01*
X131980181Y-34312285D01*
X131946696Y-34250962D01*
X131951680Y-34181270D01*
X131993552Y-34125337D01*
X132024529Y-34108422D01*
X132156086Y-34059354D01*
X132156093Y-34059350D01*
X132271187Y-33973190D01*
X132271190Y-33973187D01*
X132357350Y-33858093D01*
X132357354Y-33858086D01*
X132407596Y-33723379D01*
X132407598Y-33723372D01*
X132413999Y-33663844D01*
X132414000Y-33663827D01*
X132414000Y-33016000D01*
X131497012Y-33016000D01*
X131529925Y-32958993D01*
X131564000Y-32831826D01*
X131564000Y-32700174D01*
X131529925Y-32573007D01*
X131497012Y-32516000D01*
X132414000Y-32516000D01*
X132414000Y-31868172D01*
X132413999Y-31868155D01*
X132407598Y-31808627D01*
X132407596Y-31808620D01*
X132357354Y-31673913D01*
X132357350Y-31673906D01*
X132271190Y-31558812D01*
X132271187Y-31558809D01*
X132156093Y-31472649D01*
X132156086Y-31472645D01*
X132021379Y-31422403D01*
X132021372Y-31422401D01*
X131961844Y-31416000D01*
X131314000Y-31416000D01*
X131314000Y-32332988D01*
X131256993Y-32300075D01*
X131129826Y-32266000D01*
X130998174Y-32266000D01*
X130871007Y-32300075D01*
X130814000Y-32332988D01*
X130814000Y-31416000D01*
X130166155Y-31416000D01*
X130106627Y-31422401D01*
X130106620Y-31422403D01*
X129971913Y-31472645D01*
X129971906Y-31472649D01*
X129856812Y-31558809D01*
X129856809Y-31558812D01*
X129770649Y-31673906D01*
X129770645Y-31673913D01*
X129720403Y-31808620D01*
X129720401Y-31808627D01*
X129714000Y-31868155D01*
X129714000Y-32516000D01*
X130630988Y-32516000D01*
X130598075Y-32573007D01*
X130564000Y-32700174D01*
X130564000Y-32831826D01*
X130598075Y-32958993D01*
X130630988Y-33016000D01*
X129714000Y-33016000D01*
X129714000Y-33663844D01*
X129720401Y-33723372D01*
X129720403Y-33723379D01*
X129770645Y-33858086D01*
X129770649Y-33858093D01*
X129856809Y-33973187D01*
X129856812Y-33973190D01*
X129971906Y-34059350D01*
X129971913Y-34059354D01*
X130103470Y-34108422D01*
X130159404Y-34150293D01*
X130183821Y-34215758D01*
X130168969Y-34284031D01*
X130147819Y-34312285D01*
X130033889Y-34426215D01*
X129908951Y-34598179D01*
X129812444Y-34787585D01*
X129746753Y-34989760D01*
X129713500Y-35199713D01*
X128715500Y-35199713D01*
X128715500Y-35180103D01*
X128715596Y-35175231D01*
X128716754Y-35145779D01*
X128717041Y-35140914D01*
X128720119Y-35101835D01*
X128720596Y-35096997D01*
X128724056Y-35067764D01*
X128724723Y-35062941D01*
X128764108Y-34814272D01*
X128764964Y-34809477D01*
X128770713Y-34780577D01*
X128771758Y-34775817D01*
X128780911Y-34737700D01*
X128782138Y-34732995D01*
X128790131Y-34704653D01*
X128791545Y-34699993D01*
X128819973Y-34612500D01*
X128248000Y-34612500D01*
X128248000Y-36114500D01*
X127250000Y-36114500D01*
X127250000Y-34612500D01*
X126064075Y-34612500D01*
X126082094Y-34749362D01*
X126082558Y-34753394D01*
X126084964Y-34777823D01*
X126085296Y-34781869D01*
X126087432Y-34814465D01*
X126087631Y-34818516D01*
X126088434Y-34843047D01*
X126088500Y-34847104D01*
X126088500Y-35128896D01*
X126088434Y-35132953D01*
X126087631Y-35157484D01*
X126087432Y-35161535D01*
X126085296Y-35194131D01*
X126084964Y-35198177D01*
X126082558Y-35222606D01*
X126082094Y-35226638D01*
X126045311Y-35506025D01*
X126044717Y-35510034D01*
X126040719Y-35534255D01*
X126039991Y-35538253D01*
X126033618Y-35570290D01*
X126032762Y-35574254D01*
X126027189Y-35598156D01*
X126026203Y-35602093D01*
X125953265Y-35874298D01*
X125952149Y-35878204D01*
X125945015Y-35901718D01*
X125943773Y-35905582D01*
X125933272Y-35936512D01*
X125931906Y-35940330D01*
X125923269Y-35963276D01*
X125921779Y-35967047D01*
X125860702Y-36114500D01*
X124721135Y-36114500D01*
X124773599Y-36046127D01*
X124898164Y-35830373D01*
X124993502Y-35600207D01*
X125057982Y-35359565D01*
X125090500Y-35112565D01*
X125090500Y-34863435D01*
X125057982Y-34616435D01*
X124993502Y-34375793D01*
X124912928Y-34181270D01*
X124898169Y-34145638D01*
X124898162Y-34145623D01*
X124773599Y-33929873D01*
X124621939Y-33732225D01*
X124621933Y-33732218D01*
X124504215Y-33614500D01*
X125748000Y-33614500D01*
X127250000Y-33614500D01*
X128248000Y-33614500D01*
X128716000Y-33614500D01*
X128716000Y-32815454D01*
X128725439Y-32768002D01*
X128726268Y-32766000D01*
X128725439Y-32763998D01*
X128716000Y-32716546D01*
X128716000Y-32112500D01*
X128248000Y-32112500D01*
X128248000Y-33614500D01*
X127250000Y-33614500D01*
X127250000Y-32112500D01*
X125748000Y-32112500D01*
X125748000Y-33614500D01*
X124504215Y-33614500D01*
X124445781Y-33556066D01*
X124445774Y-33556060D01*
X124248126Y-33404400D01*
X124032376Y-33279837D01*
X124032361Y-33279830D01*
X123802207Y-33184498D01*
X123721916Y-33162984D01*
X123561565Y-33120018D01*
X123561564Y-33120017D01*
X123561561Y-33120017D01*
X123314575Y-33087501D01*
X123314570Y-33087500D01*
X123314565Y-33087500D01*
X123065435Y-33087500D01*
X123065429Y-33087500D01*
X123065424Y-33087501D01*
X122818438Y-33120017D01*
X122577792Y-33184498D01*
X122347638Y-33279830D01*
X122347623Y-33279837D01*
X122131873Y-33404400D01*
X121934225Y-33556060D01*
X121934218Y-33556066D01*
X121758066Y-33732218D01*
X121758060Y-33732225D01*
X121606400Y-33929873D01*
X121481837Y-34145623D01*
X121481830Y-34145638D01*
X121386498Y-34375792D01*
X121322017Y-34616438D01*
X121289501Y-34863424D01*
X121289500Y-34863441D01*
X118827958Y-34863441D01*
X118815021Y-34798402D01*
X118790001Y-34738000D01*
X120090000Y-34738000D01*
X120090000Y-33788027D01*
X120089999Y-33788014D01*
X120079506Y-33685310D01*
X120079505Y-33685303D01*
X120024358Y-33518881D01*
X120024356Y-33518876D01*
X119932315Y-33369655D01*
X119808344Y-33245684D01*
X119659123Y-33153643D01*
X119659118Y-33153641D01*
X119492696Y-33098494D01*
X119492689Y-33098493D01*
X119389985Y-33088000D01*
X118440000Y-33088000D01*
X118440000Y-34387998D01*
X118379598Y-34362979D01*
X118254019Y-34338000D01*
X118125981Y-34338000D01*
X118000402Y-34362979D01*
X117940000Y-34387998D01*
X117940000Y-33088000D01*
X116990014Y-33088000D01*
X116887310Y-33098493D01*
X116887303Y-33098494D01*
X116720881Y-33153641D01*
X116720876Y-33153643D01*
X116571655Y-33245684D01*
X116447684Y-33369655D01*
X116355643Y-33518876D01*
X116355641Y-33518881D01*
X116300494Y-33685303D01*
X116300493Y-33685310D01*
X116290000Y-33788014D01*
X98000000Y-33788014D01*
X98000000Y-33614500D01*
X99124000Y-33614500D01*
X99750000Y-33614500D01*
X100748000Y-33614500D01*
X102250000Y-33614500D01*
X103248000Y-33614500D01*
X103911576Y-33614500D01*
X103881931Y-33535018D01*
X103879452Y-33527679D01*
X103865847Y-33482828D01*
X103863832Y-33475352D01*
X103849484Y-33414637D01*
X103847939Y-33407045D01*
X103840028Y-33360840D01*
X103838959Y-33353167D01*
X103827788Y-33249245D01*
X103827477Y-33245936D01*
X103825865Y-33225899D01*
X103825643Y-33222587D01*
X103824214Y-33195905D01*
X103824081Y-33192587D01*
X103823545Y-33172536D01*
X103823501Y-33169222D01*
X103823500Y-32112500D01*
X103248000Y-32112500D01*
X103248000Y-33614500D01*
X102250000Y-33614500D01*
X102250000Y-32112500D01*
X100748000Y-32112500D01*
X100748000Y-33614500D01*
X99750000Y-33614500D01*
X99750000Y-32112500D01*
X99124000Y-32112500D01*
X99124000Y-33614500D01*
X98000000Y-33614500D01*
X98000000Y-31360135D01*
X104821500Y-31360135D01*
X104821500Y-33155870D01*
X104821501Y-33155876D01*
X104827908Y-33215483D01*
X104878202Y-33350328D01*
X104878206Y-33350335D01*
X104964452Y-33465544D01*
X104964455Y-33465547D01*
X105079664Y-33551793D01*
X105079671Y-33551797D01*
X105214517Y-33602091D01*
X105214516Y-33602091D01*
X105221444Y-33602835D01*
X105274127Y-33608500D01*
X107069872Y-33608499D01*
X107129483Y-33602091D01*
X107264331Y-33551796D01*
X107379546Y-33465546D01*
X107465796Y-33350331D01*
X107514810Y-33218916D01*
X107556681Y-33162984D01*
X107622145Y-33138566D01*
X107690418Y-33153417D01*
X107718673Y-33174569D01*
X107832213Y-33288109D01*
X108004179Y-33413048D01*
X108004181Y-33413049D01*
X108004184Y-33413051D01*
X108193588Y-33509557D01*
X108395757Y-33575246D01*
X108605713Y-33608500D01*
X108605714Y-33608500D01*
X108818286Y-33608500D01*
X108818287Y-33608500D01*
X109028243Y-33575246D01*
X109230412Y-33509557D01*
X109419816Y-33413051D01*
X109506138Y-33350335D01*
X109591786Y-33288109D01*
X109591788Y-33288106D01*
X109591792Y-33288104D01*
X109742104Y-33137792D01*
X109742106Y-33137788D01*
X109742109Y-33137786D01*
X109867048Y-32965820D01*
X109867047Y-32965820D01*
X109867051Y-32965816D01*
X109871514Y-32957054D01*
X109919488Y-32906259D01*
X109987308Y-32889463D01*
X110053444Y-32911999D01*
X110092486Y-32957056D01*
X110096951Y-32965820D01*
X110221890Y-33137786D01*
X110372213Y-33288109D01*
X110544179Y-33413048D01*
X110544181Y-33413049D01*
X110544184Y-33413051D01*
X110733588Y-33509557D01*
X110935757Y-33575246D01*
X111145713Y-33608500D01*
X111145714Y-33608500D01*
X111358286Y-33608500D01*
X111358287Y-33608500D01*
X111568243Y-33575246D01*
X111770412Y-33509557D01*
X111782172Y-33503565D01*
X113248000Y-33503565D01*
X113248000Y-33614500D01*
X114750000Y-33614500D01*
X114750000Y-32112500D01*
X113599825Y-32112500D01*
X113600404Y-32127231D01*
X113600500Y-32132103D01*
X113600500Y-32383897D01*
X113600404Y-32388769D01*
X113599246Y-32418221D01*
X113598959Y-32423086D01*
X113595881Y-32462165D01*
X113595404Y-32467003D01*
X113591944Y-32496236D01*
X113591277Y-32501059D01*
X113551892Y-32749728D01*
X113551036Y-32754523D01*
X113545287Y-32783423D01*
X113544242Y-32788183D01*
X113535089Y-32826300D01*
X113533862Y-32831005D01*
X113525869Y-32859347D01*
X113524455Y-32864007D01*
X113446658Y-33103440D01*
X113445064Y-33108037D01*
X113434879Y-33135647D01*
X113433107Y-33140175D01*
X113418109Y-33176392D01*
X113416154Y-33180861D01*
X113403811Y-33207636D01*
X113401686Y-33212019D01*
X113287378Y-33436361D01*
X113285083Y-33440654D01*
X113270693Y-33466350D01*
X113268231Y-33470550D01*
X113248000Y-33503565D01*
X111782172Y-33503565D01*
X111959816Y-33413051D01*
X112046138Y-33350335D01*
X112131786Y-33288109D01*
X112131788Y-33288106D01*
X112131792Y-33288104D01*
X112282104Y-33137792D01*
X112282106Y-33137788D01*
X112282109Y-33137786D01*
X112407048Y-32965820D01*
X112407047Y-32965820D01*
X112407051Y-32965816D01*
X112503557Y-32776412D01*
X112569246Y-32574243D01*
X112602500Y-32364287D01*
X112602500Y-32151713D01*
X112569246Y-31941757D01*
X112503557Y-31739588D01*
X112407051Y-31550184D01*
X112407049Y-31550181D01*
X112407048Y-31550179D01*
X112282109Y-31378213D01*
X112131786Y-31227890D01*
X111959820Y-31102951D01*
X111770414Y-31006444D01*
X111770413Y-31006443D01*
X111770412Y-31006443D01*
X111568243Y-30940754D01*
X111568241Y-30940753D01*
X111568240Y-30940753D01*
X111406957Y-30915208D01*
X111358287Y-30907500D01*
X111145713Y-30907500D01*
X111097042Y-30915208D01*
X110935760Y-30940753D01*
X110733585Y-31006444D01*
X110544179Y-31102951D01*
X110372213Y-31227890D01*
X110221890Y-31378213D01*
X110096949Y-31550182D01*
X110092484Y-31558946D01*
X110044509Y-31609742D01*
X109976688Y-31626536D01*
X109910553Y-31603998D01*
X109871516Y-31558946D01*
X109867050Y-31550182D01*
X109742109Y-31378213D01*
X109591786Y-31227890D01*
X109419820Y-31102951D01*
X109230414Y-31006444D01*
X109230413Y-31006443D01*
X109230412Y-31006443D01*
X109028243Y-30940754D01*
X109028241Y-30940753D01*
X109028240Y-30940753D01*
X108866957Y-30915208D01*
X108818287Y-30907500D01*
X108605713Y-30907500D01*
X108557042Y-30915208D01*
X108395760Y-30940753D01*
X108193585Y-31006444D01*
X108004179Y-31102951D01*
X107832215Y-31227889D01*
X107718673Y-31341431D01*
X107657350Y-31374915D01*
X107587658Y-31369931D01*
X107531725Y-31328059D01*
X107514810Y-31297082D01*
X107465797Y-31165671D01*
X107465793Y-31165664D01*
X107379547Y-31050455D01*
X107379544Y-31050452D01*
X107264335Y-30964206D01*
X107264328Y-30964202D01*
X107129482Y-30913908D01*
X107129483Y-30913908D01*
X107069883Y-30907501D01*
X107069881Y-30907500D01*
X107069873Y-30907500D01*
X107069864Y-30907500D01*
X105274129Y-30907500D01*
X105274123Y-30907501D01*
X105214516Y-30913908D01*
X105079671Y-30964202D01*
X105079664Y-30964206D01*
X104964455Y-31050452D01*
X104964452Y-31050455D01*
X104878206Y-31165664D01*
X104878202Y-31165671D01*
X104827908Y-31300517D01*
X104821501Y-31360116D01*
X104821500Y-31360135D01*
X98000000Y-31360135D01*
X98000000Y-30593619D01*
X100748000Y-30593619D01*
X100748000Y-31114500D01*
X102250000Y-31114500D01*
X102250000Y-30576976D01*
X100748000Y-30593619D01*
X98000000Y-30593619D01*
X98000000Y-30455115D01*
X113248000Y-30455115D01*
X113248000Y-31012434D01*
X113268231Y-31045450D01*
X113270693Y-31049650D01*
X113285083Y-31075346D01*
X113287378Y-31079639D01*
X113305141Y-31114500D01*
X114750000Y-31114500D01*
X114750000Y-30438472D01*
X113248000Y-30455115D01*
X98000000Y-30455115D01*
X98000000Y-30427414D01*
X115748000Y-30427414D01*
X115748000Y-31114500D01*
X117250000Y-31114500D01*
X117250000Y-30410771D01*
X115748000Y-30427414D01*
X98000000Y-30427414D01*
X98000000Y-30399713D01*
X118248000Y-30399713D01*
X118248000Y-31114500D01*
X119750000Y-31114500D01*
X119750000Y-30383071D01*
X118248000Y-30399713D01*
X98000000Y-30399713D01*
X98000000Y-30372012D01*
X120748000Y-30372012D01*
X120748000Y-30502796D01*
X120882135Y-30481552D01*
X120901533Y-30480025D01*
X121090417Y-30480025D01*
X121109815Y-30481552D01*
X121296374Y-30511100D01*
X121315294Y-30515642D01*
X121494933Y-30574010D01*
X121512910Y-30581456D01*
X121681207Y-30667208D01*
X121697797Y-30677375D01*
X121850608Y-30788398D01*
X121865404Y-30801035D01*
X121998965Y-30934596D01*
X122011602Y-30949392D01*
X122122625Y-31102203D01*
X122130161Y-31114500D01*
X122250000Y-31114500D01*
X123248000Y-31114500D01*
X124750000Y-31114500D01*
X125748000Y-31114500D01*
X127250000Y-31114500D01*
X128248000Y-31114500D01*
X128943458Y-31114500D01*
X128945297Y-31111638D01*
X128950345Y-31104368D01*
X129079243Y-30932184D01*
X129084796Y-30925293D01*
X129119876Y-30884808D01*
X129125908Y-30878329D01*
X129176329Y-30827908D01*
X129182808Y-30821876D01*
X129223293Y-30786796D01*
X129230184Y-30781243D01*
X129402368Y-30652345D01*
X129409638Y-30647297D01*
X129454705Y-30618333D01*
X129462319Y-30613815D01*
X129524909Y-30579638D01*
X129532823Y-30575677D01*
X129581559Y-30553419D01*
X129589739Y-30550030D01*
X129750000Y-30490256D01*
X129750000Y-30362500D01*
X128248000Y-30362500D01*
X128248000Y-31114500D01*
X127250000Y-31114500D01*
X127250000Y-30362500D01*
X125748000Y-30362500D01*
X125748000Y-31114500D01*
X124750000Y-31114500D01*
X124750000Y-30362500D01*
X123248000Y-30362500D01*
X123248000Y-31114500D01*
X122250000Y-31114500D01*
X122250000Y-30362500D01*
X121606555Y-30362500D01*
X120748000Y-30372012D01*
X98000000Y-30372012D01*
X98000000Y-29622633D01*
X98019685Y-29555594D01*
X98072489Y-29509839D01*
X98122624Y-29498641D01*
X110228153Y-29364508D01*
X110229527Y-29364500D01*
X133741500Y-29364500D01*
X133808539Y-29384185D01*
G37*
%TD.AperFunction*%
%TD*%
M02*
